if (_typeface_js && _typeface_js.loadFace) _typeface_js.loadFace({"glyphs":{"0":{"ha":590,"x_min":38,"x_max":556,"o":"m 38 406 q 41 445 38 415 q 47 510 43 475 q 56 578 52 545 q 62 627 60 612 q 73 662 65 644 q 99 680 80 680 q 125 662 118 680 q 136 627 133 644 q 193 673 165 665 q 258 681 220 681 q 384 656 328 681 q 477 588 439 631 q 536 488 515 545 q 556 369 556 431 q 535 245 556 309 q 475 130 514 182 q 382 43 437 77 q 258 9 327 9 q 177 29 212 9 q 118 81 142 49 q 78 154 94 113 q 54 239 62 195 q 41 327 45 283 q 38 406 38 370 m 103 545 q 101 481 103 522 q 100 391 99 439 q 107 292 100 343 q 130 201 114 241 q 176 134 146 160 q 254 109 206 109 q 353 132 311 109 q 425 195 396 156 q 467 282 453 233 q 481 382 481 331 q 465 465 481 423 q 419 540 449 507 q 349 591 389 572 q 258 602 308 609 q 225 591 240 600 q 193 574 210 583 q 154 555 175 564 q 103 545 133 547 z "},"1":{"ha":232,"x_min":22,"x_max":197,"o":"m 122 24 q 110 104 117 56 q 96 208 103 152 q 80 322 88 263 q 62 435 72 381 q 43 534 53 490 q 22 604 33 578 q 34 630 22 620 q 61 640 46 640 q 81 635 73 640 q 96 614 90 629 q 110 546 100 590 q 130 448 119 502 q 153 334 141 393 q 174 222 164 275 q 189 125 183 168 q 197 60 195 83 q 196 39 197 50 q 191 20 195 28 q 180 5 187 11 q 159 -1 172 -1 q 122 24 134 -1 z "},"2":{"ha":479,"x_min":23,"x_max":469,"o":"m 96 58 q 121 139 102 94 q 164 232 140 184 q 214 325 189 279 q 255 408 239 370 q 275 473 271 446 q 261 507 279 499 q 198 499 243 514 q 73 441 153 484 q 39 449 56 441 q 23 479 23 457 q 50 536 24 513 q 109 574 75 560 q 181 591 144 587 q 245 590 218 595 q 314 563 292 586 q 340 503 336 540 q 334 418 345 465 q 304 317 324 370 q 255 208 283 264 q 197 99 227 152 q 248 106 217 102 q 315 115 279 111 q 385 122 350 119 q 450 125 420 125 q 450 71 469 91 q 389 39 430 50 q 298 24 349 28 q 205 16 247 19 q 167 14 186 16 q 132 13 148 11 q 106 24 117 15 q 96 58 96 34 z "},"3":{"ha":627,"x_min":23,"x_max":593,"o":"m 281 183 q 357 192 316 183 q 435 220 399 201 q 495 271 471 240 q 519 346 519 302 q 503 385 519 376 q 460 395 486 395 q 406 393 435 396 q 352 393 377 389 q 310 412 327 396 q 293 468 293 429 q 300 511 293 491 q 317 549 308 530 q 333 587 326 568 q 340 627 340 606 q 223 609 270 627 q 145 570 176 591 q 95 532 114 549 q 62 514 76 514 q 44 521 52 514 q 32 538 37 528 q 25 559 27 548 q 23 579 23 570 q 41 633 23 609 q 87 675 58 656 q 151 705 115 693 q 221 725 186 718 q 287 736 256 732 q 338 739 317 739 q 401 712 382 739 q 420 644 420 685 q 416 579 420 606 q 393 517 412 552 q 465 488 430 502 q 529 454 500 473 q 575 406 557 434 q 593 336 593 378 q 573 245 593 294 q 519 154 553 195 q 440 88 486 113 q 345 73 395 64 q 317 89 328 76 q 297 119 305 102 q 285 153 289 136 q 281 183 281 171 z "},"4":{"ha":700,"x_min":24,"x_max":669,"o":"m 541 271 q 401 231 475 243 q 256 220 328 220 q 174 227 216 220 q 100 252 133 233 q 45 305 66 271 q 24 393 24 339 q 28 455 24 416 q 39 536 33 494 q 55 619 46 578 q 73 689 64 661 q 104 686 87 689 q 123 663 121 682 l 123 368 q 199 322 163 330 q 252 315 236 315 q 413 337 357 315 q 494 393 469 359 q 521 466 518 427 q 522 538 524 505 q 524 595 521 572 q 555 617 528 617 q 590 599 575 617 q 616 566 605 581 q 615 414 608 486 q 634 275 623 343 q 657 138 646 208 q 669 -7 669 69 q 593 24 618 -7 q 556 100 567 56 q 544 191 545 144 q 541 271 543 239 z "},"5":{"ha":486,"x_min":34,"x_max":468,"o":"m 76 109 q 104 104 91 109 q 130 94 117 99 q 155 85 142 90 q 183 80 168 80 q 297 107 264 88 q 328 152 330 126 q 296 206 326 178 q 226 261 267 235 q 140 309 184 288 q 61 339 95 330 q 35 403 35 372 q 50 463 34 434 q 95 515 65 491 q 161 557 125 540 q 234 585 197 575 q 304 593 271 594 q 354 591 326 593 q 408 583 382 590 q 451 557 434 575 q 468 507 468 540 q 393 500 434 502 q 309 497 351 499 q 227 490 266 495 q 161 475 189 486 q 122 444 134 464 q 121 393 110 425 q 197 339 149 358 q 292 299 245 320 q 370 247 338 278 q 397 159 401 216 q 376 85 397 115 q 323 37 355 56 q 250 9 290 18 q 172 0 210 0 q 128 10 146 0 q 98 37 110 20 q 81 72 87 53 q 76 109 76 91 z "},"6":{"ha":636,"x_min":26,"x_max":620,"o":"m 151 -117 q 131 -8 151 -57 q 88 87 111 41 q 45 182 65 134 q 26 290 26 231 q 26 360 26 320 q 33 438 26 400 q 55 507 39 476 q 102 548 71 537 q 142 517 133 532 q 152 476 152 502 q 144 427 152 452 q 126 378 136 403 q 109 329 117 354 q 100 277 100 304 q 102 243 100 262 q 110 208 104 225 q 125 176 115 190 q 151 153 136 161 q 220 233 180 191 q 307 309 260 275 q 408 363 354 343 q 519 376 461 382 q 564 358 545 372 q 595 326 583 345 q 614 284 608 307 q 620 240 620 262 q 598 159 620 194 q 541 99 576 125 q 462 56 506 73 q 372 28 418 39 q 285 13 327 18 q 213 7 243 8 l 213 -141 l 151 -117 m 247 142 q 258 115 247 127 q 285 103 270 103 q 345 111 302 103 q 433 133 388 118 q 511 171 477 148 q 545 225 545 194 q 524 271 545 263 q 469 279 503 279 q 408 269 446 279 q 334 241 370 259 q 273 197 298 222 q 247 142 247 172 z "},"7":{"ha":703,"x_min":12,"x_max":694,"o":"m 255 245 q 264 313 255 289 q 292 348 274 336 q 337 361 311 359 q 397 363 363 363 q 401 399 397 381 q 404 433 404 418 q 394 458 403 449 q 359 468 385 468 q 203 456 281 468 q 47 444 126 444 l 38 444 q 22 467 31 449 q 12 491 12 486 q 22 517 12 499 q 38 540 31 536 q 118 549 72 544 q 214 557 164 553 q 316 564 264 562 q 412 567 368 567 q 472 550 453 567 q 498 504 491 533 q 504 437 505 475 q 505 357 503 399 l 694 345 q 677 307 686 320 q 659 288 669 294 q 635 278 648 281 q 602 271 621 275 q 571 264 590 269 q 534 256 552 260 q 504 249 517 252 q 491 245 491 245 l 491 -5 q 475 -4 487 -5 q 450 1 463 -3 q 428 11 438 5 q 418 24 418 16 l 418 245 l 255 245 z "},"8":{"ha":505,"x_min":23,"x_max":477,"o":"m 170 58 q 170 79 170 68 q 175 101 171 91 q 187 117 179 111 q 210 123 195 123 q 252 111 233 123 q 297 98 271 98 q 325 100 312 98 q 345 122 338 103 q 273 182 305 167 q 215 193 240 198 q 171 169 190 189 q 138 123 152 149 q 115 71 125 98 q 99 24 106 43 q 86 24 96 24 q 73 23 76 23 q 39 31 56 23 q 23 61 23 39 q 24 68 23 64 q 24 73 24 72 q 70 146 49 117 q 106 199 91 176 q 132 244 122 222 q 148 292 142 266 q 153 355 153 319 q 148 444 153 391 q 191 493 163 471 q 253 532 220 515 q 320 557 286 548 q 382 567 354 567 q 416 552 400 567 q 444 515 433 537 q 463 471 456 494 q 469 431 469 448 q 464 389 469 411 q 430 368 458 368 q 395 383 408 368 q 369 418 382 399 q 317 364 340 397 q 293 294 293 331 q 311 262 292 279 q 357 229 331 245 q 410 198 384 213 q 444 172 435 183 q 468 108 477 138 q 428 53 458 77 q 356 14 397 28 q 286 -3 315 -1 q 246 -2 267 -3 q 208 3 225 -1 q 180 21 191 8 q 170 58 170 34 m 233 403 q 241 391 233 396 q 262 387 250 387 q 278 393 267 387 q 300 409 289 400 q 318 426 311 418 q 326 438 326 434 q 311 479 326 471 q 279 479 297 487 q 248 450 262 471 q 233 403 233 429 z "},"9":{"ha":571,"x_min":-5,"x_max":518,"o":"m 437 381 q 298 294 374 332 q 140 256 221 256 q 24 408 -5 256 q 84 488 45 452 q 169 551 123 525 q 258 593 214 578 q 330 609 301 608 q 353 607 347 609 q 359 598 359 605 q 356 578 359 591 q 353 544 353 566 q 288 515 330 536 q 205 467 247 494 q 133 414 164 441 q 100 370 102 388 q 134 345 98 351 q 264 355 171 339 q 369 395 332 372 q 421 445 406 419 q 437 498 437 471 q 437 547 438 525 q 439 583 437 568 q 460 601 441 598 l 510 553 l 492 126 q 513 111 507 119 q 518 88 518 102 q 509 66 518 76 q 488 49 500 57 q 463 35 476 41 q 442 27 450 30 l 437 381 z "}," ":{"ha":694,"x_min":0,"x_max":0,"o":""},"¤":{"ha":1021,"x_min":20,"x_max":983,"o":"m 172 418 q 153 432 167 422 q 124 454 140 442 q 94 476 109 465 q 73 491 79 487 q 61 503 69 495 q 45 519 53 511 q 31 532 37 526 q 24 540 24 538 q 50 590 20 555 q 129 669 80 625 q 239 760 178 712 q 359 846 300 807 q 467 909 418 884 q 543 935 517 935 l 566 935 q 584 926 570 933 q 614 909 598 918 q 645 893 631 901 q 663 884 659 886 q 712 878 677 882 q 787 869 747 873 q 861 863 826 865 q 910 860 897 860 q 944 833 930 850 q 966 796 958 817 q 979 754 975 776 q 983 712 983 732 q 958 574 983 646 q 901 429 933 502 q 836 285 868 357 q 788 148 803 213 q 762 123 781 125 q 727 122 742 122 q 669 134 694 122 q 618 159 643 145 q 567 185 594 174 q 506 197 540 197 q 452 177 483 189 q 389 146 420 165 q 332 98 358 127 q 296 24 307 69 q 285 10 294 19 q 271 0 275 1 q 220 111 236 65 q 198 201 205 157 q 187 296 191 245 q 172 418 183 346 m 639 245 q 669 227 655 235 q 701 220 684 220 q 732 236 724 220 q 741 271 741 252 q 739 283 741 274 q 738 294 738 292 l 639 245 m 271 241 q 311 251 290 241 q 345 271 331 260 l 271 320 l 271 241 m 270 487 q 302 420 270 454 q 380 357 335 385 q 470 311 425 330 q 541 293 515 293 q 631 309 590 293 q 703 354 673 326 q 749 420 732 382 q 765 503 765 458 q 758 589 765 544 q 731 673 750 635 q 681 738 712 712 q 602 764 650 764 q 471 749 532 764 q 366 701 411 734 q 296 616 321 669 q 270 487 270 563 m 148 553 q 153 532 148 540 q 172 517 157 524 q 197 540 187 522 q 212 578 206 557 q 220 616 217 598 q 222 639 222 633 q 208 625 218 635 q 184 603 197 614 q 162 581 172 591 q 148 566 152 570 l 148 553 m 758 787 q 768 726 758 757 q 791 665 779 696 q 817 602 804 633 q 836 540 830 571 q 867 574 853 552 q 890 622 880 597 q 905 671 899 647 q 910 712 910 696 q 907 733 910 720 q 901 758 905 746 q 892 779 897 770 q 884 787 887 787 l 758 787 m 491 836 q 489 844 492 841 q 480 846 486 846 q 471 844 475 846 q 468 836 467 841 q 479 825 471 825 q 491 836 488 825 z "},"–":{"ha":884,"x_min":12,"x_max":852,"o":"m 12 712 q 15 723 12 716 q 22 738 18 730 q 31 753 26 746 q 38 762 35 760 q 85 678 68 726 q 112 576 102 631 q 129 466 122 522 q 146 357 136 410 q 176 256 157 304 q 229 173 195 209 q 315 117 263 137 q 444 96 366 96 q 607 140 538 96 q 719 252 675 183 q 783 408 762 321 q 803 579 803 494 q 794 654 803 618 q 774 725 785 690 q 755 794 764 760 q 746 867 746 829 q 794 848 774 867 q 825 801 814 830 q 842 736 837 772 q 850 665 848 700 q 851 600 852 629 q 850 553 850 570 q 827 361 850 456 q 752 189 803 266 q 621 60 701 111 q 430 0 541 9 q 292 28 353 -7 q 184 125 231 64 q 105 267 138 187 q 52 427 72 346 q 22 583 31 507 q 12 712 12 658 m 258 712 q 271 714 262 713 q 283 715 281 715 q 333 698 308 715 q 358 652 358 681 q 326 612 349 628 q 281 597 302 595 q 251 626 260 600 q 258 712 241 652 m 429 665 q 429 678 429 670 q 431 694 429 686 q 439 707 434 701 q 456 712 445 712 q 497 709 481 712 q 520 701 513 707 q 530 684 528 694 q 532 655 532 673 q 522 606 532 624 q 477 587 511 587 q 453 594 463 587 q 438 612 444 601 q 431 637 433 624 q 429 665 429 651 z "},"—":{"ha":1462,"x_min":14,"x_max":1420,"o":"m 533 236 q 478 249 517 239 q 397 271 439 259 q 315 294 354 283 q 262 309 277 305 q 231 319 252 312 q 181 336 209 326 q 124 361 153 347 q 70 391 95 374 q 29 426 45 407 q 14 467 14 445 q 41 557 14 521 q 112 616 69 594 q 204 648 155 639 q 298 656 254 656 q 353 652 327 656 q 406 642 380 647 q 459 633 433 637 q 513 628 486 628 q 545 661 529 628 q 581 743 562 694 q 627 850 601 792 q 690 958 652 909 q 780 1040 728 1006 q 903 1073 831 1073 q 956 1065 926 1073 q 1011 1040 985 1057 q 1055 1001 1038 1024 q 1073 948 1073 978 q 1065 886 1073 916 q 1048 829 1058 857 q 1031 773 1039 802 q 1024 715 1024 745 q 1025 709 1024 713 q 1025 703 1025 704 q 1079 734 1054 723 q 1129 749 1104 745 q 1181 755 1154 754 q 1240 755 1207 755 q 1320 751 1286 755 q 1376 733 1354 747 q 1409 690 1398 719 q 1420 612 1420 661 q 1398 490 1420 540 q 1337 409 1375 441 q 1249 359 1299 377 q 1145 334 1199 342 q 1035 324 1090 326 q 929 323 979 323 q 937 243 929 282 q 952 164 944 203 q 968 85 960 125 q 975 1 975 45 q 914 -102 956 -76 q 821 -119 872 -129 q 717 -71 770 -109 q 621 20 663 -33 q 553 130 578 72 q 533 236 528 187 m 629 217 q 650 125 629 171 q 705 44 670 80 q 784 -14 739 8 q 876 -37 829 -37 q 907 90 910 26 q 881 206 903 153 q 828 295 859 259 q 777 338 798 331 q 736 325 761 338 q 687 294 711 312 q 646 254 663 275 q 629 217 629 233 m 138 433 q 176 420 151 429 q 232 402 201 412 q 298 382 263 392 q 364 361 332 372 q 422 344 396 351 q 460 334 448 336 q 476 332 461 332 q 499 331 491 331 q 557 350 532 331 q 583 406 583 369 q 559 512 583 472 q 496 572 536 552 q 402 599 456 593 q 288 605 349 605 q 234 597 264 605 q 176 574 203 589 q 131 536 149 559 q 113 483 113 513 q 116 454 113 468 q 138 433 119 439 m 852 445 q 874 405 852 418 q 926 387 897 392 q 987 381 956 381 q 1038 381 1019 381 q 1144 393 1089 381 q 1244 433 1199 406 q 1318 503 1289 460 q 1347 606 1347 545 q 1343 647 1347 632 q 1329 669 1339 662 q 1303 679 1320 677 q 1261 681 1287 681 q 1143 664 1202 681 q 1031 616 1084 647 q 932 545 978 586 q 853 457 887 505 q 852 452 852 454 l 852 445 m 629 583 q 635 538 629 553 q 654 515 642 522 q 689 506 667 507 q 743 505 711 505 q 792 531 765 505 q 848 599 819 557 q 905 690 878 640 q 955 785 933 739 q 990 865 977 830 q 1004 914 1004 901 q 994 950 1004 937 q 970 969 985 963 q 936 976 955 975 q 898 977 917 977 q 770 938 822 977 q 688 841 719 899 q 643 713 656 783 q 629 583 629 644 z "},"!":{"ha":221,"x_min":58,"x_max":184,"o":"m 72 109 q 84 163 72 142 q 132 184 96 184 q 174 164 163 184 q 184 111 184 144 q 172 56 184 83 q 121 30 159 30 q 96 37 106 30 q 81 56 87 45 q 74 82 76 68 q 72 109 72 96 m 85 500 q 78 562 83 519 q 70 656 73 604 q 63 764 66 708 q 59 867 60 819 q 61 947 58 914 q 71 985 64 979 q 90 989 73 985 q 109 994 106 994 q 121 996 117 994 q 127 998 125 998 q 131 996 129 998 q 136 983 133 993 q 143 873 137 935 q 156 747 149 811 q 168 620 163 682 q 174 506 174 557 q 174 484 174 492 q 170 471 174 476 q 159 465 167 467 q 137 463 152 463 q 117 463 123 463 q 105 467 110 464 q 96 478 100 471 q 85 500 92 486 z "},"A":{"ha":517,"x_min":11,"x_max":481,"o":"m 73 345 q 52 374 61 350 q 35 431 42 397 q 24 503 28 464 q 16 581 19 543 q 12 650 14 618 q 11 701 11 682 q 16 722 11 715 q 38 738 20 730 q 70 704 57 726 q 91 658 83 682 q 104 609 99 633 q 111 566 109 585 q 155 706 118 640 q 258 811 193 772 q 331 772 302 804 q 377 695 359 741 q 403 594 395 650 q 415 484 411 538 q 421 378 419 429 q 430 294 423 328 q 461 197 445 247 q 481 96 477 148 q 473 61 481 75 q 430 49 465 47 q 389 140 403 92 q 368 238 374 189 q 361 338 362 288 q 359 438 359 389 q 307 433 340 444 q 242 407 274 422 q 186 379 210 392 q 160 368 161 366 l 160 24 q 149 4 160 9 q 121 0 137 -1 q 92 8 106 1 q 73 24 77 15 l 73 345 m 271 689 q 229 668 247 689 q 200 618 212 647 q 183 559 189 590 q 178 507 178 528 q 214 507 189 507 q 267 511 240 507 q 313 527 293 515 q 334 563 334 538 q 331 598 334 576 q 321 640 328 620 q 302 675 315 661 q 271 689 290 689 z "},"\"":{"ha":275,"x_min":19,"x_max":225,"o":"m 24 873 q 25 899 19 887 q 43 918 31 910 q 68 927 54 925 q 90 925 81 929 q 89 845 79 884 q 109 772 99 806 q 119 713 119 739 q 85 675 118 688 q 64 681 75 675 q 50 701 53 686 q 43 737 47 712 q 34 790 38 762 q 27 842 30 818 q 24 873 24 865 m 130 891 q 131 916 125 905 q 149 935 137 928 q 174 945 160 943 q 195 943 187 947 q 195 863 184 902 q 215 790 205 823 q 224 731 225 757 q 191 693 224 705 q 170 699 180 693 q 156 719 159 704 q 149 755 153 730 q 140 808 144 780 q 133 859 136 836 q 130 891 130 883 z "},"#":{"ha":639,"x_min":20,"x_max":613,"o":"m 170 349 l 170 389 q 130 382 155 389 q 80 376 104 376 q 38 387 56 376 q 20 435 20 399 q 37 466 20 454 q 76 484 54 477 q 118 493 98 491 q 145 496 138 495 l 145 654 q 196 675 182 680 q 215 646 210 670 q 222 587 220 623 q 240 519 225 552 q 279 521 254 519 q 329 527 304 522 q 372 542 354 532 q 391 570 391 552 l 391 749 q 446 736 430 749 q 467 702 461 723 q 474 653 472 681 q 488 595 476 625 q 503 592 490 593 q 530 591 515 591 q 558 591 545 591 q 572 589 571 591 q 574 581 572 589 q 576 562 575 572 q 579 543 578 552 q 581 530 581 533 q 549 508 564 519 q 523 483 533 496 q 510 454 513 469 q 518 423 507 439 l 613 423 q 596 393 609 408 q 570 365 583 378 q 547 338 557 351 q 537 313 537 326 q 538 306 537 311 q 538 300 538 301 q 543 286 538 297 q 551 262 547 274 q 559 239 556 250 q 563 225 563 228 q 557 210 563 216 q 544 203 552 205 q 528 200 536 201 q 514 199 519 199 q 479 212 490 199 q 460 238 468 224 q 442 264 453 252 q 407 277 431 277 q 355 264 376 277 q 320 235 335 252 q 295 197 305 217 q 275 161 285 178 q 253 136 264 145 q 225 130 241 126 q 178 178 209 160 q 120 214 148 197 q 77 252 92 231 q 77 311 62 273 l 170 349 m 430 456 q 391 453 422 456 q 328 444 361 450 q 269 425 294 437 q 243 397 243 414 l 243 365 q 304 365 271 365 q 365 372 336 365 q 412 397 393 378 q 430 456 430 416 z "},"B":{"ha":597,"x_min":23,"x_max":568,"o":"m 99 73 q 62 346 79 216 q 24 614 45 476 q 24 631 24 617 q 23 648 23 646 q 58 669 46 663 q 77 669 69 674 q 90 646 84 663 q 106 600 95 629 q 138 648 106 633 q 210 663 171 663 q 305 644 267 663 q 366 591 343 625 q 395 513 388 557 q 393 418 401 468 q 459 399 427 415 q 515 357 491 382 q 554 298 540 331 q 568 232 568 266 q 523 107 568 153 q 412 37 477 61 q 275 7 347 14 q 148 0 202 0 q 132 11 141 0 q 117 37 123 22 q 99 73 109 52 m 148 410 q 147 311 148 362 q 158 217 146 259 q 199 148 170 175 q 289 121 229 121 q 349 126 315 121 q 415 146 384 132 q 469 184 446 160 q 491 245 491 209 q 467 288 479 271 q 431 313 456 305 q 361 316 406 320 q 239 294 316 312 q 245 367 239 340 q 260 408 251 393 q 281 429 270 422 q 301 446 292 437 q 317 471 311 456 q 323 518 323 487 q 298 558 323 549 q 245 567 273 567 q 189 553 209 567 q 161 516 170 538 q 150 466 152 494 q 148 410 148 438 z "},"$":{"ha":578,"x_min":43,"x_max":534,"o":"m 43 167 q 68 236 43 210 q 140 262 92 262 q 126 209 140 235 q 113 156 113 183 q 138 99 113 121 q 201 66 164 77 q 277 51 237 54 q 343 47 316 47 q 345 144 343 95 q 345 242 346 193 q 339 340 345 292 q 320 433 334 388 q 281 528 304 477 q 247 627 258 579 q 245 712 236 674 q 298 769 254 750 q 395 743 351 769 q 469 677 438 716 q 516 593 499 637 q 533 511 533 548 q 528 476 533 500 q 505 433 522 452 q 472 456 481 438 q 459 498 463 475 q 454 548 456 522 q 446 595 453 574 q 422 630 439 616 q 372 644 406 644 q 383 538 372 585 q 412 452 395 491 q 450 377 430 412 q 488 306 471 342 q 517 230 506 270 q 529 141 529 190 q 504 17 534 61 q 424 -41 473 -27 q 313 -45 374 -56 q 197 -4 252 -34 q 99 70 141 26 q 43 167 57 114 m 391 354 q 391 299 391 339 q 392 212 391 259 q 398 122 393 165 q 412 58 403 79 q 437 67 425 58 q 458 89 449 76 q 473 115 467 102 q 480 138 479 129 q 476 191 483 161 q 456 251 469 221 q 426 308 444 281 q 391 354 408 335 z "},"C":{"ha":454,"x_min":20,"x_max":419,"o":"m 20 305 q 28 420 20 357 q 57 538 35 483 q 119 630 79 593 q 225 667 160 667 q 257 665 240 667 q 288 655 274 662 q 312 635 302 648 q 321 602 321 623 q 321 595 321 600 q 320 590 320 591 q 216 568 258 590 q 147 510 174 547 q 109 424 121 473 q 98 320 98 374 q 102 243 98 283 q 121 171 107 203 q 163 117 136 138 q 235 96 190 96 q 282 105 259 96 q 327 124 305 114 q 371 143 349 134 q 418 152 393 152 l 419 103 q 392 78 414 92 q 343 48 370 64 q 289 20 316 33 q 245 0 262 7 q 241 -1 244 -1 l 235 -1 q 132 27 174 -1 q 66 100 91 56 q 31 199 41 145 q 20 305 20 254 z "},"%":{"ha":971,"x_min":-4,"x_max":910,"o":"m 465 663 q 367 634 403 663 q 308 562 331 605 q 269 469 285 519 q 232 375 254 418 q 176 303 210 332 q 84 274 142 274 q 45 290 62 274 q 16 330 27 307 q 1 378 5 353 q -1 422 -4 403 q 61 586 33 525 q 115 679 90 647 q 164 720 140 711 q 214 728 189 728 q 269 723 240 727 q 334 724 298 719 q 415 748 370 728 q 515 817 460 768 q 553 774 540 802 q 566 719 566 746 q 551 562 566 639 q 517 408 537 484 q 475 255 496 331 q 442 103 454 179 q 429 27 437 73 q 412 -62 420 -19 q 398 -136 404 -104 q 392 -167 392 -167 l 319 -142 l 465 663 m 751 125 q 694 132 713 125 q 668 153 675 138 q 661 192 661 168 q 661 251 661 216 q 663 319 661 288 q 675 375 665 351 q 708 412 685 399 q 773 425 731 425 q 872 402 834 425 q 910 312 910 380 q 897 249 910 282 q 863 189 884 216 q 813 143 842 161 q 751 125 784 125 m 838 336 q 758 302 789 336 q 726 220 726 267 q 808 250 779 220 q 838 336 838 281 m 146 594 q 120 545 138 575 q 88 481 102 514 q 73 419 75 449 q 98 373 72 389 q 145 391 122 373 q 186 435 168 410 q 214 489 203 461 q 224 537 224 517 q 222 565 224 551 q 212 588 220 579 q 188 600 203 597 q 146 594 172 602 z "},"D":{"ha":578,"x_min":23,"x_max":543,"o":"m 148 24 q 126 179 137 113 q 102 304 115 245 q 69 421 88 362 q 23 553 50 480 q 47 595 23 582 q 102 612 71 608 q 168 616 134 617 q 222 616 202 616 q 334 593 277 616 q 437 533 391 571 q 513 444 483 495 q 543 335 543 393 q 530 246 543 300 q 495 143 518 193 q 437 58 472 94 q 357 23 403 23 q 327 24 343 23 q 297 31 311 26 q 275 45 283 35 q 266 73 266 56 q 281 94 266 83 q 318 122 296 106 q 367 159 340 138 q 416 205 393 179 q 453 262 438 231 q 468 334 468 294 q 448 412 468 378 q 397 470 429 446 q 325 506 365 494 q 244 518 285 518 q 220 518 236 518 q 188 515 203 518 q 160 504 172 511 q 148 481 148 496 q 160 358 148 419 q 188 237 172 297 q 216 116 203 176 q 228 -7 228 56 q 208 -6 220 -7 q 183 -3 195 -5 q 161 6 171 0 q 148 24 152 12 z "},"E":{"ha":639,"x_min":23,"x_max":616,"o":"m 99 271 q 75 267 88 267 q 51 271 62 267 q 31 284 39 275 q 23 307 23 293 q 39 355 23 330 q 73 393 54 381 l 73 628 q 199 646 136 628 q 326 684 263 663 q 452 722 389 704 q 578 739 515 739 q 597 726 585 739 q 616 712 609 713 q 555 665 597 686 q 462 625 514 643 q 354 590 410 606 q 253 558 298 574 q 178 526 208 543 q 148 491 148 510 q 160 448 148 456 q 194 441 172 441 q 249 449 222 441 q 301 467 275 457 q 353 486 327 477 q 407 494 380 494 q 433 481 422 494 q 445 454 445 469 q 425 408 445 425 q 374 381 404 392 q 308 363 343 370 q 242 343 273 355 q 191 312 212 331 q 171 259 171 293 q 175 204 171 229 q 190 161 179 179 q 220 132 201 142 q 271 121 240 121 q 334 140 301 118 q 398 195 368 163 q 454 262 429 228 q 491 320 479 297 l 541 271 q 530 253 541 270 q 505 212 519 236 q 473 163 490 189 q 444 122 456 138 q 408 83 429 104 q 362 43 387 61 q 311 12 338 24 q 258 -1 283 -1 q 180 30 210 -1 q 133 104 151 61 q 109 194 115 148 q 99 271 102 240 z "},"&":{"ha":517,"x_min":27,"x_max":495,"o":"m 422 95 q 378 100 403 104 q 326 87 353 96 q 273 67 298 79 q 227 52 247 56 q 186 58 203 41 q 175 113 168 76 q 191 184 175 146 q 227 250 208 221 q 175 229 195 235 q 126 222 155 222 q 58 245 88 222 q 27 311 27 269 q 48 378 27 349 q 102 430 69 407 q 175 472 134 453 q 254 510 216 491 q 324 549 292 529 q 373 594 357 568 l 309 770 q 326 826 307 812 q 381 821 346 840 q 402 742 391 788 q 427 645 414 696 q 453 544 439 594 q 480 453 467 494 q 386 448 431 453 q 299 428 340 442 q 220 389 258 414 q 151 323 183 363 q 191 342 167 331 q 241 366 216 354 q 292 387 267 378 q 336 397 317 396 q 367 382 358 397 q 376 347 376 366 q 350 258 376 300 q 300 175 324 216 q 352 206 323 190 q 410 225 381 222 q 438 220 423 225 q 466 204 453 214 q 487 180 479 194 q 495 151 495 167 l 495 -217 l 420 -216 l 422 95 z "},"'":{"ha":138,"x_min":30,"x_max":125,"o":"m 33 632 q 33 699 30 666 q 41 762 37 732 q 48 816 45 791 q 47 860 52 841 q 106 852 90 868 q 124 802 123 836 q 115 719 125 768 q 95 613 106 670 q 62 615 71 613 q 33 632 53 617 z "},"F":{"ha":544,"x_min":24,"x_max":522,"o":"m 160 221 q 125 243 133 225 q 119 283 117 262 q 130 322 121 304 q 148 345 140 340 q 139 416 148 393 q 116 446 130 438 q 86 450 102 453 q 56 444 71 446 q 33 444 42 441 q 24 467 24 448 q 39 502 24 481 q 70 541 53 522 q 103 573 87 559 q 123 590 119 587 q 182 597 146 593 q 257 605 217 601 q 338 612 297 609 q 412 616 378 616 q 440 612 426 616 q 467 602 454 609 q 487 582 479 594 q 495 553 495 570 q 475 515 492 528 q 433 498 457 502 q 382 500 408 495 q 336 518 355 506 q 309 517 328 518 q 271 513 290 517 q 237 505 252 510 q 222 491 222 499 l 222 370 q 298 378 260 370 q 372 396 335 387 q 446 414 408 406 q 522 422 483 422 q 491 368 522 387 q 444 343 479 361 q 370 306 410 326 q 296 269 331 286 q 245 245 260 252 q 248 212 245 241 q 249 144 250 182 q 243 72 248 107 q 222 24 237 37 q 184 7 208 11 q 160 3 172 3 l 160 221 l 160 221 z "},"(":{"ha":393,"x_min":11,"x_max":377,"o":"m 281 -84 q 156 -12 208 -64 q 72 112 104 41 q 25 269 39 183 q 12 441 11 354 q 30 614 14 529 q 74 770 46 699 q 140 892 102 841 q 227 962 179 943 q 219 903 227 922 q 201 870 212 884 q 177 840 190 856 q 153 791 164 823 q 126 701 141 754 q 98 587 111 648 q 78 460 85 526 q 73 330 71 393 q 92 207 76 266 q 144 102 109 148 q 236 26 179 56 q 377 -9 293 -3 q 367 -38 377 -24 q 342 -62 357 -52 q 311 -78 328 -72 q 281 -84 294 -84 z "},"G":{"ha":639,"x_min":37,"x_max":629,"o":"m 37 431 q 44 491 37 452 q 66 569 52 530 q 101 636 80 608 q 149 665 122 665 q 176 655 163 665 q 199 632 190 646 q 215 602 209 618 q 221 572 221 586 q 165 554 187 572 q 132 508 144 536 q 115 449 119 480 q 110 392 110 418 q 133 235 109 296 q 197 145 157 174 q 286 117 236 117 q 386 144 336 118 q 481 218 435 170 q 556 332 526 266 q 541 361 556 353 q 506 369 525 369 q 464 361 484 369 q 423 343 444 353 q 384 326 403 334 q 345 317 365 317 q 314 334 321 317 q 307 368 307 350 q 332 422 307 401 q 392 452 357 442 q 466 465 427 463 q 532 468 505 468 q 566 457 549 468 q 597 429 583 446 q 621 393 612 412 q 629 357 629 373 q 610 271 629 315 q 557 188 590 228 q 481 113 524 148 q 394 54 439 79 q 304 14 349 28 q 221 -1 259 -1 q 164 26 190 -1 q 118 94 138 53 q 83 186 98 136 q 58 286 68 237 q 42 373 47 334 q 37 431 37 412 z "},")":{"ha":332,"x_min":9,"x_max":305,"o":"m 134 0 q 151 99 134 52 q 186 195 167 146 q 222 297 206 244 q 239 414 239 350 q 222 560 240 494 q 172 684 203 627 q 98 793 140 742 q 9 898 56 845 q 27 926 9 917 q 61 935 45 935 q 181 844 133 910 q 257 695 229 779 q 295 521 285 612 q 302 355 305 430 q 276 145 302 247 q 184 -49 250 43 q 179 -50 183 -49 q 172 -50 175 -50 q 142 -34 149 -50 q 134 0 134 -18 z "},"H":{"ha":663,"x_min":27,"x_max":644,"o":"m 73 197 q 71 255 76 218 q 57 336 65 292 q 41 427 49 380 q 31 515 34 473 q 31 590 27 557 q 50 639 34 623 q 76 644 68 650 q 90 623 84 639 q 98 586 95 608 q 107 544 102 564 q 123 508 113 524 q 155 488 134 492 q 242 490 197 488 q 332 500 288 492 q 418 524 377 509 q 491 566 458 538 q 467 678 477 618 q 476 697 467 686 q 498 716 486 708 q 524 726 511 724 q 541 716 536 728 q 588 550 575 644 q 607 359 601 456 q 618 172 613 262 q 644 16 624 81 q 637 5 644 12 q 618 -5 631 -1 q 587 -5 605 -8 q 547 16 570 -1 q 545 56 547 28 q 540 119 543 84 q 534 193 537 155 q 527 267 530 232 q 521 329 524 302 q 517 368 518 355 q 512 412 514 396 q 505 435 510 427 q 489 444 499 442 q 460 445 479 445 q 414 441 444 445 q 351 431 385 437 q 280 416 316 425 q 215 399 244 408 q 167 382 186 391 q 148 368 148 374 q 166 229 160 282 q 174 143 172 175 q 176 96 176 111 q 175 73 175 81 q 176 55 175 66 q 174 32 176 43 q 166 12 172 20 q 148 0 160 3 q 105 35 119 12 q 85 86 91 58 q 78 143 79 114 q 73 197 77 172 z "},"+":{"ha":491,"x_min":41,"x_max":469,"o":"m 231 132 q 231 180 229 153 q 233 236 233 208 q 227 294 232 264 q 209 351 222 324 l 62 302 q 58 313 61 302 q 52 339 56 324 q 45 368 49 354 q 41 389 42 382 q 69 403 47 397 q 117 416 91 408 q 168 437 142 425 q 209 475 194 450 l 209 646 l 279 656 q 274 623 277 646 q 271 574 271 600 q 272 526 270 548 q 282 498 274 505 q 315 486 294 488 q 361 487 335 484 q 414 494 387 490 q 469 503 442 499 q 467 488 469 500 q 463 463 465 476 q 458 439 460 450 q 454 425 456 427 l 308 376 q 303 318 302 342 q 307 271 304 294 q 315 223 311 248 q 319 161 319 198 q 293 153 307 161 q 268 137 279 145 q 246 125 256 129 q 231 132 236 122 z "},"I":{"ha":233,"x_min":23,"x_max":175,"o":"m 95 3 q 93 47 95 16 q 89 116 91 77 q 85 198 87 155 q 81 280 83 241 q 77 349 79 319 q 73 393 75 380 q 62 448 71 420 q 45 504 54 476 q 30 560 37 532 q 23 616 23 589 q 31 650 23 635 q 62 665 39 665 q 106 589 88 643 q 138 468 125 536 q 158 326 151 400 q 170 187 165 251 q 174 78 174 123 q 175 22 175 33 q 159 18 171 22 q 133 9 146 14 q 108 3 119 5 q 95 3 96 0 z "},",":{"ha":209,"x_min":34,"x_max":153,"o":"m 34 -80 q 38 -43 34 -68 q 50 12 42 -18 q 68 71 57 41 q 92 124 79 100 q 120 160 104 148 q 153 167 136 172 q 153 83 153 136 q 147 -20 153 30 q 123 -107 141 -71 q 72 -144 106 -144 q 54 -137 61 -144 q 42 -121 46 -130 q 36 -100 38 -111 q 34 -80 34 -88 z "},"-":{"ha":524,"x_min":47,"x_max":464,"o":"m 47 332 q 54 355 47 347 q 75 369 60 362 q 138 374 92 370 q 234 382 183 378 q 330 390 285 387 q 393 395 376 393 q 412 395 396 395 q 435 396 429 396 q 458 378 452 392 q 462 348 464 365 q 452 315 460 331 q 430 294 444 300 l 104 270 q 47 332 47 270 z "},"J":{"ha":283,"x_min":18,"x_max":247,"o":"m 19 122 q 18 172 18 149 q 24 205 19 194 q 42 213 30 216 q 77 186 54 210 q 85 141 77 157 q 105 119 94 125 q 129 115 117 113 q 148 122 141 117 q 163 146 157 130 q 170 179 168 161 q 173 214 172 197 q 174 243 174 231 q 155 356 174 298 q 112 470 136 414 q 69 581 88 526 q 50 686 50 636 q 63 705 50 704 q 99 712 76 707 q 165 581 138 651 q 210 442 193 511 q 236 312 228 373 q 247 209 244 251 q 243 143 247 176 q 225 83 239 110 q 188 39 212 56 q 126 22 164 22 q 49 46 79 22 q 19 122 19 71 z "},".":{"ha":240,"x_min":68,"x_max":195,"o":"m 68 71 q 87 117 71 98 q 145 141 103 136 q 195 64 191 129 q 178 14 195 27 q 126 0 161 0 q 77 21 87 0 q 68 71 68 42 z "},"K":{"ha":726,"x_min":24,"x_max":708,"o":"m 24 663 q 30 701 24 685 q 50 738 35 716 q 92 688 73 723 q 127 609 111 654 q 153 515 142 564 q 169 418 163 465 q 176 332 175 372 q 172 271 176 293 q 241 355 205 307 q 315 452 278 403 q 391 543 353 500 q 464 610 429 586 q 469 602 464 609 q 479 586 473 594 q 491 570 486 578 q 496 562 496 563 q 473 500 496 530 q 420 441 450 469 q 361 388 391 414 q 321 339 332 362 q 384 318 343 319 q 473 326 425 317 q 573 349 522 335 q 667 369 624 362 q 708 334 694 369 q 609 283 663 305 q 497 248 555 262 q 380 227 439 233 q 267 220 321 220 q 208 210 227 227 q 184 167 190 194 q 179 106 178 140 q 178 46 180 73 q 163 3 175 19 q 119 -7 151 -14 q 114 167 118 83 q 100 334 110 251 q 71 498 90 416 q 24 663 53 579 z "},"/":{"ha":403,"x_min":31,"x_max":456,"o":"m 38 -49 q 64 64 45 -12 q 113 238 84 141 q 179 444 142 335 q 256 652 216 552 q 337 833 296 751 q 418 960 378 916 q 444 947 433 960 q 456 910 456 935 q 337 694 387 812 q 246 447 288 575 q 164 185 205 319 q 73 -75 123 52 q 42 -83 53 -85 q 38 -49 31 -80 z "},"L":{"ha":553,"x_min":31,"x_max":543,"o":"m 85 566 q 90 486 88 533 q 96 387 91 439 q 113 283 102 335 q 146 189 125 231 q 201 122 167 148 q 286 96 235 96 q 356 113 324 96 q 418 150 388 130 q 477 186 448 170 q 543 203 507 203 q 513 121 543 159 q 441 55 484 83 q 351 12 399 27 q 264 -3 302 -3 q 164 30 205 -3 q 98 113 123 62 q 58 229 72 164 q 39 356 45 293 q 32 475 33 419 q 31 566 31 530 l 85 566 z "},"M":{"ha":639,"x_min":38,"x_max":605,"o":"m 85 570 q 130 538 114 570 q 156 459 146 506 q 172 357 165 412 q 189 254 179 301 q 214 176 198 208 q 256 144 229 144 q 302 161 282 144 q 338 203 323 179 q 365 252 354 227 q 382 294 376 278 q 398 346 388 308 q 418 426 408 384 q 438 505 429 468 q 450 555 448 541 l 480 566 q 498 530 488 557 q 520 464 509 503 q 544 378 532 425 q 567 284 556 331 q 587 195 578 237 q 602 122 595 152 q 604 106 602 121 q 605 84 605 91 q 604 63 605 76 q 599 39 604 50 q 583 22 594 28 q 552 22 572 15 l 480 294 q 443 256 460 282 q 410 201 426 231 q 378 142 395 172 q 341 88 361 111 q 298 53 321 65 q 243 47 274 41 q 203 60 220 47 q 174 91 186 72 q 153 132 161 110 q 136 172 144 153 q 132 143 136 164 q 125 99 129 122 q 118 54 122 76 q 111 24 114 33 q 97 7 107 14 q 75 1 87 1 q 54 7 64 1 q 38 24 43 12 l 38 517 q 51 559 38 549 q 85 570 64 570 z "},"N":{"ha":787,"x_min":12,"x_max":751,"o":"m 38 566 q 46 583 38 576 q 65 591 54 589 q 86 593 76 593 q 102 593 96 593 q 146 558 123 593 q 197 471 170 524 q 257 357 224 418 q 333 244 290 297 q 430 157 376 191 q 553 122 484 122 q 636 174 614 136 q 656 264 658 212 q 635 376 654 316 q 595 494 616 437 q 557 599 574 551 q 545 675 541 647 q 607 661 579 675 q 651 614 635 646 q 685 507 667 564 q 718 391 703 450 q 742 271 732 331 q 751 156 751 212 q 734 100 751 121 q 692 67 718 79 q 635 52 666 56 q 579 47 605 47 q 447 71 511 47 q 328 133 382 94 q 229 227 273 172 q 160 345 186 281 q 137 269 145 312 q 125 182 129 227 q 118 95 121 137 q 111 24 115 53 q 96 3 111 5 q 63 8 81 0 q 29 34 45 16 q 12 73 14 52 l 38 566 z "},"O":{"ha":651,"x_min":24,"x_max":618,"o":"m 24 491 q 40 530 30 514 q 61 551 50 547 q 82 545 72 555 q 98 509 92 536 q 106 426 104 473 q 112 330 109 378 q 123 234 115 281 q 151 153 130 187 q 206 102 171 119 q 298 96 241 85 q 372 105 330 96 q 452 132 414 114 q 516 176 490 149 q 543 240 543 203 q 521 330 543 285 q 465 411 499 374 q 386 471 430 448 q 297 494 342 494 q 250 491 277 502 q 200 468 224 480 q 161 454 176 456 q 146 479 145 452 q 159 526 146 509 q 193 553 172 544 q 237 566 213 563 q 286 568 262 568 q 409 538 349 568 q 515 461 469 509 q 590 353 562 414 q 618 229 618 292 q 585 134 618 176 q 503 61 552 91 q 398 15 454 31 q 296 -1 342 -1 q 186 22 231 -1 q 111 85 141 46 q 65 174 81 123 q 41 280 49 225 q 29 389 33 335 q 24 491 26 444 z "},"P":{"ha":553,"x_min":37,"x_max":529,"o":"m 37 567 q 58 615 37 600 q 110 637 80 631 q 171 642 140 643 q 221 642 202 642 q 313 635 260 642 q 414 610 366 629 q 496 557 463 591 q 529 467 529 524 q 509 386 529 426 q 458 314 490 346 q 386 263 426 282 q 307 244 346 244 q 272 246 293 244 q 231 255 251 248 q 197 274 212 262 q 183 307 183 286 q 206 334 183 326 q 262 347 229 342 q 334 357 296 351 q 402 374 372 362 q 449 407 433 385 q 456 467 465 429 q 423 510 449 491 q 364 542 397 529 q 298 561 331 555 q 244 567 264 567 q 189 556 210 567 q 155 526 167 545 q 138 479 142 506 q 134 420 134 452 q 133 345 134 385 q 134 264 132 304 q 149 187 137 224 q 184 122 160 151 q 218 157 205 153 q 238 150 232 161 q 244 115 244 138 q 238 67 244 91 q 222 23 232 43 q 197 -3 212 3 q 146 35 170 -3 q 106 131 123 73 q 75 258 88 189 q 54 391 62 328 q 41 503 45 454 q 37 567 37 551 z "},"Q":{"ha":663,"x_min":31,"x_max":631,"o":"m 35 293 q 33 366 34 324 q 35 452 31 408 q 48 536 38 496 q 79 605 58 576 q 135 645 100 633 q 222 642 170 656 q 361 623 289 642 q 494 566 434 605 q 592 469 553 528 q 631 332 631 411 q 618 276 631 301 q 592 228 606 251 q 566 182 578 205 q 553 134 553 159 q 562 109 553 118 q 580 90 570 99 q 598 68 590 80 q 606 38 606 57 q 600 4 614 7 q 564 13 586 1 q 517 43 541 24 q 480 73 492 62 q 410 39 439 53 q 353 15 380 24 q 299 1 327 5 q 236 -3 271 -3 q 133 24 172 -3 q 72 94 94 52 q 43 189 50 137 q 35 293 35 241 m 109 307 q 117 233 109 270 q 140 168 125 197 q 178 119 156 138 q 229 96 201 100 q 271 98 244 96 q 322 105 297 99 q 366 124 347 111 q 384 160 384 137 q 378 197 384 183 q 366 227 372 212 q 356 264 359 243 q 357 320 353 285 l 480 197 q 546 260 530 221 q 553 342 562 298 q 517 430 545 387 q 448 507 488 473 q 361 557 408 540 q 267 568 313 575 q 236 556 243 568 q 227 528 229 544 q 220 500 224 513 q 198 488 216 488 q 161 508 178 488 q 136 540 145 528 q 110 425 111 483 q 109 307 109 368 z "},"R":{"ha":642,"x_min":23,"x_max":663,"o":"m 172 0 q 126 13 145 -18 q 94 102 107 43 q 73 239 81 161 q 56 391 64 316 q 41 531 49 467 q 23 628 33 595 q 33 653 23 644 q 56 667 42 662 q 85 672 71 671 q 111 673 100 673 l 111 418 q 145 479 132 442 q 172 555 159 515 q 199 635 184 595 q 238 705 214 674 q 296 752 262 735 q 384 765 331 769 q 424 758 404 765 q 459 739 444 751 q 484 708 475 726 q 494 669 494 690 q 475 580 494 627 q 429 487 456 533 q 373 399 401 441 q 326 326 345 358 q 403 326 366 323 q 473 334 439 330 q 536 342 506 338 q 594 346 567 346 q 632 340 614 346 q 656 326 650 335 q 654 304 663 317 q 613 278 646 292 q 554 267 601 275 q 454 250 507 259 q 354 233 400 241 q 296 221 308 225 q 228 169 245 205 q 205 95 210 133 q 197 28 201 57 q 172 0 194 0 m 422 681 q 312 637 357 680 q 240 535 267 594 q 199 411 213 476 q 183 300 186 346 q 265 377 222 334 q 342 470 308 420 q 399 573 377 519 q 422 681 422 627 z "},"S":{"ha":418,"x_min":11,"x_max":384,"o":"m 11 210 q 16 235 11 220 q 31 266 22 251 q 53 291 41 281 q 79 301 65 301 q 79 240 79 275 q 88 174 80 205 q 115 120 96 142 q 171 98 134 98 q 222 102 197 98 q 266 116 247 106 q 296 145 285 126 q 308 195 308 164 q 291 281 308 241 q 250 356 274 320 q 195 426 225 392 q 141 496 165 460 q 100 572 117 532 q 83 661 83 612 q 92 732 73 707 q 142 764 110 757 q 214 763 174 772 q 287 734 254 754 q 341 682 320 713 q 357 614 362 651 q 354 604 357 610 q 347 589 351 597 q 339 575 343 582 q 332 566 335 568 q 292 615 313 586 q 248 664 270 644 q 205 683 227 684 q 168 644 184 682 q 184 561 168 600 q 224 486 201 522 q 276 414 248 449 q 328 344 304 380 q 368 269 351 308 q 384 186 384 229 q 364 108 384 144 q 313 47 345 72 q 242 9 282 22 q 160 0 202 -4 q 87 24 115 5 q 41 73 58 43 q 18 137 24 102 q 11 210 11 172 z "},"T":{"ha":663,"x_min":22,"x_max":656,"o":"m 222 566 q 184 552 201 557 q 151 544 167 547 q 119 540 136 541 q 83 538 103 538 q 39 549 56 538 q 22 590 22 559 q 43 632 22 620 q 94 648 65 644 q 153 654 123 652 q 197 663 182 655 q 216 701 201 688 q 250 714 231 713 q 289 705 270 715 q 320 677 308 696 l 656 677 q 646 627 656 639 q 610 608 635 614 q 550 597 595 604 q 453 585 505 591 q 356 574 401 579 q 296 566 311 568 l 296 99 q 317 84 315 99 q 312 50 320 69 q 289 15 304 31 q 256 -3 274 -1 q 231 12 239 -3 q 222 49 222 26 l 222 566 l 222 566 z "},"U":{"ha":505,"x_min":23,"x_max":469,"o":"m 23 602 q 40 633 23 625 q 76 642 57 642 q 111 617 98 642 q 132 554 125 593 q 144 466 140 515 q 155 366 149 416 q 169 269 160 316 q 193 186 178 221 q 233 132 209 151 q 296 122 258 114 q 349 264 328 193 q 382 410 369 336 q 402 559 395 484 q 418 712 410 635 q 423 713 419 712 q 430 713 427 713 q 456 705 448 713 q 467 682 464 696 q 469 654 469 669 q 468 631 468 640 q 467 554 468 606 q 460 436 465 502 q 443 299 454 370 q 412 166 431 228 q 365 59 393 104 q 296 0 336 14 q 231 9 260 -12 q 179 64 201 30 q 143 137 157 99 q 123 197 129 175 q 111 250 118 216 q 96 324 104 283 q 80 408 88 365 q 62 490 72 452 q 43 559 53 529 q 23 602 33 589 z "},":":{"ha":221,"x_min":42,"x_max":189,"o":"m 189 202 q 165 158 182 168 q 132 153 149 148 q 98 176 114 159 q 77 213 83 193 q 77 252 71 233 q 110 282 83 271 q 165 258 142 282 q 189 202 189 235 m 163 388 q 130 350 149 359 q 94 344 111 340 q 62 361 76 347 q 45 394 49 376 q 52 431 42 412 q 92 464 62 450 q 144 441 125 464 q 163 388 163 419 z "},";":{"ha":271,"x_min":61,"x_max":233,"o":"m 134 75 q 139 115 134 95 q 172 136 144 136 q 176 135 174 136 q 180 134 178 134 l 184 134 q 198 119 190 130 q 214 78 206 109 q 228 -9 222 47 q 233 -160 233 -66 q 220 -180 233 -175 q 197 -186 208 -186 q 162 -154 175 -186 q 143 -79 149 -122 q 136 8 137 -35 q 134 75 134 52 m 61 252 q 68 279 61 266 q 85 303 75 293 q 110 319 96 313 q 136 326 123 326 q 185 298 171 316 q 198 262 199 281 q 183 229 197 244 q 150 210 170 214 q 106 214 130 205 q 61 252 83 222 z "},"V":{"ha":566,"x_min":24,"x_max":543,"o":"m 24 590 q 53 609 39 613 q 73 590 66 605 l 260 178 q 329 294 296 224 q 393 441 362 365 q 451 590 423 517 q 505 715 479 663 q 524 707 517 715 q 536 686 532 699 q 541 661 540 674 q 543 637 543 647 q 541 631 543 636 q 533 608 540 627 q 511 551 526 589 q 469 445 496 513 q 399 275 441 377 q 296 24 357 172 l 231 22 l 24 590 z "},"<":{"ha":651,"x_min":69,"x_max":614,"o":"m 69 281 q 79 304 69 286 q 95 328 88 323 l 465 716 l 515 682 q 460 566 499 621 q 372 464 420 511 q 275 377 324 416 q 191 305 227 338 q 191 300 191 304 q 190 293 190 296 q 277 241 225 258 q 387 216 328 225 q 503 201 445 208 q 610 182 562 195 q 613 169 612 179 q 614 156 614 159 q 602 125 614 136 q 572 111 590 115 q 536 107 555 107 q 503 107 517 107 q 439 110 480 107 q 349 119 397 113 q 252 139 301 126 q 161 171 202 152 q 95 217 121 190 q 69 281 69 244 z "},"W":{"ha":783,"x_min":-4,"x_max":765,"o":"m 119 24 q 79 250 96 152 q 47 419 61 347 q 25 541 34 491 q 11 624 16 591 q -4 712 -3 700 q 24 734 9 730 q 52 732 39 738 q 77 715 65 727 q 95 689 88 703 l 168 221 q 204 276 184 239 q 245 351 224 313 q 292 416 267 388 q 340 445 316 444 q 393 426 373 445 q 426 379 412 407 q 450 319 439 351 q 477 258 461 286 q 517 212 492 231 q 583 193 543 193 q 637 221 618 194 q 663 291 655 248 q 673 387 671 334 q 673 492 674 441 q 674 589 673 544 q 685 663 675 635 q 694 680 685 670 q 709 689 704 689 q 753 677 747 689 q 760 644 760 666 q 762 552 760 608 q 764 435 765 496 q 756 314 764 374 q 728 205 749 254 q 668 127 707 157 q 568 96 629 96 q 502 113 529 96 q 456 155 475 130 q 422 209 437 179 q 395 263 408 239 q 366 304 381 288 q 328 321 350 321 q 305 290 317 316 q 279 227 293 263 q 250 151 266 191 q 219 77 235 111 q 188 20 203 42 q 156 -1 172 -1 q 134 4 145 -1 q 119 24 122 9 z "},"=":{"ha":589,"x_min":39,"x_max":563,"o":"m 90 180 q 54 199 65 189 q 43 222 43 210 q 50 245 43 235 q 66 262 57 255 q 165 277 107 273 q 284 283 222 282 q 404 282 346 283 q 503 281 463 281 q 549 267 534 279 q 562 239 563 254 q 546 212 560 224 q 506 202 532 201 l 90 180 m 358 446 q 382 446 365 446 q 420 446 400 446 q 456 445 439 445 q 480 445 473 445 q 498 433 492 441 q 507 416 505 426 q 508 394 509 406 q 506 372 507 382 q 401 362 457 368 q 286 352 345 357 q 168 345 227 347 q 56 342 109 342 q 47 394 39 374 q 81 425 56 414 q 142 441 106 437 q 216 447 178 446 q 293 446 255 448 q 358 446 331 445 z "},"X":{"ha":491,"x_min":23,"x_max":487,"o":"m 148 49 q 157 109 148 77 q 177 170 165 140 q 201 227 189 201 q 222 271 214 254 q 184 340 210 304 q 129 414 159 377 q 70 486 99 450 q 23 553 41 522 q 39 584 23 575 q 73 593 56 593 q 126 564 99 593 q 179 496 153 534 q 229 421 205 458 q 271 368 252 384 q 290 446 279 395 q 319 547 300 496 q 370 634 339 597 q 448 671 400 671 q 431 577 448 623 q 395 487 415 532 q 358 397 374 442 q 342 304 342 353 q 363 243 342 271 q 412 191 385 216 q 460 142 438 165 q 483 98 483 119 q 486 68 486 81 q 481 46 487 54 q 464 37 476 38 q 430 45 452 37 q 364 121 399 80 q 296 197 330 163 l 197 0 q 193 -2 197 -1 q 186 -3 189 -3 q 156 14 164 -3 q 148 49 148 30 z "},">":{"ha":651,"x_min":23,"x_max":618,"o":"m 519 469 q 519 475 519 472 q 517 479 518 479 l 50 578 q 29 592 35 581 q 23 616 23 604 l 23 623 q 24 627 23 625 q 37 641 28 632 q 52 658 45 650 q 66 671 60 666 q 73 677 72 677 l 616 553 q 618 542 617 553 q 618 524 618 530 q 600 441 618 488 q 552 344 582 393 q 482 246 522 294 q 398 159 442 198 q 309 98 354 121 q 225 75 264 75 q 247 151 225 118 q 301 211 269 183 q 372 265 334 239 q 444 321 411 292 q 498 386 476 350 q 519 469 519 422 z "},"Y":{"ha":651,"x_min":19,"x_max":616,"o":"m 415 49 q 431 78 415 61 q 467 123 448 95 q 503 193 487 152 q 519 294 519 235 q 519 314 519 300 q 518 345 518 328 q 517 374 518 361 q 517 393 517 388 q 458 323 496 358 q 373 258 420 288 q 273 211 326 229 q 170 193 220 193 q 100 210 127 193 q 57 256 73 228 q 33 321 41 285 q 23 394 26 357 q 21 467 20 431 q 22 529 22 502 q 22 580 24 547 q 21 647 19 613 q 34 708 23 681 q 73 742 45 735 q 121 722 113 743 q 124 664 130 700 q 107 582 118 628 q 96 490 96 536 q 97 422 96 457 q 106 359 98 388 q 136 311 115 330 q 198 293 157 293 q 338 333 275 293 q 444 435 400 373 q 513 570 488 496 q 541 712 538 644 q 566 712 553 712 q 590 709 579 712 q 608 696 601 705 q 616 669 614 686 q 608 446 616 557 q 590 221 601 334 q 583 165 589 202 q 563 91 576 127 q 526 27 549 54 q 468 0 503 0 q 425 13 435 0 q 415 49 415 26 z "},"?":{"ha":553,"x_min":23,"x_max":519,"o":"m 194 121 q 201 146 194 132 q 219 172 208 160 q 244 192 231 184 q 271 195 258 199 q 311 168 300 189 q 323 122 323 146 q 305 71 323 96 q 258 46 288 46 q 212 70 231 46 q 194 121 194 94 m 178 355 q 208 401 186 370 q 258 473 229 433 q 318 557 286 513 q 377 642 350 602 q 423 714 404 682 q 446 761 442 746 q 429 802 446 792 q 384 812 412 812 q 206 779 289 812 q 50 688 123 745 q 29 703 35 694 q 23 726 23 711 q 73 796 33 764 q 168 852 113 829 q 283 886 222 875 q 396 892 345 898 q 482 864 448 887 q 519 795 517 841 q 500 724 519 772 q 448 616 480 675 q 378 495 416 557 q 303 381 340 433 q 235 297 266 330 q 189 264 205 264 q 158 278 170 273 q 144 292 146 283 q 149 315 141 300 q 178 355 157 330 z "},"Z":{"ha":651,"x_min":24,"x_max":618,"o":"m 122 123 q 134 167 122 145 q 163 210 146 189 q 196 252 179 231 q 222 294 213 274 q 179 288 209 292 q 117 286 149 283 q 59 302 85 289 q 24 345 33 315 q 77 383 37 369 q 162 405 117 397 q 246 414 208 412 q 296 418 285 416 q 302 437 298 423 q 311 466 307 450 q 317 496 315 481 q 320 517 320 510 q 303 561 320 544 q 260 587 286 578 q 202 599 233 595 q 142 602 171 602 q 93 601 114 602 q 65 600 72 600 q 71 652 65 633 q 90 679 76 670 q 123 689 103 688 q 175 690 144 690 q 306 670 255 690 q 380 614 357 650 q 404 528 404 578 q 381 419 403 477 q 492 427 437 419 q 616 444 548 434 q 617 421 616 433 q 617 399 618 410 q 610 380 616 388 q 590 368 604 372 l 345 320 q 330 298 342 319 q 301 251 317 278 q 269 195 285 224 q 245 148 254 165 q 249 109 237 122 q 284 90 260 95 q 340 89 308 85 q 408 101 373 92 q 474 122 442 110 q 529 149 506 134 q 560 132 552 149 q 568 96 568 115 q 513 45 551 61 q 433 21 476 28 q 345 10 389 14 q 271 0 301 7 q 214 7 241 0 q 167 31 187 15 q 134 69 146 46 q 122 123 122 92 z "},"@":{"ha":811,"x_min":50,"x_max":792,"o":"m 50 220 q 64 340 50 275 q 105 469 79 404 q 170 593 132 533 q 255 699 208 654 q 359 772 302 745 q 479 800 415 800 q 612 774 553 800 q 711 703 671 749 q 771 595 750 656 q 792 461 792 533 q 787 401 792 438 q 772 321 783 363 q 746 235 762 278 q 707 158 730 193 q 656 102 685 123 q 591 80 628 80 q 556 96 567 80 q 538 132 545 111 q 522 175 530 153 q 495 208 514 197 q 427 141 467 171 q 340 91 387 111 q 245 62 294 71 q 151 61 197 54 q 201 -20 168 9 q 277 -65 235 -49 q 368 -87 320 -81 q 465 -98 416 -92 q 560 -111 514 -103 q 643 -137 606 -118 q 616 -168 636 -157 q 571 -182 595 -178 q 523 -186 547 -186 q 483 -186 499 -186 q 195 -113 301 -186 q 50 220 50 -12 m 175 232 q 182 205 175 218 q 199 181 189 191 q 223 164 210 171 q 250 157 236 157 q 349 185 302 157 q 431 256 396 213 q 484 351 465 298 q 495 453 502 403 q 395 434 450 446 q 290 397 339 422 q 208 333 241 373 q 175 232 175 293 m 591 311 q 593 256 591 281 q 617 208 595 231 q 668 256 648 228 q 699 315 688 283 q 715 380 711 346 q 719 448 719 414 q 705 543 719 494 q 664 633 692 593 q 594 699 636 673 q 495 724 552 724 q 382 692 442 724 q 269 612 321 661 q 183 505 217 563 q 149 392 149 446 q 150 385 149 389 q 151 380 151 381 q 216 450 176 418 q 302 505 255 483 q 399 541 349 528 q 495 553 449 553 q 547 547 519 553 q 595 526 574 540 q 631 492 617 513 q 646 441 646 471 q 637 404 646 418 q 618 377 628 389 q 600 350 608 365 q 591 311 591 335 z "},"[":{"ha":467,"x_min":28,"x_max":602,"o":"m 28 629 q 45 781 28 709 q 101 907 62 853 q 201 992 140 960 q 353 1024 263 1024 q 387 1020 369 1024 q 418 1006 404 1016 q 442 983 433 997 q 452 952 452 970 q 400 899 452 899 q 362 910 377 899 q 326 925 347 921 q 173 827 227 899 q 103 656 119 754 q 102 448 87 559 q 156 237 118 338 q 250 56 194 136 q 372 -61 307 -24 q 431 -53 401 -61 q 488 -35 460 -45 q 545 -16 517 -24 q 602 -7 572 -7 q 574 -68 602 -41 q 507 -117 545 -96 q 427 -149 468 -137 q 361 -160 385 -160 q 260 -110 307 -160 q 177 18 214 -60 q 112 191 140 96 q 66 372 84 285 q 38 530 47 460 q 28 629 28 600 z "},"\\":{"ha":491,"x_min":30,"x_max":469,"o":"m 56 738 q 48 758 53 743 q 39 789 43 773 q 33 818 35 804 q 30 836 30 831 q 39 851 30 842 q 56 860 49 860 q 242 487 168 637 q 362 240 316 336 q 431 94 408 144 q 461 20 453 43 q 469 -10 469 -4 q 468 -22 468 -16 q 469 -41 468 -28 q 467 -65 469 -53 q 460 -87 465 -77 q 442 -99 454 -96 l 56 738 z "},"]":{"ha":726,"x_min":12,"x_max":704,"o":"m 357 -149 q 361 -91 342 -111 q 418 -59 381 -71 q 499 -40 454 -47 q 578 -20 544 -33 q 630 13 613 -8 q 627 73 647 34 q 609 191 617 125 q 590 330 601 258 q 564 478 579 403 q 525 624 549 553 q 466 755 500 694 q 381 860 431 817 q 364 870 377 864 q 313 882 351 876 q 204 893 275 888 q 12 898 133 898 l 12 959 q 45 974 12 968 q 118 982 77 979 q 195 985 159 985 q 236 985 231 985 q 392 945 330 985 q 495 841 454 905 q 559 698 536 777 q 602 540 583 618 q 614 486 606 524 q 631 401 621 449 q 652 300 642 354 q 672 198 662 247 q 690 109 682 149 q 701 49 697 69 q 703 20 701 38 q 703 -15 704 3 q 696 -49 701 -33 q 677 -75 690 -65 q 528 -146 581 -121 q 449 -182 475 -171 q 416 -195 423 -194 q 406 -197 410 -197 q 392 -186 400 -194 q 376 -172 384 -179 q 363 -158 369 -164 q 357 -149 357 -152 z "},"_":{"ha":677,"x_min":38,"x_max":631,"o":"m 38 73 q 178 78 103 75 q 330 83 252 81 q 484 87 407 85 q 631 90 560 90 q 619 21 631 41 q 583 -3 608 1 q 521 -3 559 -7 q 430 0 483 1 q 385 -2 415 -1 q 315 -3 354 -3 q 234 -5 277 -4 q 153 -6 191 -5 q 83 -7 114 -7 q 38 -8 53 -8 l 38 73 l 38 73 z "},"a":{"ha":491,"x_min":22,"x_max":473,"o":"m 22 203 q 40 342 22 266 q 96 484 58 418 q 190 595 134 551 q 321 640 245 640 q 367 611 346 640 q 404 536 388 582 q 433 433 420 490 q 453 321 445 377 q 465 218 461 266 q 469 142 469 171 q 465 94 473 114 q 444 66 457 75 q 417 65 431 58 q 393 99 403 72 q 391 157 393 119 q 383 237 388 194 q 369 322 378 279 q 345 393 359 365 q 332 349 342 380 q 310 282 321 317 q 288 216 298 247 q 271 172 277 184 q 253 122 263 152 q 228 65 243 92 q 191 18 213 38 q 136 -1 168 -1 q 75 20 98 -1 q 41 73 53 42 q 25 140 28 104 q 22 203 22 176 m 95 209 q 114 100 98 121 q 152 102 130 79 q 198 180 174 125 q 243 298 222 235 q 279 422 264 362 q 296 517 294 483 q 283 519 293 518 q 271 519 274 519 q 187 484 221 519 q 133 399 153 449 q 104 297 113 350 q 95 209 95 244 z "},"b":{"ha":578,"x_min":34,"x_max":556,"o":"m 34 783 q 81 810 64 815 q 114 753 99 806 q 119 711 115 741 q 128 642 123 681 q 138 560 133 604 q 147 478 142 517 q 155 410 152 439 q 160 368 159 380 q 197 441 175 401 q 249 515 220 481 q 313 572 278 549 q 392 594 349 594 q 473 570 441 594 q 523 510 505 547 q 549 429 541 473 q 556 343 556 385 q 543 242 556 294 q 501 146 529 190 q 432 75 473 103 q 334 47 391 47 q 235 56 285 47 q 136 73 184 65 q 115 122 126 76 q 93 239 104 168 q 71 393 81 309 q 52 555 61 477 q 39 695 43 633 q 34 783 34 757 m 231 136 q 245 130 235 132 q 269 125 256 127 q 292 123 281 123 q 308 122 304 122 q 390 143 357 122 q 444 197 423 164 q 473 270 464 229 q 481 351 481 311 q 481 399 481 370 q 473 454 480 427 q 452 498 467 480 q 407 517 437 517 q 331 490 363 513 q 276 432 298 467 q 241 355 254 397 q 223 273 228 313 q 220 195 218 232 q 231 136 222 159 z "},"c":{"ha":345,"x_min":23,"x_max":313,"o":"m 23 307 q 26 392 23 346 q 45 477 30 438 q 89 543 60 517 q 170 570 118 570 q 211 560 187 570 q 256 534 235 551 q 291 497 277 518 q 305 453 305 476 q 297 410 305 429 q 258 391 289 391 q 236 403 243 391 q 222 430 229 415 q 204 457 214 445 q 172 469 194 469 q 125 447 141 469 q 102 393 109 425 q 96 330 96 362 q 96 277 96 297 q 97 227 96 258 q 104 168 98 197 q 125 117 110 138 q 170 96 141 96 q 235 112 205 96 q 296 148 264 127 q 304 132 296 145 q 313 117 313 119 q 301 69 313 91 q 269 31 289 47 q 225 6 250 15 q 175 -3 201 -3 q 94 31 123 -3 q 48 112 64 64 q 28 214 33 160 q 23 307 23 267 z "},"d":{"ha":529,"x_min":22,"x_max":499,"o":"m 22 92 q 45 226 22 167 q 104 330 69 285 q 182 408 140 376 q 259 463 224 441 q 319 498 294 486 q 345 517 343 511 q 342 536 345 519 q 338 574 340 552 q 334 623 335 597 q 336 669 332 648 q 348 705 339 690 q 374 719 357 719 q 396 713 385 719 q 410 693 407 708 q 445 437 430 543 q 470 259 460 331 q 486 144 480 187 q 494 75 491 100 q 498 38 498 50 q 499 16 499 26 q 480 17 492 16 q 454 20 468 18 q 431 30 441 23 q 418 49 420 37 l 369 294 q 352 231 363 269 q 323 152 340 193 q 285 71 307 111 q 236 -3 263 30 q 178 -55 209 -35 q 111 -75 146 -75 q 59 -58 77 -75 q 33 -16 41 -41 q 23 39 24 9 q 22 92 22 68 m 301 381 q 205 341 244 381 q 140 244 165 301 q 104 125 115 187 q 92 20 92 64 q 189 60 149 20 q 253 155 228 99 q 290 273 278 210 q 301 381 301 335 z "},"e":{"ha":358,"x_min":-50,"x_max":395,"o":"m -41 77 q -22 106 -33 96 q 0 127 -12 115 q 24 159 12 138 q 45 221 35 180 q 50 266 46 229 q 57 344 53 302 q 64 422 61 385 q 68 467 66 458 q 75 506 69 477 q 91 564 80 534 q 117 617 102 594 q 155 640 133 640 q 186 633 172 640 q 216 614 199 625 q 233 503 239 557 q 209 394 227 448 q 170 288 191 340 q 142 184 149 236 q 152 120 142 145 q 201 95 161 95 q 298 117 254 95 q 388 172 342 140 q 392 154 389 170 q 395 136 395 138 q 374 84 395 106 q 322 48 353 62 q 259 27 292 34 q 202 20 227 20 q 160 22 179 20 q 124 31 141 23 q 93 54 107 38 q 68 99 79 71 q 42 75 50 84 q 28 60 34 66 q 17 50 23 54 q -1 41 11 46 q -35 48 -20 41 q -41 77 -50 56 m 156 480 q 146 471 151 481 q 138 449 141 461 q 136 427 136 437 q 142 418 137 416 q 153 429 148 419 q 160 449 157 438 q 162 469 163 460 q 156 480 161 479 z "},"f":{"ha":445,"x_min":0,"x_max":540,"o":"m 245 -73 q 202 155 218 75 q 178 272 186 235 q 167 315 170 309 q 163 321 164 321 q 134 317 148 321 q 106 307 119 312 q 78 298 92 302 q 49 293 64 293 q 35 293 43 293 q 19 296 27 293 q 5 304 11 298 q 0 320 0 309 q 17 382 0 363 q 60 408 34 400 q 115 420 85 415 q 172 442 145 425 q 170 496 171 457 q 170 578 170 534 q 170 659 170 621 q 172 712 171 697 q 176 766 174 732 q 188 832 179 800 q 216 888 197 864 q 271 911 236 911 q 359 862 326 901 q 407 779 392 823 q 420 698 422 735 q 401 654 418 661 q 376 699 392 671 q 342 750 361 727 q 305 786 324 773 q 271 787 286 799 q 248 706 255 757 q 238 604 240 655 q 237 508 236 552 q 236 448 237 464 q 311 469 278 456 q 375 498 345 483 q 438 528 406 513 q 514 555 471 544 l 540 491 l 245 345 q 248 252 237 298 q 273 157 258 205 q 304 60 289 109 q 321 -39 319 11 q 321 -41 321 -41 q 320 -45 320 -42 l 320 -50 q 310 -60 317 -53 q 292 -72 302 -66 q 270 -79 282 -77 q 245 -73 258 -81 z "},"g":{"ha":517,"x_min":18,"x_max":505,"o":"m 330 -144 q 338 -119 330 -127 q 359 -105 347 -111 q 385 -93 372 -99 q 406 -73 397 -87 q 411 9 408 -42 q 412 115 414 61 q 404 219 411 170 q 381 296 397 269 q 335 185 363 245 q 267 77 307 125 q 175 4 227 28 q 61 0 123 -20 q 20 167 22 76 q 50 338 18 258 q 149 472 83 418 q 316 529 216 526 q 336 527 321 529 q 366 521 350 525 q 399 509 382 517 q 430 491 416 502 q 457 374 442 438 q 484 241 472 309 q 500 103 495 172 q 496 -28 505 34 q 464 -142 488 -91 q 393 -225 439 -193 q 342 -202 355 -225 q 330 -144 330 -179 m 84 148 q 86 121 84 134 q 94 96 88 107 q 109 77 99 84 q 134 71 119 71 q 185 88 160 71 q 233 134 210 106 q 274 197 255 161 q 307 267 293 232 q 328 332 320 301 q 335 382 335 362 q 335 397 335 387 q 333 417 335 407 q 325 435 331 427 q 307 444 319 444 q 214 414 255 444 q 144 339 174 384 q 100 243 115 294 q 84 148 84 191 z "},"h":{"ha":639,"x_min":12,"x_max":613,"o":"m 12 762 q 91 762 66 779 q 122 705 115 745 q 130 650 125 688 q 142 564 136 612 q 155 463 148 517 q 167 362 161 410 q 177 277 172 315 q 184 221 182 239 q 233 332 212 270 q 283 449 255 393 q 351 545 311 505 q 456 591 392 585 q 511 562 487 591 q 552 484 534 532 q 581 379 570 437 q 600 267 593 321 q 610 168 608 213 q 613 99 613 122 l 553 99 q 544 157 551 115 q 530 246 537 199 q 515 335 522 293 q 505 393 507 377 q 499 416 503 397 q 486 454 495 434 q 464 486 477 473 q 430 491 450 499 q 366 434 393 476 q 315 337 338 392 q 275 222 293 282 q 240 113 256 163 q 207 30 224 62 q 171 -3 190 -3 q 134 28 145 -3 q 118 102 122 60 q 113 185 114 144 q 111 245 113 227 q 77 510 96 377 q 12 762 58 643 z "},"i":{"ha":209,"x_min":23,"x_max":151,"o":"m 47 464 q 63 505 50 492 q 92 514 76 518 q 121 489 107 510 q 141 427 136 468 q 142 387 141 420 q 142 307 142 353 q 142 208 142 260 q 139 111 141 156 q 134 35 137 66 q 123 0 130 4 l 66 22 q 63 63 65 33 q 59 135 61 94 q 54 224 57 176 q 50 317 52 271 q 47 401 47 362 q 47 464 46 441 m 23 677 q 28 694 23 685 q 41 713 34 704 q 58 728 49 722 q 73 738 66 735 q 134 733 118 747 q 151 690 151 719 q 134 646 151 656 q 85 636 117 636 q 65 637 76 636 q 45 642 54 637 q 29 654 35 646 q 23 677 23 662 z "},"j":{"ha":345,"x_min":11,"x_max":320,"o":"m 11 -11 q 16 9 11 1 q 38 24 20 16 q 91 -48 66 -20 q 159 -76 115 -76 q 203 -60 187 -76 q 226 -20 218 -43 q 235 31 233 4 q 236 77 236 57 q 222 177 236 129 q 193 272 209 225 q 163 367 176 319 q 149 467 149 415 l 194 483 q 230 399 208 454 q 273 275 252 343 q 307 134 294 208 q 313 -3 320 61 q 275 -113 307 -66 q 176 -175 244 -160 q 114 -162 144 -175 q 61 -127 84 -149 q 24 -76 38 -106 q 11 -11 11 -46 m 35 640 q 54 688 39 675 q 85 696 68 700 q 117 679 102 693 q 140 648 133 665 q 143 619 148 632 q 114 605 138 606 q 90 605 104 605 q 63 608 76 605 q 41 618 50 610 q 35 640 33 625 z "},"k":{"ha":647,"x_min":20,"x_max":686,"o":"m 99 -50 q 85 120 98 35 q 58 288 72 205 q 32 455 43 372 q 20 623 20 538 q 41 622 28 623 q 64 618 53 621 q 85 608 76 614 q 99 590 95 602 q 112 510 104 562 q 127 403 119 458 q 144 297 136 347 q 156 222 152 247 q 235 255 208 222 q 284 334 262 288 q 334 429 307 380 q 416 514 362 479 q 435 501 429 513 q 446 474 442 490 q 448 442 449 458 q 444 418 448 426 l 320 245 q 402 236 355 231 q 497 254 449 241 q 589 281 545 267 q 663 294 633 294 l 686 231 l 202 111 q 203 56 201 92 q 204 -15 206 20 q 190 -76 202 -50 q 148 -102 178 -102 q 111 -93 125 -102 q 99 -50 96 -84 z "},"l":{"ha":220,"x_min":11,"x_max":202,"o":"m 134 0 q 102 26 114 -5 q 84 113 91 58 q 73 241 77 168 q 62 391 69 313 q 43 547 56 469 q 11 689 31 624 q 14 705 11 693 q 22 730 18 718 q 34 753 27 743 q 47 764 41 764 q 85 738 73 764 q 94 661 88 715 q 106 539 99 606 q 123 399 114 472 q 139 267 132 327 q 152 165 146 206 q 159 122 157 125 l 202 122 q 201 85 202 106 q 193 45 199 64 q 173 13 187 26 q 134 0 159 0 z "},"m":{"ha":872,"x_min":33,"x_max":864,"o":"m 113 34 q 106 176 119 95 q 77 336 94 258 q 46 477 60 414 q 38 566 33 540 q 45 578 39 570 q 59 594 52 586 q 74 608 66 602 q 85 614 81 614 q 122 563 114 595 q 135 496 130 530 q 149 433 140 463 q 184 393 157 404 q 203 439 190 406 q 235 506 216 472 q 279 566 254 540 q 332 593 304 593 q 387 559 369 587 q 412 490 404 530 q 423 404 420 449 q 430 320 426 358 q 492 389 467 347 q 543 471 517 431 q 602 538 568 510 q 689 567 635 567 q 747 522 727 552 q 776 454 766 492 q 788 369 785 415 q 796 273 791 323 q 812 174 802 224 q 849 80 823 125 q 862 38 864 53 q 848 18 860 23 q 817 16 836 14 q 781 28 799 19 q 747 50 762 37 q 727 80 731 64 q 723 141 724 102 q 720 224 722 180 q 716 314 719 269 q 706 395 713 359 q 685 452 699 431 q 651 467 671 472 q 601 414 625 450 q 555 334 576 378 q 513 244 533 290 q 475 159 492 198 q 444 96 458 121 q 418 72 429 72 q 397 78 406 72 q 382 99 389 84 q 379 157 382 115 q 372 246 376 199 q 363 335 368 293 q 357 393 359 377 q 355 407 357 395 q 351 433 354 419 q 340 459 347 448 q 321 471 334 471 q 308 467 312 471 q 260 367 278 420 q 233 258 243 313 q 220 145 224 202 q 212 34 216 88 l 113 34 l 113 34 z "},"n":{"ha":541,"x_min":38,"x_max":530,"o":"m 62 24 q 64 307 69 164 q 38 590 60 450 q 52 608 42 602 q 75 618 62 614 q 100 622 87 621 q 123 624 114 623 l 123 418 q 152 477 133 439 q 196 551 171 514 q 252 614 221 587 q 317 642 282 642 q 390 611 358 642 q 445 532 422 581 q 485 425 468 484 q 511 309 502 366 q 526 201 521 251 q 530 122 530 151 q 502 112 514 119 q 481 104 490 104 q 466 118 472 104 q 456 172 460 132 q 434 295 442 233 q 414 408 426 357 q 380 496 401 460 q 321 543 359 533 q 277 522 297 543 q 239 468 256 500 q 208 397 222 435 q 184 322 194 358 q 169 258 175 286 q 160 221 163 231 q 154 182 157 210 q 146 123 151 155 q 139 63 142 91 q 136 24 136 35 q 113 9 132 18 q 85 0 94 0 q 71 9 80 0 q 62 24 62 18 z "},"o":{"ha":491,"x_min":35,"x_max":480,"o":"m 38 320 q 45 374 39 335 q 59 456 52 412 q 74 537 66 499 q 85 590 81 575 q 99 591 90 590 q 111 591 109 591 q 235 576 170 591 q 354 528 300 560 q 444 444 408 495 q 480 320 480 392 q 460 206 480 263 q 403 102 439 149 q 316 26 366 56 q 206 -3 266 -3 q 121 34 155 -3 q 68 122 88 71 q 42 229 49 174 q 38 320 35 283 m 107 283 q 111 226 107 263 q 124 153 114 189 q 155 92 134 117 q 210 73 175 68 q 288 104 255 81 q 343 160 321 127 q 376 232 365 193 q 387 311 387 271 q 340 443 387 392 q 209 494 294 494 q 155 470 175 494 q 124 412 134 446 q 111 343 114 378 q 107 283 107 308 z "},"p":{"ha":553,"x_min":11,"x_max":518,"o":"m 151 -281 q 127 -195 138 -247 q 104 -83 115 -144 q 81 43 92 -23 q 60 170 71 109 q 41 285 50 232 q 24 373 33 338 q 61 473 11 435 q 210 509 111 510 q 307 490 254 509 q 408 439 361 472 q 486 358 454 406 q 518 252 518 311 q 500 183 518 220 q 454 115 481 146 q 392 62 426 83 q 327 41 358 41 q 294 41 312 41 q 259 46 275 42 q 231 60 243 50 q 220 91 220 71 q 220 104 220 96 q 224 121 221 113 q 231 135 227 129 q 245 141 236 141 q 276 129 262 141 q 309 115 290 117 q 349 134 324 115 q 395 180 373 153 q 433 236 418 206 q 444 289 448 266 q 412 342 437 319 q 357 380 388 365 q 294 404 326 396 q 245 412 263 412 q 220 412 236 412 q 189 412 205 412 q 161 410 174 411 q 148 410 149 410 q 133 406 141 408 q 117 399 125 403 q 104 391 109 395 q 99 384 99 387 l 184 -172 q 192 -181 187 -175 q 201 -195 197 -187 q 208 -211 205 -203 q 210 -222 210 -218 q 204 -242 210 -232 q 189 -261 198 -252 q 170 -275 180 -270 q 151 -281 160 -281 z "},"q":{"ha":600,"x_min":23,"x_max":566,"o":"m 468 195 q 384 125 420 157 q 312 71 347 94 q 237 35 277 47 q 142 22 197 22 q 107 22 127 22 q 68 27 87 22 q 36 45 49 33 q 23 84 23 58 q 58 232 23 155 q 150 373 94 309 q 277 478 206 437 q 416 519 347 519 q 445 518 426 519 q 486 503 464 517 q 529 457 507 488 q 566 368 551 426 q 543 149 552 264 q 541 -73 534 33 q 526 -94 534 -88 q 505 -100 518 -100 q 481 -94 494 -100 q 468 -73 468 -88 l 468 195 m 406 444 q 294 408 347 444 q 199 318 240 372 q 134 203 159 264 q 110 90 110 141 q 224 111 164 90 q 333 170 283 133 q 414 258 382 208 q 446 369 446 309 q 446 393 446 380 q 442 417 446 406 q 430 436 438 429 q 406 444 422 444 z "},"r":{"ha":491,"x_min":23,"x_max":469,"o":"m 73 24 q 64 127 72 71 q 47 242 56 183 q 31 360 38 301 q 23 469 23 419 q 32 503 23 488 q 62 518 41 518 q 88 504 83 518 q 99 467 94 490 q 104 437 100 458 q 113 393 109 416 q 119 349 117 370 q 123 320 122 328 q 182 383 157 346 q 235 456 208 420 q 296 516 262 491 q 382 541 331 541 q 412 541 396 541 q 441 534 427 540 q 462 519 454 529 q 468 491 469 509 q 330 427 384 471 q 241 328 275 382 q 189 214 208 273 q 159 109 171 156 q 138 30 148 61 q 111 -1 127 -1 q 73 24 85 -1 z "},"s":{"ha":491,"x_min":18,"x_max":475,"o":"m 298 -3 q 128 38 201 -5 q 20 184 56 81 q 30 231 18 212 q 59 262 42 251 q 93 275 76 273 q 118 269 110 277 q 121 241 126 260 q 88 193 115 222 q 93 162 80 183 q 132 119 106 141 q 191 80 157 98 q 258 59 224 62 q 322 72 292 56 q 370 134 353 88 q 366 199 377 171 q 333 252 354 227 q 283 302 312 277 q 229 361 255 328 q 180 435 202 393 q 148 536 157 477 q 172 579 149 563 q 225 602 194 595 q 292 604 256 608 q 357 587 327 600 q 407 551 388 574 q 425 498 426 529 q 281 542 327 536 q 227 530 236 548 q 240 477 218 513 q 298 394 262 441 q 377 294 334 347 q 457 190 420 241 q 473 126 475 159 q 450 66 471 94 q 391 20 429 39 q 298 -3 353 1 z "},"t":{"ha":351,"x_min":-12,"x_max":441,"o":"m 134 548 q 124 613 129 575 q 117 688 119 651 q 113 755 114 726 q 114 796 111 785 q 138 836 121 827 q 170 817 156 844 q 180 773 175 806 q 190 701 186 741 q 196 620 194 661 q 198 553 198 579 q 264 566 240 562 q 307 576 288 571 q 349 589 326 582 q 415 606 372 595 l 441 543 l 208 450 q 212 355 208 410 q 221 240 216 300 q 232 120 227 180 q 240 8 237 60 q 239 6 240 7 q 239 3 239 5 l 239 -3 q 229 -12 236 -5 q 211 -24 221 -19 q 189 -32 201 -30 q 164 -26 176 -34 q 142 186 146 100 q 136 326 137 273 q 135 404 136 380 q 125 427 134 427 q 100 425 110 427 q 81 421 90 423 q 62 417 72 419 q 37 415 52 415 q 23 415 31 415 q 7 418 15 415 q -7 426 -1 420 q -12 442 -12 431 q 5 485 -12 475 q 45 500 22 495 q 94 513 69 506 q 134 548 119 521 z "},"u":{"ha":444,"x_min":23,"x_max":418,"o":"m 99 24 q 88 90 95 47 q 73 185 81 133 q 57 294 65 237 q 41 401 49 350 q 29 493 34 452 q 23 556 24 534 q 24 576 23 566 q 28 596 24 587 q 41 611 33 605 q 62 617 49 617 q 89 602 81 617 q 98 565 96 586 q 99 523 100 544 q 99 491 98 502 q 104 449 100 477 q 113 384 109 420 q 122 307 117 347 q 132 231 127 267 q 141 165 137 194 q 148 122 145 136 q 158 102 148 106 q 181 102 168 99 q 206 112 194 106 q 222 122 218 118 q 322 304 281 208 q 363 507 363 401 q 385 500 374 507 q 402 482 395 492 q 414 461 410 472 q 418 444 418 450 q 356 196 418 308 q 197 0 294 84 q 99 24 122 -33 z "},"v":{"ha":454,"x_min":19,"x_max":422,"o":"m 197 24 q 139 138 170 76 q 81 267 109 201 q 37 400 54 332 q 19 530 19 468 q 92 464 68 510 q 134 362 117 418 q 168 250 151 307 q 222 148 186 193 l 369 614 q 397 614 387 620 q 414 595 408 608 q 420 568 419 583 q 420 540 422 552 q 420 516 420 534 q 418 491 419 498 q 404 442 414 475 q 383 369 395 410 q 358 282 372 328 q 332 195 345 236 q 310 121 320 155 q 296 73 300 88 q 278 37 286 52 q 262 11 271 22 q 245 0 252 0 q 235 3 243 0 q 220 9 228 5 q 205 18 212 14 q 197 24 198 22 z "},"w":{"ha":762,"x_min":22,"x_max":713,"o":"m 172 24 q 100 267 129 178 q 54 404 71 355 q 29 475 37 453 q 22 517 22 498 q 40 568 22 543 q 85 593 58 593 q 111 577 106 593 q 123 540 117 562 q 135 494 127 525 q 153 425 142 464 q 174 344 163 387 q 194 262 184 301 q 211 193 203 224 q 222 148 218 163 q 244 201 231 171 q 277 258 258 231 q 319 304 296 285 q 370 323 343 323 q 434 292 410 323 q 479 222 458 260 q 522 153 500 184 q 578 122 544 122 q 604 134 593 122 q 623 163 616 146 q 635 196 631 179 q 639 221 639 213 q 640 285 640 239 q 640 382 640 331 q 640 477 640 433 q 639 540 640 522 q 661 578 646 560 q 713 590 675 595 l 713 197 q 704 157 713 186 q 680 100 694 129 q 649 47 666 71 q 616 24 632 24 q 561 39 585 24 q 518 76 537 54 q 484 123 499 98 q 452 171 468 149 q 420 208 437 193 q 381 222 403 222 q 344 201 359 224 q 315 147 328 179 q 289 82 301 115 q 260 26 277 49 q 223 0 244 4 q 172 24 202 -4 z "},"x":{"ha":444,"x_min":5,"x_max":408,"o":"m 160 271 q 124 326 151 298 q 71 382 98 354 q 24 437 43 410 q 12 491 5 465 q 20 505 14 496 q 34 520 26 513 q 50 534 42 528 q 61 540 57 540 q 95 506 80 525 q 123 467 110 487 q 151 427 137 446 q 184 393 165 408 q 238 509 217 448 q 283 639 259 571 q 345 630 332 640 q 358 602 358 620 q 346 541 358 570 q 319 481 334 511 q 292 421 304 452 q 279 357 279 391 q 300 281 279 313 q 344 227 320 250 q 388 187 368 203 q 408 161 408 171 q 407 149 408 157 q 402 134 406 141 q 393 123 399 127 q 381 122 388 118 l 233 197 l 160 24 l 103 24 q 109 87 103 54 q 122 153 114 121 q 140 216 130 186 q 160 271 151 247 z "},"y":{"ha":639,"x_min":24,"x_max":594,"o":"m 385 -114 q 455 -75 429 -104 q 496 -6 481 -46 q 515 81 510 34 q 521 176 521 129 q 519 267 521 224 q 517 343 517 311 q 467 254 499 301 q 391 166 434 206 q 298 100 349 126 q 197 73 248 73 q 118 102 151 73 q 64 173 85 132 q 34 261 43 214 q 24 343 24 308 q 27 377 24 353 q 34 429 30 401 q 43 481 38 457 q 50 515 47 506 q 71 517 60 515 q 93 517 83 518 q 111 510 103 515 q 123 491 119 505 q 117 462 121 483 q 109 417 113 441 q 102 372 104 393 q 99 343 99 351 q 105 289 99 319 q 125 233 111 259 q 159 189 138 206 q 209 171 180 171 q 317 202 271 171 q 397 281 363 233 q 452 382 430 328 q 491 484 475 437 q 518 563 507 532 q 540 594 529 594 q 578 583 563 594 q 590 540 593 571 q 591 496 590 528 q 592 430 591 465 q 593 363 593 395 q 594 320 594 332 q 593 252 594 298 q 588 147 593 205 q 574 28 583 90 q 546 -83 564 -33 q 499 -165 528 -133 q 430 -198 471 -198 q 406 -189 415 -198 q 393 -166 397 -179 q 387 -139 388 -153 q 385 -114 385 -125 z "},"z":{"ha":515,"x_min":20,"x_max":514,"o":"m 73 122 q 89 186 77 157 q 113 242 100 216 q 134 295 125 269 q 144 353 144 321 q 113 347 133 353 q 74 340 94 342 q 40 342 54 338 q 26 369 26 347 q 50 405 26 396 q 104 420 75 414 q 157 436 133 426 q 182 477 182 446 q 169 534 186 514 q 126 566 152 555 q 71 585 100 578 q 20 602 42 591 q 36 633 20 625 q 71 640 52 640 q 159 629 123 640 q 218 595 194 617 q 255 540 241 572 q 278 465 269 507 q 319 473 300 464 q 358 494 338 481 q 405 518 378 506 q 468 536 431 530 q 492 536 480 538 q 509 526 503 533 q 511 509 514 518 q 491 491 509 500 l 245 368 q 235 342 244 368 q 214 281 225 316 q 191 209 202 245 q 172 148 179 172 q 174 90 161 104 q 212 78 186 75 q 276 98 239 81 q 354 136 313 115 q 435 176 395 157 q 507 203 475 195 q 477 117 507 155 q 404 52 448 79 q 311 12 361 26 q 221 -1 262 -1 q 169 6 197 -1 q 119 28 141 14 q 83 66 96 43 q 73 122 69 90 z "},"{":{"ha":505,"x_min":23,"x_max":479,"o":"m 233 -174 q 157 -146 182 -170 q 127 -88 133 -122 q 131 -15 122 -54 q 155 62 140 24 q 189 130 171 99 q 217 175 206 160 q 158 170 191 172 q 95 172 125 168 q 44 190 65 176 q 23 233 23 203 q 48 275 23 255 q 106 311 73 294 q 173 341 140 327 q 222 368 206 355 q 158 435 183 400 q 119 509 133 469 q 101 591 106 548 q 96 682 96 633 q 117 799 96 747 q 176 886 138 850 q 266 941 213 922 q 382 960 319 960 q 439 936 416 958 q 470 890 461 914 q 473 849 479 867 q 444 836 467 831 q 395 848 419 836 q 343 861 370 860 q 262 842 296 861 q 209 792 229 823 q 179 722 189 761 q 170 643 170 684 q 184 540 170 575 q 222 489 199 505 q 270 469 244 473 q 318 458 296 465 q 355 435 340 452 q 370 377 370 418 q 361 338 370 355 q 338 307 353 321 q 306 280 324 293 q 269 255 288 267 q 283 241 275 251 q 299 221 292 232 q 312 199 307 210 q 317 182 317 189 q 302 126 317 149 q 269 81 288 103 q 236 35 251 60 q 221 -24 221 11 q 239 -67 221 -54 q 281 -83 256 -80 q 334 -85 307 -87 q 380 -83 361 -83 q 361 -111 380 -95 q 319 -140 343 -126 q 270 -164 294 -155 q 233 -174 245 -174 z "}," ":{"ha":160,"x_min":38,"x_max":136,"o":"m 38 83 q 52 574 38 328 q 65 1066 65 821 q 83 1059 75 1066 q 97 1042 91 1051 q 106 1023 103 1032 q 111 1008 110 1013 q 111 916 111 978 q 109 777 110 854 q 109 614 109 700 q 109 452 109 529 q 110 313 110 374 q 111 221 110 251 q 115 187 111 212 q 121 135 118 163 q 129 83 125 107 q 136 49 133 58 q 115 26 129 30 q 84 22 102 22 q 48 39 58 22 q 38 83 38 57 z "},"}":{"ha":566,"x_min":5,"x_max":530,"o":"m 184 -123 q 229 -88 195 -114 q 298 -28 262 -62 q 367 45 335 7 q 409 119 399 84 q 397 182 419 155 q 307 221 376 209 q 254 195 278 195 q 212 212 229 195 q 187 255 195 228 q 182 311 179 282 q 198 351 182 335 q 233 381 214 366 q 269 415 252 396 q 285 467 285 434 q 262 475 282 476 q 218 475 243 473 q 169 490 193 477 q 134 540 145 503 l 134 552 q 153 633 134 590 q 192 722 171 675 q 231 818 213 768 q 250 922 250 868 q 172 908 202 922 q 118 877 142 894 q 68 846 94 860 q 5 831 43 831 q 24 924 5 886 q 76 987 43 963 q 152 1023 109 1012 q 244 1035 195 1035 q 314 1011 293 1034 q 338 954 335 989 q 332 875 340 918 q 311 787 323 831 q 289 703 298 743 q 282 636 279 663 q 344 591 316 620 q 385 523 372 562 q 395 438 399 484 q 359 342 391 392 q 415 333 385 342 q 471 307 445 324 q 513 266 496 290 q 530 209 530 241 q 506 100 530 156 q 445 -6 481 45 q 365 -100 408 -57 q 283 -172 321 -144 q 251 -177 271 -176 q 213 -173 231 -178 q 186 -157 195 -168 q 184 -123 176 -145 z "},"~":{"ha":579,"x_min":19,"x_max":556,"o":"m 61 943 q 70 892 62 925 q 91 826 77 859 q 126 769 104 793 q 179 745 148 745 q 213 772 193 745 q 260 831 233 799 q 319 891 286 864 q 389 918 351 918 q 435 905 406 922 q 494 863 465 888 q 539 811 522 838 q 547 768 556 784 l 473 768 q 436 838 457 822 q 392 844 415 853 q 343 808 369 834 q 292 753 317 783 q 239 700 266 724 q 189 670 213 675 q 107 699 140 670 q 55 769 75 727 q 27 859 35 811 q 19 943 19 906 l 61 943 z "},"€":{"ha":627,"x_min":5,"x_max":618,"o":"m 68 427 q 127 438 109 427 q 151 467 145 449 q 155 511 157 486 q 153 566 153 537 l 5 566 q 22 623 5 602 q 64 655 38 643 q 121 674 90 667 q 184 689 153 681 q 206 749 190 707 q 242 838 222 791 q 280 926 262 884 q 307 983 298 967 q 336 1023 317 1001 q 378 1064 355 1046 q 428 1095 401 1082 q 479 1108 454 1108 q 538 1084 513 1108 q 580 1025 563 1059 q 606 952 597 990 q 614 887 614 914 q 618 852 618 863 q 610 839 617 842 q 588 836 602 836 q 553 836 574 837 q 554 882 557 853 q 541 940 551 911 q 512 989 530 968 q 467 1009 494 1009 q 382 975 415 1009 q 330 892 349 940 q 302 791 311 844 q 294 701 294 738 l 529 701 q 536 694 532 701 q 544 677 540 688 q 551 656 548 667 q 553 639 553 646 q 544 625 553 633 q 529 616 534 616 q 490 616 518 616 q 430 617 461 617 q 371 616 399 617 q 332 616 343 616 q 307 611 323 614 q 275 604 290 608 q 247 595 259 600 q 233 590 235 591 q 229 553 224 575 q 244 509 235 530 q 273 456 255 484 l 456 456 q 434 412 452 426 q 391 391 416 397 q 338 378 366 384 q 287 360 311 373 q 248 320 263 347 q 232 244 232 293 q 238 161 232 212 q 260 64 244 111 q 305 -18 277 16 q 380 -52 334 -52 q 425 -42 404 -52 q 465 -18 446 -33 q 498 15 483 -3 q 529 50 514 33 q 530 31 529 46 q 530 12 530 16 q 519 -45 530 -16 q 487 -97 507 -75 q 439 -134 467 -119 q 381 -148 412 -148 q 292 -121 327 -148 q 237 -50 258 -94 q 205 47 217 -7 q 185 153 194 100 q 165 250 176 205 q 134 320 155 294 q 126 325 133 321 q 111 332 119 328 q 94 339 102 336 q 85 345 87 342 q 80 361 83 350 q 75 386 77 373 q 70 410 72 399 q 68 427 68 422 z "},"£":{"ha":712,"x_min":12,"x_max":685,"o":"m 83 49 q 90 80 83 68 q 109 102 98 92 q 134 121 121 111 q 159 147 148 132 q 178 186 171 163 q 186 244 186 209 q 173 362 186 317 q 141 433 160 407 q 99 470 122 458 q 57 490 76 481 q 25 508 38 498 q 12 540 12 518 q 18 582 12 572 q 35 590 24 591 q 58 582 45 589 q 83 575 71 575 q 72 686 83 632 q 61 799 61 741 q 71 930 61 865 q 106 1046 80 996 q 181 1128 133 1097 q 307 1160 229 1160 q 415 1137 365 1160 q 502 1076 465 1115 q 559 986 538 1038 q 581 876 581 935 q 581 844 581 867 q 578 796 581 821 q 566 753 575 772 q 541 735 557 735 q 505 762 517 735 q 499 880 506 826 q 470 975 492 935 q 408 1037 448 1015 q 301 1059 368 1059 q 214 1040 243 1059 q 172 987 184 1020 q 159 912 160 955 q 157 823 157 869 q 158 788 157 810 q 159 745 159 766 q 159 707 159 723 q 160 689 160 690 q 164 660 161 677 q 171 627 167 643 q 178 601 175 612 q 184 590 182 590 l 463 590 q 461 573 463 587 q 456 544 460 559 q 446 517 452 529 q 430 505 439 505 l 210 505 q 215 487 212 499 q 222 461 218 475 q 230 435 227 448 q 233 418 233 423 q 243 359 236 401 q 259 270 251 317 q 274 180 267 222 q 283 122 281 138 l 602 122 q 650 125 629 132 q 677 102 670 118 q 674 64 685 85 q 627 24 663 43 q 585 25 613 24 q 519 26 556 26 q 443 26 483 26 q 366 26 403 26 q 300 25 330 26 q 258 24 271 24 q 239 21 254 24 q 209 13 225 18 q 178 4 193 8 q 160 0 164 0 q 149 -1 159 0 q 134 -1 138 -1 q 83 49 83 -1 z "},"*":{"ha":708,"x_min":9,"x_max":674,"o":"m 9 387 q 18 420 9 406 q 37 449 26 434 q 80 467 49 453 q 147 496 111 480 q 214 527 183 513 q 258 548 245 541 q 282 586 273 557 q 300 647 292 614 q 318 707 309 680 q 342 739 327 734 q 379 720 357 745 q 435 625 401 696 q 535 622 487 625 q 617 604 583 618 q 663 562 651 590 q 652 488 674 534 q 645 412 652 444 q 629 353 637 381 q 611 292 620 324 q 600 216 602 260 q 594 193 600 210 q 581 155 589 175 q 566 121 574 136 q 552 106 557 106 q 534 113 548 106 q 503 130 519 121 q 473 147 487 140 q 454 155 458 155 q 399 142 427 155 q 342 115 372 130 q 283 88 313 100 q 220 76 252 76 l 220 327 q 204 347 220 342 q 165 351 189 351 q 115 350 142 351 q 64 351 87 349 q 25 360 41 353 q 9 387 9 368 m 307 155 l 380 229 q 355 262 369 245 q 319 278 340 278 l 307 278 l 307 155 m 528 241 q 518 229 518 241 q 528 216 518 216 q 538 229 538 216 q 528 241 538 241 m 304 416 q 318 365 304 385 q 354 330 332 345 q 403 303 376 315 q 454 278 430 292 q 505 386 494 326 q 517 503 517 446 q 456 501 492 503 q 387 490 420 499 q 328 464 353 481 q 304 416 304 446 m 209 438 q 199 426 199 438 q 209 414 199 414 q 217 426 217 414 q 209 438 217 438 m 576 511 q 567 499 567 511 q 576 487 567 487 q 597 497 590 491 q 606 509 605 503 q 600 515 606 514 q 576 511 593 517 z "},"`":{"ha":160,"x_min":18,"x_max":152,"o":"m 56 882 q 87 836 76 850 q 108 807 99 821 q 126 777 117 793 q 152 727 136 760 q 145 707 148 720 q 138 684 142 694 q 125 672 133 674 q 104 685 118 670 q 70 738 91 700 q 18 845 49 776 l 56 882 z "},"^":{"ha":608,"x_min":66,"x_max":548,"o":"m 68 769 q 146 894 88 831 q 300 991 205 956 q 341 965 316 985 q 395 920 366 945 q 452 864 423 894 q 502 807 480 834 q 536 758 524 780 q 544 726 548 736 l 475 726 l 301 901 q 239 863 264 882 q 197 823 214 845 q 168 774 180 802 q 144 709 156 747 q 129 688 137 694 q 107 682 121 682 q 80 692 88 682 q 69 715 72 701 q 67 743 66 728 q 68 769 68 758 z "},"|":{"ha":1044,"x_min":11,"x_max":1010,"o":"m 12 762 q 16 779 11 768 q 30 801 22 789 q 47 822 38 812 q 61 836 56 831 q 181 786 129 811 q 278 730 233 761 q 366 659 323 699 q 456 566 408 620 q 527 692 480 627 q 635 810 574 757 q 767 899 696 864 q 911 935 838 935 l 922 935 q 955 932 936 937 q 988 899 974 926 q 1006 817 1002 872 q 996 663 1010 761 l 774 24 q 760 4 768 9 q 738 -1 751 -1 q 604 42 678 -1 q 453 154 530 85 q 301 308 376 222 q 165 478 227 393 q 63 638 104 563 q 12 762 22 713 m 258 491 q 316 373 274 430 q 414 268 358 316 q 532 182 469 220 q 651 122 594 144 q 652 128 651 123 q 652 134 652 133 q 631 191 652 156 q 574 265 609 225 q 496 346 540 305 q 411 419 453 387 q 332 473 369 452 q 271 494 294 494 q 264 492 269 494 q 258 491 259 491 m 726 172 q 753 201 742 183 q 774 239 765 218 q 789 281 783 260 q 799 320 795 302 q 770 325 791 321 q 725 332 749 328 q 680 340 701 336 q 651 345 659 343 l 637 345 q 618 341 625 345 q 602 320 612 338 l 726 172 m 505 517 q 607 440 544 465 q 734 415 670 415 q 717 460 734 441 q 680 496 700 479 q 644 533 661 514 q 627 578 627 552 q 637 604 627 593 q 663 616 647 616 q 716 610 693 616 q 764 599 739 605 q 817 587 788 593 q 884 582 845 582 q 876 632 884 610 q 857 673 867 654 q 838 712 846 693 q 829 755 829 731 q 862 752 846 755 q 892 745 878 749 q 920 737 906 741 q 952 734 935 734 q 939 809 952 780 q 878 838 926 838 q 760 808 821 838 q 648 730 700 777 q 557 626 595 682 q 505 517 518 570 m 861 494 q 827 473 837 494 q 818 433 818 452 q 857 450 844 433 q 872 491 869 468 q 867 492 869 491 l 863 492 q 861 494 861 492 m 155 692 q 174 647 155 658 q 221 636 193 636 q 240 637 227 636 q 258 639 254 637 q 212 678 241 665 q 155 692 183 692 z "},"´":{"ha":160,"x_min":14,"x_max":168,"o":"m 168 848 q 109 743 133 780 q 68 690 84 705 q 44 677 53 675 q 30 690 35 680 q 21 713 24 700 q 14 732 18 726 q 43 781 33 765 q 64 810 54 798 q 87 839 75 823 q 125 884 100 854 l 168 848 z "},"⁄":{"ha":403,"x_min":31,"x_max":456,"o":"m 38 -49 q 64 64 45 -12 q 113 238 84 141 q 179 444 142 335 q 256 652 216 552 q 337 833 296 751 q 418 960 378 916 q 444 947 433 960 q 456 910 456 935 q 337 694 387 812 q 246 447 288 575 q 164 185 205 319 q 73 -75 123 52 q 42 -83 53 -85 q 38 -49 31 -80 z "},"˘":{"ha":418,"x_min":33,"x_max":317,"o":"m 317 784 q 272 714 309 746 q 189 674 235 682 q 100 692 144 666 q 33 796 56 718 l 113 817 q 121 756 107 777 q 157 731 136 735 q 201 741 179 727 q 235 784 224 754 l 317 784 z "},"ˇ":{"ha":342,"x_min":33,"x_max":317,"o":"m 317 784 l 148 647 l 33 796 l 113 817 l 157 731 l 235 784 l 317 784 z "},"˝":{"ha":320,"x_min":14,"x_max":328,"o":"m 168 848 q 109 743 133 780 q 68 690 84 705 q 44 677 53 675 q 30 690 35 680 q 21 713 24 700 q 14 732 18 726 q 43 781 33 765 q 64 810 54 798 q 87 839 75 823 q 125 884 100 854 l 168 848 m 328 848 q 269 743 293 780 q 229 690 244 705 q 204 677 213 675 q 190 690 195 680 q 181 713 184 700 q 174 732 178 726 q 203 781 193 765 q 224 810 214 798 q 248 839 235 823 q 285 884 260 854 l 328 848 z "},"˚":{"ha":439,"x_min":61,"x_max":385,"o":"m 88 689 q 62 746 64 716 q 75 804 61 776 q 117 855 90 833 q 180 890 145 878 q 252 899 214 902 q 324 875 289 897 q 380 793 376 842 q 334 699 385 745 q 279 665 312 678 q 212 650 247 652 q 143 656 176 647 q 88 689 110 665 m 304 768 q 223 804 270 803 q 141 772 176 804 q 220 731 176 732 q 304 768 263 730 z "},"˙":{"ha":231,"x_min":54,"x_max":167,"o":"m 54 781 q 68 825 54 815 q 114 840 81 836 q 136 835 126 841 q 152 819 145 829 q 163 800 159 810 q 167 784 167 789 q 156 738 167 755 q 106 720 145 720 q 65 738 76 720 q 54 781 54 755 z "},"˛":{"ha":302,"x_min":24,"x_max":250,"o":"m 250 -137 q 180 -175 214 -167 q 116 -176 145 -183 q 66 -149 87 -168 q 35 -103 45 -129 q 28 -48 24 -77 q 53 8 31 -19 q 93 28 72 31 q 125 5 114 24 q 103 -59 109 -31 q 106 -101 98 -87 q 137 -115 114 -115 q 201 -94 160 -114 l 250 -137 z "},"ı":{"ha":209,"x_min":46,"x_max":142,"o":"m 47 464 q 63 505 50 492 q 92 514 76 518 q 121 489 107 510 q 141 427 136 468 q 142 387 141 420 q 142 307 142 353 q 142 208 142 260 q 139 111 141 156 q 134 35 137 66 q 123 0 130 4 l 66 22 q 63 63 65 33 q 59 135 61 94 q 54 224 57 176 q 50 317 52 271 q 47 401 47 362 q 47 464 46 441 z "},"”":{"ha":275,"x_min":65,"x_max":264,"o":"m 259 846 q 256 815 259 838 q 250 766 254 792 q 241 715 245 739 q 235 681 237 692 q 222 662 232 667 q 201 656 212 656 q 168 692 168 669 q 177 749 167 716 q 197 819 187 781 q 197 895 208 856 q 218 897 205 899 q 241 888 231 895 q 258 869 252 880 q 259 846 264 859 m 157 863 q 155 832 157 854 q 148 783 152 810 q 140 733 144 757 q 133 699 136 709 q 120 678 130 684 q 99 673 110 673 q 66 709 66 685 q 75 766 65 734 q 96 836 85 798 q 95 911 106 873 q 115 913 103 916 q 139 905 127 911 q 157 887 151 898 q 157 863 163 876 z "},"“":{"ha":275,"x_min":19,"x_max":225,"o":"m 24 873 q 25 899 19 887 q 43 918 31 910 q 68 927 54 925 q 90 925 81 929 q 89 845 79 884 q 109 772 99 806 q 119 713 119 739 q 85 675 118 688 q 64 681 75 675 q 50 701 53 686 q 43 737 47 712 q 34 790 38 762 q 27 842 30 818 q 24 873 24 865 m 130 891 q 131 916 125 905 q 149 935 137 928 q 174 945 160 943 q 195 943 187 947 q 195 863 184 902 q 215 790 205 823 q 224 731 225 757 q 191 693 224 705 q 170 699 180 693 q 156 719 159 704 q 149 755 153 730 q 140 808 144 780 q 133 859 136 836 q 130 891 130 883 z "},"’":{"ha":138,"x_min":30,"x_max":125,"o":"m 33 632 q 33 699 30 666 q 41 762 37 732 q 48 816 45 791 q 47 860 52 841 q 106 852 90 868 q 124 802 123 836 q 115 719 125 768 q 95 613 106 670 q 62 615 71 613 q 33 632 53 617 z "},"‘":{"ha":138,"x_min":14,"x_max":110,"o":"m 107 635 q 90 625 96 628 q 78 620 84 621 q 64 618 72 618 q 43 618 56 618 q 23 713 33 670 q 15 787 14 757 q 33 832 16 818 q 92 840 50 846 q 92 800 88 822 q 99 751 95 777 q 106 695 103 724 q 107 635 110 666 z "},"„":{"ha":275,"x_min":35,"x_max":241,"o":"m 41 190 q 41 215 35 203 q 59 234 47 227 q 84 243 71 241 q 106 241 98 245 q 105 161 95 201 q 125 89 115 122 q 135 30 136 56 q 102 -8 134 4 q 80 -3 91 -8 q 66 18 69 3 q 59 54 64 28 q 50 106 54 79 q 43 158 46 134 q 41 190 41 182 m 146 208 q 147 233 141 221 q 165 252 153 244 q 190 261 176 259 q 212 259 203 263 q 211 179 201 218 q 231 106 221 140 q 241 47 241 73 q 208 9 240 22 q 186 15 197 9 q 172 35 175 20 q 165 71 170 46 q 156 124 160 96 q 149 176 152 152 q 146 208 146 199 z "},"‚":{"ha":138,"x_min":35,"x_max":130,"o":"m 38 30 q 39 97 35 64 q 46 159 42 130 q 54 214 50 189 q 53 258 57 239 q 112 250 95 266 q 130 199 129 233 q 121 117 130 165 q 100 11 111 68 q 67 13 76 11 q 38 30 58 15 z "},"ƒ":{"ha":445,"x_min":0,"x_max":540,"o":"m 81 -269 q 35 -241 42 -255 q 45 -216 27 -228 q 103 -193 62 -203 q 202 -175 144 -183 q 223 -155 220 -174 q 223 -114 227 -137 q 213 -66 220 -91 q 205 -27 206 -42 q 172 237 178 152 q 163 321 165 321 q 134 317 148 321 q 106 307 119 312 q 78 298 92 302 q 49 293 64 293 q 35 293 43 293 q 19 296 27 293 q 5 304 11 298 q 0 320 0 309 q 17 382 0 363 q 60 408 34 400 q 115 420 85 415 q 172 442 145 425 q 170 496 171 457 q 170 578 170 534 q 170 659 170 621 q 172 712 171 697 q 176 766 174 732 q 188 832 179 800 q 216 888 197 864 q 271 911 236 911 q 359 862 326 901 q 407 779 392 823 q 420 698 422 735 q 401 654 418 661 q 376 699 392 671 q 342 750 361 727 q 305 786 324 773 q 271 787 286 799 q 248 706 255 757 q 238 604 240 655 q 237 508 236 552 q 236 448 237 464 q 311 469 278 456 q 375 498 345 483 q 438 528 406 513 q 514 555 471 544 l 540 491 l 245 345 q 243 270 240 313 q 255 177 247 227 q 274 73 263 127 q 295 -32 285 19 q 313 -128 305 -83 q 321 -206 320 -174 q 314 -227 327 -217 q 278 -245 301 -237 q 225 -258 255 -252 q 167 -267 195 -264 q 115 -271 138 -270 q 81 -269 92 -271 z "},"…":{"ha":720,"x_min":68,"x_max":675,"o":"m 68 71 q 87 117 71 98 q 145 141 103 136 q 195 64 191 129 q 178 14 195 27 q 126 0 161 0 q 77 21 87 0 q 68 71 68 42 m 308 71 q 327 117 311 98 q 385 141 343 136 q 435 64 431 129 q 418 14 435 27 q 366 0 401 0 q 317 21 327 0 q 308 71 308 42 m 548 71 q 567 117 551 98 q 625 141 583 136 q 675 64 671 129 q 659 14 675 27 q 606 0 642 0 q 557 21 567 0 q 548 71 548 42 z "},"ˆ":{"ha":608,"x_min":66,"x_max":548,"o":"m 68 769 q 146 894 88 831 q 300 991 205 956 q 341 965 316 985 q 395 920 366 945 q 452 864 423 894 q 502 807 480 834 q 536 758 524 780 q 544 726 548 736 l 475 726 l 301 901 q 239 863 264 882 q 197 823 214 845 q 168 774 180 802 q 144 709 156 747 q 129 688 137 694 q 107 682 121 682 q 80 692 88 682 q 69 715 72 701 q 67 743 66 728 q 68 769 68 758 z "},"¨":{"ha":468,"x_min":50,"x_max":418,"o":"m 50 766 q 69 812 53 793 q 127 837 85 831 q 178 760 174 825 q 161 709 178 723 q 109 696 144 696 q 60 717 69 696 q 50 766 50 738 m 290 766 q 309 812 293 793 q 368 837 326 831 q 418 760 414 825 q 401 709 418 723 q 349 696 384 696 q 300 717 309 696 q 290 766 290 738 z "},"¡":{"ha":221,"x_min":65,"x_max":172,"o":"m 77 719 q 88 674 77 691 q 128 657 98 657 q 163 673 154 657 q 173 716 173 690 q 162 761 173 740 q 119 783 151 783 q 98 777 106 783 q 85 761 90 771 q 79 740 81 752 q 77 719 77 729 m 89 399 q 82 350 86 384 q 75 273 78 316 q 70 185 73 230 q 66 101 67 140 q 68 36 66 63 q 76 5 70 10 q 92 1 78 5 q 108 -3 106 -3 q 119 -4 115 -3 q 124 -6 122 -6 q 127 -4 125 -6 q 131 6 129 -1 q 138 96 132 46 q 148 199 143 147 q 159 302 154 251 q 163 395 163 353 q 163 413 163 406 q 161 423 163 419 q 151 429 158 427 q 132 430 145 430 q 115 430 121 430 q 105 427 109 429 q 98 418 101 424 q 89 399 94 412 z "},"Ÿ":{"ha":651,"x_min":19,"x_max":616,"o":"m 415 49 q 431 78 415 61 q 467 123 448 95 q 503 193 487 152 q 519 294 519 235 q 519 314 519 300 q 518 345 518 328 q 517 374 518 361 q 517 393 517 388 q 458 323 496 358 q 373 258 420 288 q 273 211 326 229 q 170 193 220 193 q 100 210 127 193 q 57 256 73 228 q 33 321 41 285 q 23 394 26 357 q 21 467 20 431 q 22 529 22 502 q 22 580 24 547 q 21 647 19 613 q 34 708 23 681 q 73 742 45 735 q 121 722 113 743 q 124 664 130 700 q 107 582 118 628 q 96 490 96 536 q 97 422 96 457 q 106 359 98 388 q 136 311 115 330 q 198 293 157 293 q 338 333 275 293 q 444 435 400 373 q 513 570 488 496 q 541 712 538 644 q 566 712 553 712 q 590 709 579 712 q 608 696 601 705 q 616 669 614 686 q 608 446 616 557 q 590 221 601 334 q 583 165 589 202 q 563 91 576 127 q 526 27 549 54 q 468 0 503 0 q 425 13 435 0 q 415 49 415 26 m 141 842 q 160 888 144 869 q 218 913 176 907 q 269 836 264 901 q 252 785 269 799 q 199 772 235 772 q 151 793 160 772 q 141 842 141 814 m 381 842 q 400 888 384 869 q 458 913 416 907 q 509 836 505 901 q 492 785 509 799 q 439 772 475 772 q 391 793 400 772 q 381 842 381 814 z "},"˜":{"ha":579,"x_min":19,"x_max":556,"o":"m 61 943 q 70 892 62 925 q 91 826 77 859 q 126 769 104 793 q 179 745 148 745 q 213 772 193 745 q 260 831 233 799 q 319 891 286 864 q 389 918 351 918 q 435 905 406 922 q 494 863 465 888 q 539 811 522 838 q 547 768 556 784 l 473 768 q 436 838 457 822 q 392 844 415 853 q 343 808 369 834 q 292 753 317 783 q 239 700 266 724 q 189 670 213 675 q 107 699 140 670 q 55 769 75 727 q 27 859 35 811 q 19 943 19 906 l 61 943 z "},"¿":{"ha":553,"x_min":38,"x_max":524,"o":"m 357 707 q 350 684 357 697 q 332 660 344 671 q 308 642 321 649 q 281 639 295 635 q 242 664 253 645 q 231 706 231 684 q 248 753 231 730 q 295 776 265 776 q 339 754 321 776 q 357 707 357 732 m 373 492 q 344 450 365 479 q 295 385 322 422 q 236 307 267 348 q 178 230 204 266 q 133 164 151 193 q 110 121 114 135 q 127 83 110 93 q 171 74 143 74 q 345 105 264 74 q 498 188 426 136 q 518 175 512 182 q 524 153 524 167 q 476 89 515 119 q 383 38 436 59 q 269 6 329 17 q 159 1 210 -4 q 75 27 109 6 q 39 90 41 48 q 58 155 39 111 q 108 253 77 199 q 176 365 139 307 q 250 469 214 422 q 316 546 287 516 q 362 576 346 576 q 392 563 381 568 q 406 551 403 558 q 401 530 409 543 q 373 492 393 516 z "},"¸":{"ha":286,"x_min":42,"x_max":281,"o":"m 92 -171 q 191 -178 167 -189 q 205 -148 216 -168 q 154 -106 194 -127 q 61 -77 114 -84 q 50 -1 42 -23 q 75 22 58 22 q 108 4 92 22 q 119 -39 123 -14 q 170 -54 140 -46 q 225 -77 199 -62 q 266 -115 251 -91 q 271 -178 281 -140 q 256 -211 271 -197 q 217 -234 240 -225 q 168 -247 194 -243 q 122 -251 142 -251 q 84 -233 96 -245 q 70 -208 72 -221 q 74 -184 68 -195 q 92 -171 80 -174 z "},"¯":{"ha":589,"x_min":31,"x_max":551,"o":"m 77 669 q 42 688 53 677 q 31 711 31 699 q 38 733 31 723 q 54 750 45 743 q 153 766 95 761 q 272 771 210 770 q 392 770 334 772 q 491 769 450 769 q 536 755 522 768 q 549 727 551 742 q 534 701 548 712 q 494 690 519 689 l 77 669 z "},"Á":{"ha":517,"x_min":11,"x_max":481,"o":"m 73 345 q 52 374 61 350 q 35 431 42 397 q 24 503 28 464 q 16 581 19 543 q 12 650 14 618 q 11 701 11 682 q 16 722 11 715 q 38 738 20 730 q 70 704 57 726 q 91 658 83 682 q 104 609 99 633 q 111 566 109 585 q 155 706 118 640 q 258 811 193 772 q 331 772 302 804 q 377 695 359 741 q 403 594 395 650 q 415 484 411 538 q 421 378 419 429 q 430 294 423 328 q 461 197 445 247 q 481 96 477 148 q 473 61 481 75 q 430 49 465 47 q 389 140 403 92 q 368 238 374 189 q 361 338 362 288 q 359 438 359 389 q 307 433 340 444 q 242 407 274 422 q 186 379 210 392 q 160 368 161 366 l 160 24 q 149 4 160 9 q 121 0 137 -1 q 92 8 106 1 q 73 24 77 15 l 73 345 m 271 689 q 229 668 247 689 q 200 618 212 647 q 183 559 189 590 q 178 507 178 528 q 214 507 189 507 q 267 511 240 507 q 313 527 293 515 q 334 563 334 538 q 331 598 334 576 q 321 640 328 620 q 302 675 315 661 q 271 689 290 689 m 307 1019 q 247 913 271 951 q 207 861 222 876 q 182 848 191 846 q 168 861 174 850 q 159 884 163 871 q 152 903 156 897 q 182 952 171 936 q 203 981 193 968 q 226 1010 213 994 q 263 1055 239 1025 l 307 1019 z "},"Ă":{"ha":517,"x_min":11,"x_max":481,"o":"m 73 345 q 52 374 61 350 q 35 431 42 397 q 24 503 28 464 q 16 581 19 543 q 12 650 14 618 q 11 701 11 682 q 16 722 11 715 q 38 738 20 730 q 70 704 57 726 q 91 658 83 682 q 104 609 99 633 q 111 566 109 585 q 155 706 118 640 q 258 811 193 772 q 331 772 302 804 q 377 695 359 741 q 403 594 395 650 q 415 484 411 538 q 421 378 419 429 q 430 294 423 328 q 461 197 445 247 q 481 96 477 148 q 473 61 481 75 q 430 49 465 47 q 389 140 403 92 q 368 238 374 189 q 361 338 362 288 q 359 438 359 389 q 307 433 340 444 q 242 407 274 422 q 186 379 210 392 q 160 368 161 366 l 160 24 q 149 4 160 9 q 121 0 137 -1 q 92 8 106 1 q 73 24 77 15 l 73 345 m 271 689 q 229 668 247 689 q 200 618 212 647 q 183 559 189 590 q 178 507 178 528 q 214 507 189 507 q 267 511 240 507 q 313 527 293 515 q 334 563 334 538 q 331 598 334 576 q 321 640 328 620 q 302 675 315 661 q 271 689 290 689 m 381 989 q 336 919 373 951 q 253 879 298 887 q 163 897 208 871 q 96 1001 119 922 l 176 1021 q 185 961 171 982 q 221 936 199 940 q 265 945 243 932 q 298 989 288 959 l 381 989 z "},"Â":{"ha":517,"x_min":11,"x_max":499,"o":"m 73 345 q 52 374 61 350 q 35 431 42 397 q 24 503 28 464 q 16 581 19 543 q 12 650 14 618 q 11 701 11 682 q 16 722 11 715 q 38 738 20 730 q 70 704 57 726 q 91 658 83 682 q 104 609 99 633 q 111 566 109 585 q 155 706 118 640 q 258 811 193 772 q 331 772 302 804 q 377 695 359 741 q 403 594 395 650 q 415 484 411 538 q 421 378 419 429 q 430 294 423 328 q 461 197 445 247 q 481 96 477 148 q 473 61 481 75 q 430 49 465 47 q 389 140 403 92 q 368 238 374 189 q 361 338 362 288 q 359 438 359 389 q 307 433 340 444 q 242 407 274 422 q 186 379 210 392 q 160 368 161 366 l 160 24 q 149 4 160 9 q 121 0 137 -1 q 92 8 106 1 q 73 24 77 15 l 73 345 m 271 689 q 229 668 247 689 q 200 618 212 647 q 183 559 189 590 q 178 507 178 528 q 214 507 189 507 q 267 511 240 507 q 313 527 293 515 q 334 563 334 538 q 331 598 334 576 q 321 640 328 620 q 302 675 315 661 q 271 689 290 689 m 19 868 q 98 993 39 930 q 251 1090 156 1055 q 292 1064 267 1084 q 346 1019 317 1044 q 403 963 374 993 q 453 906 431 933 q 487 857 475 879 q 495 825 499 836 l 426 825 l 252 1000 q 191 962 216 981 q 149 922 165 944 q 119 873 132 901 q 95 808 107 846 q 80 787 88 793 q 58 781 72 781 q 31 791 39 781 q 20 814 23 800 q 18 842 18 827 q 19 868 19 857 z "},"À":{"ha":517,"x_min":11,"x_max":481,"o":"m 73 345 q 52 374 61 350 q 35 431 42 397 q 24 503 28 464 q 16 581 19 543 q 12 650 14 618 q 11 701 11 682 q 16 722 11 715 q 38 738 20 730 q 70 704 57 726 q 91 658 83 682 q 104 609 99 633 q 111 566 109 585 q 155 706 118 640 q 258 811 193 772 q 331 772 302 804 q 377 695 359 741 q 403 594 395 650 q 415 484 411 538 q 421 378 419 429 q 430 294 423 328 q 461 197 445 247 q 481 96 477 148 q 473 61 481 75 q 430 49 465 47 q 389 140 403 92 q 368 238 374 189 q 361 338 362 288 q 359 438 359 389 q 307 433 340 444 q 242 407 274 422 q 186 379 210 392 q 160 368 161 366 l 160 24 q 149 4 160 9 q 121 0 137 -1 q 92 8 106 1 q 73 24 77 15 l 73 345 m 271 689 q 229 668 247 689 q 200 618 212 647 q 183 559 189 590 q 178 507 178 528 q 214 507 189 507 q 267 511 240 507 q 313 527 293 515 q 334 563 334 538 q 331 598 334 576 q 321 640 328 620 q 302 675 315 661 q 271 689 290 689 m 205 1085 q 237 1039 225 1054 q 257 1010 248 1024 q 275 980 266 997 q 301 930 285 963 q 294 911 297 924 q 287 888 292 898 q 275 876 282 878 q 254 888 267 873 q 219 941 240 903 q 167 1048 198 979 l 205 1085 z "},"Ä":{"ha":517,"x_min":11,"x_max":481,"o":"m 73 345 q 52 374 61 350 q 35 431 42 397 q 24 503 28 464 q 16 581 19 543 q 12 650 14 618 q 11 701 11 682 q 16 722 11 715 q 38 738 20 730 q 70 704 57 726 q 91 658 83 682 q 104 609 99 633 q 111 566 109 585 q 155 706 118 640 q 258 811 193 772 q 331 772 302 804 q 377 695 359 741 q 403 594 395 650 q 415 484 411 538 q 421 378 419 429 q 430 294 423 328 q 461 197 445 247 q 481 96 477 148 q 473 61 481 75 q 430 49 465 47 q 389 140 403 92 q 368 238 374 189 q 361 338 362 288 q 359 438 359 389 q 307 433 340 444 q 242 407 274 422 q 186 379 210 392 q 160 368 161 366 l 160 24 q 149 4 160 9 q 121 0 137 -1 q 92 8 106 1 q 73 24 77 15 l 73 345 m 271 689 q 229 668 247 689 q 200 618 212 647 q 183 559 189 590 q 178 507 178 528 q 214 507 189 507 q 267 511 240 507 q 313 527 293 515 q 334 563 334 538 q 331 598 334 576 q 321 640 328 620 q 302 675 315 661 q 271 689 290 689 m 65 956 q 84 1002 68 983 q 142 1027 100 1021 q 193 949 189 1015 q 176 899 193 913 q 123 886 159 886 q 75 907 84 886 q 65 956 65 928 m 305 956 q 324 1002 308 983 q 382 1027 340 1021 q 433 949 429 1015 q 416 899 433 913 q 363 886 399 886 q 315 907 324 886 q 305 956 305 928 z "},"Ā":{"ha":517,"x_min":-18,"x_max":502,"o":"m 73 345 q 52 374 61 350 q 35 431 42 397 q 24 503 28 464 q 16 581 19 543 q 12 650 14 618 q 11 701 11 682 q 16 722 11 715 q 38 738 20 730 q 70 704 57 726 q 91 658 83 682 q 104 609 99 633 q 111 566 109 585 q 155 706 118 640 q 258 811 193 772 q 331 772 302 804 q 377 695 359 741 q 403 594 395 650 q 415 484 411 538 q 421 378 419 429 q 430 294 423 328 q 461 197 445 247 q 481 96 477 148 q 473 61 481 75 q 430 49 465 47 q 389 140 403 92 q 368 238 374 189 q 361 338 362 288 q 359 438 359 389 q 307 433 340 444 q 242 407 274 422 q 186 379 210 392 q 160 368 161 366 l 160 24 q 149 4 160 9 q 121 0 137 -1 q 92 8 106 1 q 73 24 77 15 l 73 345 m 271 689 q 229 668 247 689 q 200 618 212 647 q 183 559 189 590 q 178 507 178 528 q 214 507 189 507 q 267 511 240 507 q 313 527 293 515 q 334 563 334 538 q 331 598 334 576 q 321 640 328 620 q 302 675 315 661 q 271 689 290 689 m 28 875 q -7 894 4 883 q -18 917 -18 905 q -11 939 -18 929 q 5 956 -4 949 q 104 972 46 967 q 223 977 161 977 q 343 977 285 978 q 442 975 401 975 q 488 961 473 974 q 500 933 502 948 q 485 907 499 918 q 445 897 471 895 l 28 875 z "},"Ą":{"ha":517,"x_min":11,"x_max":572,"o":"m 73 345 q 52 374 61 350 q 35 431 42 397 q 24 503 28 464 q 16 581 19 543 q 12 650 14 618 q 11 701 11 682 q 16 722 11 715 q 38 738 20 730 q 70 704 57 726 q 91 658 83 682 q 104 609 99 633 q 111 566 109 585 q 155 706 118 640 q 258 811 193 772 q 331 772 302 804 q 377 695 359 741 q 403 594 395 650 q 415 484 411 538 q 421 378 419 429 q 430 294 423 328 q 461 197 445 247 q 481 96 477 148 q 473 61 481 75 q 430 49 465 47 q 389 140 403 92 q 368 238 374 189 q 361 338 362 288 q 359 438 359 389 q 307 433 340 444 q 242 407 274 422 q 186 379 210 392 q 160 368 161 366 l 160 24 q 149 4 160 9 q 121 0 137 -1 q 92 8 106 1 q 73 24 77 15 l 73 345 m 271 689 q 229 668 247 689 q 200 618 212 647 q 183 559 189 590 q 178 507 178 528 q 214 507 189 507 q 267 511 240 507 q 313 527 293 515 q 334 563 334 538 q 331 598 334 576 q 321 640 328 620 q 302 675 315 661 q 271 689 290 689 m 572 -53 q 503 -91 537 -83 q 439 -92 468 -99 q 389 -64 410 -84 q 357 -19 368 -45 q 351 36 347 7 q 376 92 354 65 q 416 112 395 115 q 448 90 437 109 q 426 25 431 53 q 429 -17 420 -3 q 460 -31 437 -31 q 524 -9 483 -30 l 572 -53 z "},"Å":{"ha":517,"x_min":11,"x_max":481,"o":"m 73 345 q 52 374 61 350 q 35 431 42 397 q 24 503 28 464 q 16 581 19 543 q 12 650 14 618 q 11 701 11 682 q 16 722 11 715 q 38 738 20 730 q 70 704 57 726 q 91 658 83 682 q 104 609 99 633 q 111 566 109 585 q 155 706 118 640 q 258 811 193 772 q 331 772 302 804 q 377 695 359 741 q 403 594 395 650 q 415 484 411 538 q 421 378 419 429 q 430 294 423 328 q 461 197 445 247 q 481 96 477 148 q 473 61 481 75 q 430 49 465 47 q 389 140 403 92 q 368 238 374 189 q 361 338 362 288 q 359 438 359 389 q 307 433 340 444 q 242 407 274 422 q 186 379 210 392 q 160 368 161 366 l 160 24 q 149 4 160 9 q 121 0 137 -1 q 92 8 106 1 q 73 24 77 15 l 73 345 m 271 689 q 229 668 247 689 q 200 618 212 647 q 183 559 189 590 q 178 507 178 528 q 214 507 189 507 q 267 511 240 507 q 313 527 293 515 q 334 563 334 538 q 331 598 334 576 q 321 640 328 620 q 302 675 315 661 q 271 689 290 689 m 115 817 q 90 873 91 844 q 102 932 88 903 q 144 983 117 960 q 207 1017 172 1005 q 279 1027 241 1029 q 351 1002 316 1024 q 408 921 403 970 q 361 826 412 872 q 307 793 339 806 q 239 777 274 780 q 170 783 203 774 q 115 817 137 792 m 331 895 q 250 931 297 930 q 168 899 203 932 q 247 859 203 860 q 331 895 290 857 z "},"Ã":{"ha":517,"x_min":-18,"x_max":519,"o":"m 73 345 q 52 374 61 350 q 35 431 42 397 q 24 503 28 464 q 16 581 19 543 q 12 650 14 618 q 11 701 11 682 q 16 722 11 715 q 38 738 20 730 q 70 704 57 726 q 91 658 83 682 q 104 609 99 633 q 111 566 109 585 q 155 706 118 640 q 258 811 193 772 q 331 772 302 804 q 377 695 359 741 q 403 594 395 650 q 415 484 411 538 q 421 378 419 429 q 430 294 423 328 q 461 197 445 247 q 481 96 477 148 q 473 61 481 75 q 430 49 465 47 q 389 140 403 92 q 368 238 374 189 q 361 338 362 288 q 359 438 359 389 q 307 433 340 444 q 242 407 274 422 q 186 379 210 392 q 160 368 161 366 l 160 24 q 149 4 160 9 q 121 0 137 -1 q 92 8 106 1 q 73 24 77 15 l 73 345 m 271 689 q 229 668 247 689 q 200 618 212 647 q 183 559 189 590 q 178 507 178 528 q 214 507 189 507 q 267 511 240 507 q 313 527 293 515 q 334 563 334 538 q 331 598 334 576 q 321 640 328 620 q 302 675 315 661 q 271 689 290 689 m 24 1042 q 33 991 26 1024 q 54 925 41 958 q 90 868 68 892 q 142 844 111 844 q 176 871 156 844 q 223 930 197 898 q 282 990 250 963 q 353 1017 315 1017 q 399 1004 369 1021 q 457 962 429 987 q 503 910 486 937 q 510 867 519 883 l 437 867 q 399 937 420 921 q 355 943 378 952 q 307 907 332 933 q 255 852 281 882 q 203 799 229 823 q 152 769 176 774 q 71 798 103 769 q 18 868 38 826 q -9 958 -1 910 q -18 1042 -18 1005 l 24 1042 z "},"Æ":{"ha":981,"x_min":11,"x_max":947,"o":"m 73 345 q 52 374 61 350 q 35 431 42 397 q 24 503 28 464 q 16 581 19 543 q 12 650 14 618 q 11 701 11 682 q 16 722 11 715 q 38 738 20 730 q 70 704 57 726 q 91 658 83 682 q 104 609 99 633 q 111 566 109 585 q 155 706 118 640 q 258 811 193 772 q 331 772 302 804 q 377 695 359 741 q 403 594 395 650 q 415 484 411 538 q 421 378 419 429 q 430 294 423 328 q 461 197 445 247 q 481 96 477 148 q 473 61 481 75 q 430 49 465 47 q 389 140 403 92 q 368 238 374 189 q 361 338 362 288 q 359 438 359 389 q 307 433 340 444 q 242 407 274 422 q 186 379 210 392 q 160 368 161 366 l 160 24 q 149 4 160 9 q 121 0 137 -1 q 92 8 106 1 q 73 24 77 15 l 73 345 m 271 689 q 229 668 247 689 q 200 618 212 647 q 183 559 189 590 q 178 507 178 528 q 214 507 189 507 q 267 511 240 507 q 313 527 293 515 q 334 563 334 538 q 331 598 334 576 q 321 640 328 620 q 302 675 315 661 q 271 689 290 689 m 430 302 q 406 298 419 298 q 382 302 393 298 q 362 315 370 307 q 354 338 354 324 q 370 387 354 361 q 404 425 385 412 l 404 659 q 530 677 467 659 q 657 715 594 694 q 783 753 720 735 q 909 770 846 770 q 928 758 916 770 q 947 743 940 745 q 886 696 928 718 q 793 656 845 674 q 685 621 741 637 q 584 589 629 605 q 509 557 538 574 q 479 522 479 541 q 491 479 479 487 q 525 472 503 472 q 580 480 553 472 q 632 498 606 488 q 684 517 658 509 q 738 525 711 525 q 764 513 753 525 q 776 486 776 500 q 755 439 776 456 q 705 412 735 423 q 639 394 674 401 q 573 374 604 387 q 522 343 543 362 q 502 290 502 324 q 506 235 502 260 q 521 192 510 210 q 551 163 532 174 q 602 152 571 152 q 665 172 632 149 q 729 227 699 194 q 785 294 760 259 q 822 351 810 328 l 872 302 q 861 284 872 301 q 836 243 850 267 q 804 195 821 220 q 774 153 787 170 q 739 114 760 136 q 693 74 718 92 q 642 43 669 56 q 589 30 614 30 q 511 61 541 30 q 464 136 481 92 q 439 225 446 179 q 430 302 433 271 z "},"Ǽ":{"ha":981,"x_min":11,"x_max":947,"o":"m 73 345 q 52 374 61 350 q 35 431 42 397 q 24 503 28 464 q 16 581 19 543 q 12 650 14 618 q 11 701 11 682 q 16 722 11 715 q 38 738 20 730 q 70 704 57 726 q 91 658 83 682 q 104 609 99 633 q 111 566 109 585 q 155 706 118 640 q 258 811 193 772 q 331 772 302 804 q 377 695 359 741 q 403 594 395 650 q 415 484 411 538 q 421 378 419 429 q 430 294 423 328 q 461 197 445 247 q 481 96 477 148 q 473 61 481 75 q 430 49 465 47 q 389 140 403 92 q 368 238 374 189 q 361 338 362 288 q 359 438 359 389 q 307 433 340 444 q 242 407 274 422 q 186 379 210 392 q 160 368 161 366 l 160 24 q 149 4 160 9 q 121 0 137 -1 q 92 8 106 1 q 73 24 77 15 l 73 345 m 271 689 q 229 668 247 689 q 200 618 212 647 q 183 559 189 590 q 178 507 178 528 q 214 507 189 507 q 267 511 240 507 q 313 527 293 515 q 334 563 334 538 q 331 598 334 576 q 321 640 328 620 q 302 675 315 661 q 271 689 290 689 m 430 302 q 406 298 419 298 q 382 302 393 298 q 362 315 370 307 q 354 338 354 324 q 370 387 354 361 q 404 425 385 412 l 404 659 q 530 677 467 659 q 657 715 594 694 q 783 753 720 735 q 909 770 846 770 q 928 758 916 770 q 947 743 940 745 q 886 696 928 718 q 793 656 845 674 q 685 621 741 637 q 584 589 629 605 q 509 557 538 574 q 479 522 479 541 q 491 479 479 487 q 525 472 503 472 q 580 480 553 472 q 632 498 606 488 q 684 517 658 509 q 738 525 711 525 q 764 513 753 525 q 776 486 776 500 q 755 439 776 456 q 705 412 735 423 q 639 394 674 401 q 573 374 604 387 q 522 343 543 362 q 502 290 502 324 q 506 235 502 260 q 521 192 510 210 q 551 163 532 174 q 602 152 571 152 q 665 172 632 149 q 729 227 699 194 q 785 294 760 259 q 822 351 810 328 l 872 302 q 861 284 872 301 q 836 243 850 267 q 804 195 821 220 q 774 153 787 170 q 739 114 760 136 q 693 74 718 92 q 642 43 669 56 q 589 30 614 30 q 511 61 541 30 q 464 136 481 92 q 439 225 446 179 q 430 302 433 271 m 567 947 q 507 842 532 879 q 467 789 483 804 q 443 777 452 774 q 429 789 434 779 q 420 812 423 799 q 412 831 416 825 q 442 880 431 864 q 463 909 453 897 q 486 938 473 922 q 524 983 499 954 l 567 947 z "},"Ć":{"ha":454,"x_min":20,"x_max":419,"o":"m 20 305 q 28 420 20 357 q 57 538 35 483 q 119 630 79 593 q 225 667 160 667 q 257 665 240 667 q 288 655 274 662 q 312 635 302 648 q 321 602 321 623 q 321 595 321 600 q 320 590 320 591 q 216 568 258 590 q 147 510 174 547 q 109 424 121 473 q 98 320 98 374 q 102 243 98 283 q 121 171 107 203 q 163 117 136 138 q 235 96 190 96 q 282 105 259 96 q 327 124 305 114 q 371 143 349 134 q 418 152 393 152 l 419 103 q 392 78 414 92 q 343 48 370 64 q 289 20 316 33 q 245 0 262 7 q 241 -1 244 -1 l 235 -1 q 132 27 174 -1 q 66 100 91 56 q 31 199 41 145 q 20 305 20 254 m 304 947 q 244 842 269 879 q 204 789 220 804 q 180 777 189 774 q 165 789 171 779 q 157 812 160 799 q 149 831 153 825 q 179 880 168 864 q 200 909 190 897 q 223 938 210 922 q 260 983 236 954 l 304 947 z "},"Č":{"ha":454,"x_min":20,"x_max":419,"o":"m 20 305 q 28 420 20 357 q 57 538 35 483 q 119 630 79 593 q 225 667 160 667 q 257 665 240 667 q 288 655 274 662 q 312 635 302 648 q 321 602 321 623 q 321 595 321 600 q 320 590 320 591 q 216 568 258 590 q 147 510 174 547 q 109 424 121 473 q 98 320 98 374 q 102 243 98 283 q 121 171 107 203 q 163 117 136 138 q 235 96 190 96 q 282 105 259 96 q 327 124 305 114 q 371 143 349 134 q 418 152 393 152 l 419 103 q 392 78 414 92 q 343 48 370 64 q 289 20 316 33 q 245 0 262 7 q 241 -1 244 -1 l 235 -1 q 132 27 174 -1 q 66 100 91 56 q 31 199 41 145 q 20 305 20 254 m 369 883 l 199 746 l 84 895 l 164 916 l 209 830 l 286 883 l 369 883 z "},"Ç":{"ha":454,"x_min":20,"x_max":419,"o":"m 20 305 q 28 420 20 357 q 57 538 35 483 q 119 630 79 593 q 225 667 160 667 q 257 665 240 667 q 288 655 274 662 q 312 635 302 648 q 321 602 321 623 q 321 595 321 600 q 320 590 320 591 q 216 568 258 590 q 147 510 174 547 q 109 424 121 473 q 98 320 98 374 q 102 243 98 283 q 121 171 107 203 q 163 117 136 138 q 235 96 190 96 q 282 105 259 96 q 327 124 305 114 q 371 143 349 134 q 418 152 393 152 l 419 103 q 392 78 414 92 q 343 48 370 64 q 289 20 316 33 q 245 0 262 7 q 241 -1 244 -1 l 235 -1 q 132 27 174 -1 q 66 100 91 56 q 31 199 41 145 q 20 305 20 254 m 214 -149 q 313 -157 289 -167 q 327 -126 338 -146 q 276 -84 316 -106 q 183 -56 236 -62 q 172 21 164 -1 q 197 43 180 43 q 230 26 214 43 q 241 -18 245 8 q 292 -33 262 -24 q 347 -55 321 -41 q 388 -94 373 -69 q 393 -156 403 -118 q 378 -189 393 -175 q 339 -212 362 -203 q 290 -225 316 -221 q 244 -229 264 -229 q 206 -212 218 -224 q 192 -186 194 -199 q 196 -163 190 -174 q 214 -149 202 -152 z "},"Ĉ":{"ha":454,"x_min":-19,"x_max":463,"o":"m 20 305 q 28 420 20 357 q 57 538 35 483 q 119 630 79 593 q 225 667 160 667 q 257 665 240 667 q 288 655 274 662 q 312 635 302 648 q 321 602 321 623 q 321 595 321 600 q 320 590 320 591 q 216 568 258 590 q 147 510 174 547 q 109 424 121 473 q 98 320 98 374 q 102 243 98 283 q 121 171 107 203 q 163 117 136 138 q 235 96 190 96 q 282 105 259 96 q 327 124 305 114 q 371 143 349 134 q 418 152 393 152 l 419 103 q 392 78 414 92 q 343 48 370 64 q 289 20 316 33 q 245 0 262 7 q 241 -1 244 -1 l 235 -1 q 132 27 174 -1 q 66 100 91 56 q 31 199 41 145 q 20 305 20 254 m -18 823 q 61 948 3 886 q 214 1046 119 1010 q 256 1019 231 1039 q 309 974 281 1000 q 366 918 338 948 q 416 861 395 888 q 450 812 438 834 q 458 780 463 791 l 389 780 l 216 955 q 154 918 179 936 q 112 878 129 899 q 83 829 95 856 q 58 764 71 802 q 43 743 52 749 q 22 736 35 736 q -5 746 3 736 q -16 769 -14 755 q -18 798 -19 783 q -18 823 -18 812 z "},"Ċ":{"ha":454,"x_min":20,"x_max":419,"o":"m 20 305 q 28 420 20 357 q 57 538 35 483 q 119 630 79 593 q 225 667 160 667 q 257 665 240 667 q 288 655 274 662 q 312 635 302 648 q 321 602 321 623 q 321 595 321 600 q 320 590 320 591 q 216 568 258 590 q 147 510 174 547 q 109 424 121 473 q 98 320 98 374 q 102 243 98 283 q 121 171 107 203 q 163 117 136 138 q 235 96 190 96 q 282 105 259 96 q 327 124 305 114 q 371 143 349 134 q 418 152 393 152 l 419 103 q 392 78 414 92 q 343 48 370 64 q 289 20 316 33 q 245 0 262 7 q 241 -1 244 -1 l 235 -1 q 132 27 174 -1 q 66 100 91 56 q 31 199 41 145 q 20 305 20 254 m 171 880 q 184 924 171 914 q 231 939 198 935 q 252 934 243 940 q 269 918 262 928 q 279 899 275 909 q 283 883 283 888 q 273 837 283 854 q 222 819 262 819 q 182 837 193 819 q 171 880 171 854 z "},"Ď":{"ha":578,"x_min":23,"x_max":543,"o":"m 148 24 q 126 179 137 113 q 102 304 115 245 q 69 421 88 362 q 23 553 50 480 q 47 595 23 582 q 102 612 71 608 q 168 616 134 617 q 222 616 202 616 q 334 593 277 616 q 437 533 391 571 q 513 444 483 495 q 543 335 543 393 q 530 246 543 300 q 495 143 518 193 q 437 58 472 94 q 357 23 403 23 q 327 24 343 23 q 297 31 311 26 q 275 45 283 35 q 266 73 266 56 q 281 94 266 83 q 318 122 296 106 q 367 159 340 138 q 416 205 393 179 q 453 262 438 231 q 468 334 468 294 q 448 412 468 378 q 397 470 429 446 q 325 506 365 494 q 244 518 285 518 q 220 518 236 518 q 188 515 203 518 q 160 504 172 511 q 148 481 148 496 q 160 358 148 419 q 188 237 172 297 q 216 116 203 176 q 228 -7 228 56 q 208 -6 220 -7 q 183 -3 195 -5 q 161 6 171 0 q 148 24 152 12 m 431 883 l 262 746 l 146 895 l 227 916 l 271 830 l 349 883 l 431 883 z "},"Đ":{"ha":578,"x_min":-58,"x_max":543,"o":"m 148 24 q 126 179 137 113 q 102 304 115 245 q 69 421 88 362 q 23 553 50 480 q 47 595 23 582 q 102 612 71 608 q 168 616 134 617 q 222 616 202 616 q 334 593 277 616 q 437 533 391 571 q 513 444 483 495 q 543 335 543 393 q 530 246 543 300 q 495 143 518 193 q 437 58 472 94 q 357 23 403 23 q 327 24 343 23 q 297 31 311 26 q 275 45 283 35 q 266 73 266 56 q 281 94 266 83 q 318 122 296 106 q 367 159 340 138 q 416 205 393 179 q 453 262 438 231 q 468 334 468 294 q 448 412 468 378 q 397 470 429 446 q 325 506 365 494 q 244 518 285 518 q 220 518 236 518 q 188 515 203 518 q 160 504 172 511 q 148 481 148 496 q 160 358 148 419 q 188 237 172 297 q 216 116 203 176 q 228 -7 228 56 q 208 -6 220 -7 q 183 -3 195 -5 q 161 6 171 0 q 148 24 152 12 m -24 218 q -50 237 -42 226 q -58 259 -58 247 q -53 281 -58 271 q -41 298 -48 291 q 30 313 -12 308 q 116 318 72 318 q 203 318 161 319 q 274 316 245 316 q 307 302 297 315 q 316 275 317 290 q 305 249 315 261 q 276 239 295 238 l -24 218 z "},"É":{"ha":639,"x_min":23,"x_max":616,"o":"m 99 271 q 75 267 88 267 q 51 271 62 267 q 31 284 39 275 q 23 307 23 293 q 39 355 23 330 q 73 393 54 381 l 73 628 q 199 646 136 628 q 326 684 263 663 q 452 722 389 704 q 578 739 515 739 q 597 726 585 739 q 616 712 609 713 q 555 665 597 686 q 462 625 514 643 q 354 590 410 606 q 253 558 298 574 q 178 526 208 543 q 148 491 148 510 q 160 448 148 456 q 194 441 172 441 q 249 449 222 441 q 301 467 275 457 q 353 486 327 477 q 407 494 380 494 q 433 481 422 494 q 445 454 445 469 q 425 408 445 425 q 374 381 404 392 q 308 363 343 370 q 242 343 273 355 q 191 312 212 331 q 171 259 171 293 q 175 204 171 229 q 190 161 179 179 q 220 132 201 142 q 271 121 240 121 q 334 140 301 118 q 398 195 368 163 q 454 262 429 228 q 491 320 479 297 l 541 271 q 530 253 541 270 q 505 212 519 236 q 473 163 490 189 q 444 122 456 138 q 408 83 429 104 q 362 43 387 61 q 311 12 338 24 q 258 -1 283 -1 q 180 30 210 -1 q 133 104 151 61 q 109 194 115 148 q 99 271 102 240 m 396 947 q 336 842 361 879 q 296 789 312 804 q 272 777 281 774 q 258 789 263 779 q 249 812 252 799 q 241 831 245 825 q 271 880 260 864 q 292 909 282 897 q 315 938 302 922 q 353 983 328 954 l 396 947 z "},"Ĕ":{"ha":639,"x_min":23,"x_max":616,"o":"m 99 271 q 75 267 88 267 q 51 271 62 267 q 31 284 39 275 q 23 307 23 293 q 39 355 23 330 q 73 393 54 381 l 73 628 q 199 646 136 628 q 326 684 263 663 q 452 722 389 704 q 578 739 515 739 q 597 726 585 739 q 616 712 609 713 q 555 665 597 686 q 462 625 514 643 q 354 590 410 606 q 253 558 298 574 q 178 526 208 543 q 148 491 148 510 q 160 448 148 456 q 194 441 172 441 q 249 449 222 441 q 301 467 275 457 q 353 486 327 477 q 407 494 380 494 q 433 481 422 494 q 445 454 445 469 q 425 408 445 425 q 374 381 404 392 q 308 363 343 370 q 242 343 273 355 q 191 312 212 331 q 171 259 171 293 q 175 204 171 229 q 190 161 179 179 q 220 132 201 142 q 271 121 240 121 q 334 140 301 118 q 398 195 368 163 q 454 262 429 228 q 491 320 479 297 l 541 271 q 530 253 541 270 q 505 212 519 236 q 473 163 490 189 q 444 122 456 138 q 408 83 429 104 q 362 43 387 61 q 311 12 338 24 q 258 -1 283 -1 q 180 30 210 -1 q 133 104 151 61 q 109 194 115 148 q 99 271 102 240 m 461 883 q 416 813 453 845 q 333 773 378 781 q 243 791 288 765 q 176 895 199 817 l 256 916 q 265 855 251 876 q 301 830 279 834 q 345 840 323 826 q 378 883 368 853 l 461 883 z "},"Ě":{"ha":639,"x_min":23,"x_max":616,"o":"m 99 271 q 75 267 88 267 q 51 271 62 267 q 31 284 39 275 q 23 307 23 293 q 39 355 23 330 q 73 393 54 381 l 73 628 q 199 646 136 628 q 326 684 263 663 q 452 722 389 704 q 578 739 515 739 q 597 726 585 739 q 616 712 609 713 q 555 665 597 686 q 462 625 514 643 q 354 590 410 606 q 253 558 298 574 q 178 526 208 543 q 148 491 148 510 q 160 448 148 456 q 194 441 172 441 q 249 449 222 441 q 301 467 275 457 q 353 486 327 477 q 407 494 380 494 q 433 481 422 494 q 445 454 445 469 q 425 408 445 425 q 374 381 404 392 q 308 363 343 370 q 242 343 273 355 q 191 312 212 331 q 171 259 171 293 q 175 204 171 229 q 190 161 179 179 q 220 132 201 142 q 271 121 240 121 q 334 140 301 118 q 398 195 368 163 q 454 262 429 228 q 491 320 479 297 l 541 271 q 530 253 541 270 q 505 212 519 236 q 473 163 490 189 q 444 122 456 138 q 408 83 429 104 q 362 43 387 61 q 311 12 338 24 q 258 -1 283 -1 q 180 30 210 -1 q 133 104 151 61 q 109 194 115 148 q 99 271 102 240 m 461 883 l 292 746 l 176 895 l 256 916 l 301 830 l 378 883 l 461 883 z "},"Ê":{"ha":639,"x_min":23,"x_max":616,"o":"m 99 271 q 75 267 88 267 q 51 271 62 267 q 31 284 39 275 q 23 307 23 293 q 39 355 23 330 q 73 393 54 381 l 73 628 q 199 646 136 628 q 326 684 263 663 q 452 722 389 704 q 578 739 515 739 q 597 726 585 739 q 616 712 609 713 q 555 665 597 686 q 462 625 514 643 q 354 590 410 606 q 253 558 298 574 q 178 526 208 543 q 148 491 148 510 q 160 448 148 456 q 194 441 172 441 q 249 449 222 441 q 301 467 275 457 q 353 486 327 477 q 407 494 380 494 q 433 481 422 494 q 445 454 445 469 q 425 408 445 425 q 374 381 404 392 q 308 363 343 370 q 242 343 273 355 q 191 312 212 331 q 171 259 171 293 q 175 204 171 229 q 190 161 179 179 q 220 132 201 142 q 271 121 240 121 q 334 140 301 118 q 398 195 368 163 q 454 262 429 228 q 491 320 479 297 l 541 271 q 530 253 541 270 q 505 212 519 236 q 473 163 490 189 q 444 122 456 138 q 408 83 429 104 q 362 43 387 61 q 311 12 338 24 q 258 -1 283 -1 q 180 30 210 -1 q 133 104 151 61 q 109 194 115 148 q 99 271 102 240 m 77 868 q 156 993 98 930 q 309 1090 214 1055 q 351 1064 326 1084 q 404 1019 376 1044 q 461 963 433 993 q 511 906 490 933 q 545 857 533 879 q 553 825 557 836 l 484 825 l 311 1000 q 249 962 274 981 q 207 922 224 944 q 178 873 190 901 q 153 808 165 846 q 138 787 146 793 q 117 781 130 781 q 90 791 98 781 q 79 814 81 800 q 77 842 76 827 q 77 868 77 857 z "},"Ë":{"ha":639,"x_min":23,"x_max":616,"o":"m 99 271 q 75 267 88 267 q 51 271 62 267 q 31 284 39 275 q 23 307 23 293 q 39 355 23 330 q 73 393 54 381 l 73 628 q 199 646 136 628 q 326 684 263 663 q 452 722 389 704 q 578 739 515 739 q 597 726 585 739 q 616 712 609 713 q 555 665 597 686 q 462 625 514 643 q 354 590 410 606 q 253 558 298 574 q 178 526 208 543 q 148 491 148 510 q 160 448 148 456 q 194 441 172 441 q 249 449 222 441 q 301 467 275 457 q 353 486 327 477 q 407 494 380 494 q 433 481 422 494 q 445 454 445 469 q 425 408 445 425 q 374 381 404 392 q 308 363 343 370 q 242 343 273 355 q 191 312 212 331 q 171 259 171 293 q 175 204 171 229 q 190 161 179 179 q 220 132 201 142 q 271 121 240 121 q 334 140 301 118 q 398 195 368 163 q 454 262 429 228 q 491 320 479 297 l 541 271 q 530 253 541 270 q 505 212 519 236 q 473 163 490 189 q 444 122 456 138 q 408 83 429 104 q 362 43 387 61 q 311 12 338 24 q 258 -1 283 -1 q 180 30 210 -1 q 133 104 151 61 q 109 194 115 148 q 99 271 102 240 m 136 865 q 155 911 138 892 q 213 936 171 930 q 263 859 259 924 q 246 808 263 822 q 194 795 229 795 q 145 816 155 795 q 136 865 136 837 m 376 865 q 395 911 378 892 q 453 936 411 930 q 503 859 499 924 q 486 808 503 822 q 434 795 469 795 q 385 816 395 795 q 376 865 376 837 z "},"Ė":{"ha":639,"x_min":23,"x_max":616,"o":"m 99 271 q 75 267 88 267 q 51 271 62 267 q 31 284 39 275 q 23 307 23 293 q 39 355 23 330 q 73 393 54 381 l 73 628 q 199 646 136 628 q 326 684 263 663 q 452 722 389 704 q 578 739 515 739 q 597 726 585 739 q 616 712 609 713 q 555 665 597 686 q 462 625 514 643 q 354 590 410 606 q 253 558 298 574 q 178 526 208 543 q 148 491 148 510 q 160 448 148 456 q 194 441 172 441 q 249 449 222 441 q 301 467 275 457 q 353 486 327 477 q 407 494 380 494 q 433 481 422 494 q 445 454 445 469 q 425 408 445 425 q 374 381 404 392 q 308 363 343 370 q 242 343 273 355 q 191 312 212 331 q 171 259 171 293 q 175 204 171 229 q 190 161 179 179 q 220 132 201 142 q 271 121 240 121 q 334 140 301 118 q 398 195 368 163 q 454 262 429 228 q 491 320 479 297 l 541 271 q 530 253 541 270 q 505 212 519 236 q 473 163 490 189 q 444 122 456 138 q 408 83 429 104 q 362 43 387 61 q 311 12 338 24 q 258 -1 283 -1 q 180 30 210 -1 q 133 104 151 61 q 109 194 115 148 q 99 271 102 240 m 263 880 q 277 924 263 914 q 323 939 290 935 q 345 934 335 940 q 361 918 354 928 q 372 899 368 909 q 376 883 376 888 q 365 837 376 854 q 315 819 354 819 q 274 837 285 819 q 263 880 263 854 z "},"È":{"ha":639,"x_min":23,"x_max":616,"o":"m 99 271 q 75 267 88 267 q 51 271 62 267 q 31 284 39 275 q 23 307 23 293 q 39 355 23 330 q 73 393 54 381 l 73 628 q 199 646 136 628 q 326 684 263 663 q 452 722 389 704 q 578 739 515 739 q 597 726 585 739 q 616 712 609 713 q 555 665 597 686 q 462 625 514 643 q 354 590 410 606 q 253 558 298 574 q 178 526 208 543 q 148 491 148 510 q 160 448 148 456 q 194 441 172 441 q 249 449 222 441 q 301 467 275 457 q 353 486 327 477 q 407 494 380 494 q 433 481 422 494 q 445 454 445 469 q 425 408 445 425 q 374 381 404 392 q 308 363 343 370 q 242 343 273 355 q 191 312 212 331 q 171 259 171 293 q 175 204 171 229 q 190 161 179 179 q 220 132 201 142 q 271 121 240 121 q 334 140 301 118 q 398 195 368 163 q 454 262 429 228 q 491 320 479 297 l 541 271 q 530 253 541 270 q 505 212 519 236 q 473 163 490 189 q 444 122 456 138 q 408 83 429 104 q 362 43 387 61 q 311 12 338 24 q 258 -1 283 -1 q 180 30 210 -1 q 133 104 151 61 q 109 194 115 148 q 99 271 102 240 m 290 981 q 322 935 311 949 q 342 906 334 920 q 361 876 351 892 q 387 826 370 859 q 380 806 382 819 q 372 783 377 793 q 360 771 368 773 q 339 784 353 769 q 304 837 326 799 q 252 944 283 875 l 290 981 z "},"Ē":{"ha":639,"x_min":23,"x_max":616,"o":"m 99 271 q 75 267 88 267 q 51 271 62 267 q 31 284 39 275 q 23 307 23 293 q 39 355 23 330 q 73 393 54 381 l 73 628 q 199 646 136 628 q 326 684 263 663 q 452 722 389 704 q 578 739 515 739 q 597 726 585 739 q 616 712 609 713 q 555 665 597 686 q 462 625 514 643 q 354 590 410 606 q 253 558 298 574 q 178 526 208 543 q 148 491 148 510 q 160 448 148 456 q 194 441 172 441 q 249 449 222 441 q 301 467 275 457 q 353 486 327 477 q 407 494 380 494 q 433 481 422 494 q 445 454 445 469 q 425 408 445 425 q 374 381 404 392 q 308 363 343 370 q 242 343 273 355 q 191 312 212 331 q 171 259 171 293 q 175 204 171 229 q 190 161 179 179 q 220 132 201 142 q 271 121 240 121 q 334 140 301 118 q 398 195 368 163 q 454 262 429 228 q 491 320 479 297 l 541 271 q 530 253 541 270 q 505 212 519 236 q 473 163 490 189 q 444 122 456 138 q 408 83 429 104 q 362 43 387 61 q 311 12 338 24 q 258 -1 283 -1 q 180 30 210 -1 q 133 104 151 61 q 109 194 115 148 q 99 271 102 240 m 103 768 q 68 787 79 776 q 57 810 57 798 q 64 832 57 822 q 80 849 71 842 q 178 865 121 860 q 298 870 236 869 q 418 869 359 871 q 517 868 476 868 q 562 854 548 867 q 575 826 576 841 q 559 800 574 811 q 519 789 545 788 l 103 768 z "},"Ę":{"ha":639,"x_min":23,"x_max":616,"o":"m 99 271 q 75 267 88 267 q 51 271 62 267 q 31 284 39 275 q 23 307 23 293 q 39 355 23 330 q 73 393 54 381 l 73 628 q 199 646 136 628 q 326 684 263 663 q 452 722 389 704 q 578 739 515 739 q 597 726 585 739 q 616 712 609 713 q 555 665 597 686 q 462 625 514 643 q 354 590 410 606 q 253 558 298 574 q 178 526 208 543 q 148 491 148 510 q 160 448 148 456 q 194 441 172 441 q 249 449 222 441 q 301 467 275 457 q 353 486 327 477 q 407 494 380 494 q 433 481 422 494 q 445 454 445 469 q 425 408 445 425 q 374 381 404 392 q 308 363 343 370 q 242 343 273 355 q 191 312 212 331 q 171 259 171 293 q 175 204 171 229 q 190 161 179 179 q 220 132 201 142 q 271 121 240 121 q 334 140 301 118 q 398 195 368 163 q 454 262 429 228 q 491 320 479 297 l 541 271 q 530 253 541 270 q 505 212 519 236 q 473 163 490 189 q 444 122 456 138 q 408 83 429 104 q 362 43 387 61 q 311 12 338 24 q 258 -1 283 -1 q 180 30 210 -1 q 133 104 151 61 q 109 194 115 148 q 99 271 102 240 m 575 -16 q 505 -54 540 -46 q 441 -55 471 -62 q 391 -28 412 -47 q 360 18 370 -8 q 353 73 350 43 q 378 129 357 102 q 418 149 397 152 q 450 126 439 145 q 429 62 434 90 q 431 20 423 34 q 463 6 439 5 q 526 27 486 7 l 575 -16 z "},"Ğ":{"ha":639,"x_min":37,"x_max":629,"o":"m 37 431 q 44 491 37 452 q 66 569 52 530 q 101 636 80 608 q 149 665 122 665 q 176 655 163 665 q 199 632 190 646 q 215 602 209 618 q 221 572 221 586 q 165 554 187 572 q 132 508 144 536 q 115 449 119 480 q 110 392 110 418 q 133 235 109 296 q 197 145 157 174 q 286 117 236 117 q 386 144 336 118 q 481 218 435 170 q 556 332 526 266 q 541 361 556 353 q 506 369 525 369 q 464 361 484 369 q 423 343 444 353 q 384 326 403 334 q 345 317 365 317 q 314 334 321 317 q 307 368 307 350 q 332 422 307 401 q 392 452 357 442 q 466 465 427 463 q 532 468 505 468 q 566 457 549 468 q 597 429 583 446 q 621 393 612 412 q 629 357 629 373 q 610 271 629 315 q 557 188 590 228 q 481 113 524 148 q 394 54 439 79 q 304 14 349 28 q 221 -1 259 -1 q 164 26 190 -1 q 118 94 138 53 q 83 186 98 136 q 58 286 68 237 q 42 373 47 334 q 37 431 37 412 m 461 883 q 416 813 453 845 q 333 773 378 781 q 243 791 288 765 q 176 895 199 817 l 256 916 q 265 855 251 876 q 301 830 279 834 q 345 840 323 826 q 378 883 368 853 l 461 883 z "},"Ĝ":{"ha":639,"x_min":37,"x_max":629,"o":"m 37 431 q 44 491 37 452 q 66 569 52 530 q 101 636 80 608 q 149 665 122 665 q 176 655 163 665 q 199 632 190 646 q 215 602 209 618 q 221 572 221 586 q 165 554 187 572 q 132 508 144 536 q 115 449 119 480 q 110 392 110 418 q 133 235 109 296 q 197 145 157 174 q 286 117 236 117 q 386 144 336 118 q 481 218 435 170 q 556 332 526 266 q 541 361 556 353 q 506 369 525 369 q 464 361 484 369 q 423 343 444 353 q 384 326 403 334 q 345 317 365 317 q 314 334 321 317 q 307 368 307 350 q 332 422 307 401 q 392 452 357 442 q 466 465 427 463 q 532 468 505 468 q 566 457 549 468 q 597 429 583 446 q 621 393 612 412 q 629 357 629 373 q 610 271 629 315 q 557 188 590 228 q 481 113 524 148 q 394 54 439 79 q 304 14 349 28 q 221 -1 259 -1 q 164 26 190 -1 q 118 94 138 53 q 83 186 98 136 q 58 286 68 237 q 42 373 47 334 q 37 431 37 412 m 77 868 q 156 993 98 930 q 309 1090 214 1055 q 351 1064 326 1084 q 404 1019 376 1044 q 461 963 433 993 q 511 906 490 933 q 545 857 533 879 q 553 825 557 836 l 484 825 l 311 1000 q 249 962 274 981 q 207 922 224 944 q 178 873 190 901 q 153 808 165 846 q 138 787 146 793 q 117 781 130 781 q 90 791 98 781 q 79 814 81 800 q 77 842 76 827 q 77 868 77 857 z "},"Ģ":{"ha":639,"x_min":37,"x_max":629,"o":"m 37 431 q 44 491 37 452 q 66 569 52 530 q 101 636 80 608 q 149 665 122 665 q 176 655 163 665 q 199 632 190 646 q 215 602 209 618 q 221 572 221 586 q 165 554 187 572 q 132 508 144 536 q 115 449 119 480 q 110 392 110 418 q 133 235 109 296 q 197 145 157 174 q 286 117 236 117 q 386 144 336 118 q 481 218 435 170 q 556 332 526 266 q 541 361 556 353 q 506 369 525 369 q 464 361 484 369 q 423 343 444 353 q 384 326 403 334 q 345 317 365 317 q 314 334 321 317 q 307 368 307 350 q 332 422 307 401 q 392 452 357 442 q 466 465 427 463 q 532 468 505 468 q 566 457 549 468 q 597 429 583 446 q 621 393 612 412 q 629 357 629 373 q 610 271 629 315 q 557 188 590 228 q 481 113 524 148 q 394 54 439 79 q 304 14 349 28 q 221 -1 259 -1 q 164 26 190 -1 q 118 94 138 53 q 83 186 98 136 q 58 286 68 237 q 42 373 47 334 q 37 431 37 412 m 254 -281 q 258 -243 254 -269 q 269 -189 262 -218 q 288 -130 277 -160 q 311 -77 298 -100 q 340 -41 324 -53 q 373 -34 355 -28 q 373 -118 373 -65 q 367 -221 373 -171 q 343 -308 361 -271 q 292 -345 326 -345 q 273 -338 281 -345 q 262 -321 266 -331 q 256 -300 258 -312 q 254 -281 254 -289 z "},"Ġ":{"ha":639,"x_min":37,"x_max":629,"o":"m 37 431 q 44 491 37 452 q 66 569 52 530 q 101 636 80 608 q 149 665 122 665 q 176 655 163 665 q 199 632 190 646 q 215 602 209 618 q 221 572 221 586 q 165 554 187 572 q 132 508 144 536 q 115 449 119 480 q 110 392 110 418 q 133 235 109 296 q 197 145 157 174 q 286 117 236 117 q 386 144 336 118 q 481 218 435 170 q 556 332 526 266 q 541 361 556 353 q 506 369 525 369 q 464 361 484 369 q 423 343 444 353 q 384 326 403 334 q 345 317 365 317 q 314 334 321 317 q 307 368 307 350 q 332 422 307 401 q 392 452 357 442 q 466 465 427 463 q 532 468 505 468 q 566 457 549 468 q 597 429 583 446 q 621 393 612 412 q 629 357 629 373 q 610 271 629 315 q 557 188 590 228 q 481 113 524 148 q 394 54 439 79 q 304 14 349 28 q 221 -1 259 -1 q 164 26 190 -1 q 118 94 138 53 q 83 186 98 136 q 58 286 68 237 q 42 373 47 334 q 37 431 37 412 m 263 880 q 277 924 263 914 q 323 939 290 935 q 345 934 335 940 q 361 918 354 928 q 372 899 368 909 q 376 883 376 888 q 365 837 376 854 q 315 819 354 819 q 274 837 285 819 q 263 880 263 854 z "},"Ħ":{"ha":663,"x_min":27,"x_max":644,"o":"m 73 197 q 71 255 76 218 q 57 336 65 292 q 41 427 49 380 q 31 515 34 473 q 31 590 27 557 q 50 639 34 623 q 76 644 68 650 q 90 623 84 639 q 98 586 95 608 q 107 544 102 564 q 123 508 113 524 q 155 488 134 492 q 242 490 197 488 q 332 500 288 492 q 418 524 377 509 q 491 566 458 538 q 467 678 477 618 q 476 697 467 686 q 498 716 486 708 q 524 726 511 724 q 541 716 536 728 q 588 550 575 644 q 607 359 601 456 q 618 172 613 262 q 644 16 624 81 q 637 5 644 12 q 618 -5 631 -1 q 587 -5 605 -8 q 547 16 570 -1 q 545 56 547 28 q 540 119 543 84 q 534 193 537 155 q 527 267 530 232 q 521 329 524 302 q 517 368 518 355 q 512 412 514 396 q 505 435 510 427 q 489 444 499 442 q 460 445 479 445 q 414 441 444 445 q 351 431 385 437 q 280 416 316 425 q 215 399 244 408 q 167 382 186 391 q 148 368 148 374 q 166 229 160 282 q 174 143 172 175 q 176 96 176 111 q 175 73 175 81 q 176 55 175 66 q 174 32 176 43 q 166 12 172 20 q 148 0 160 3 q 105 35 119 12 q 85 86 91 58 q 78 143 79 114 q 73 197 77 172 m 85 600 q 50 618 61 608 q 39 642 39 629 q 46 664 39 654 q 62 681 53 674 q 161 696 103 692 q 280 702 218 701 q 400 701 342 703 q 499 700 458 700 q 545 686 530 699 q 557 658 559 673 q 542 631 556 643 q 502 621 528 620 l 85 600 z "},"Ĥ":{"ha":663,"x_min":27,"x_max":644,"o":"m 73 197 q 71 255 76 218 q 57 336 65 292 q 41 427 49 380 q 31 515 34 473 q 31 590 27 557 q 50 639 34 623 q 76 644 68 650 q 90 623 84 639 q 98 586 95 608 q 107 544 102 564 q 123 508 113 524 q 155 488 134 492 q 242 490 197 488 q 332 500 288 492 q 418 524 377 509 q 491 566 458 538 q 467 678 477 618 q 476 697 467 686 q 498 716 486 708 q 524 726 511 724 q 541 716 536 728 q 588 550 575 644 q 607 359 601 456 q 618 172 613 262 q 644 16 624 81 q 637 5 644 12 q 618 -5 631 -1 q 587 -5 605 -8 q 547 16 570 -1 q 545 56 547 28 q 540 119 543 84 q 534 193 537 155 q 527 267 530 232 q 521 329 524 302 q 517 368 518 355 q 512 412 514 396 q 505 435 510 427 q 489 444 499 442 q 460 445 479 445 q 414 441 444 445 q 351 431 385 437 q 280 416 316 425 q 215 399 244 408 q 167 382 186 391 q 148 368 148 374 q 166 229 160 282 q 174 143 172 175 q 176 96 176 111 q 175 73 175 81 q 176 55 175 66 q 174 32 176 43 q 166 12 172 20 q 148 0 160 3 q 105 35 119 12 q 85 86 91 58 q 78 143 79 114 q 73 197 77 172 m 90 868 q 168 993 110 930 q 321 1090 227 1055 q 363 1064 338 1084 q 416 1019 388 1044 q 473 963 445 993 q 524 906 502 933 q 557 857 545 879 q 566 825 570 836 l 496 825 l 323 1000 q 261 962 286 981 q 219 922 236 944 q 190 873 202 901 q 165 808 178 846 q 151 787 159 793 q 129 781 142 781 q 102 791 110 781 q 91 814 94 800 q 89 842 88 827 q 90 868 90 857 z "},"Ĭ":{"ha":233,"x_min":-24,"x_max":260,"o":"m 95 3 q 93 47 95 16 q 89 116 91 77 q 85 198 87 155 q 81 280 83 241 q 77 349 79 319 q 73 393 75 380 q 62 448 71 420 q 45 504 54 476 q 30 560 37 532 q 23 616 23 589 q 31 650 23 635 q 62 665 39 665 q 106 589 88 643 q 138 468 125 536 q 158 326 151 400 q 170 187 165 251 q 174 78 174 123 q 175 22 175 33 q 159 18 171 22 q 133 9 146 14 q 108 3 119 5 q 95 3 96 0 m 260 883 q 215 813 252 845 q 132 773 178 781 q 43 791 87 765 q -24 895 -1 817 l 56 916 q 64 855 50 876 q 100 830 79 834 q 144 840 122 826 q 178 883 167 853 l 260 883 z "},"Î":{"ha":233,"x_min":-125,"x_max":357,"o":"m 95 3 q 93 47 95 16 q 89 116 91 77 q 85 198 87 155 q 81 280 83 241 q 77 349 79 319 q 73 393 75 380 q 62 448 71 420 q 45 504 54 476 q 30 560 37 532 q 23 616 23 589 q 31 650 23 635 q 62 665 39 665 q 106 589 88 643 q 138 468 125 536 q 158 326 151 400 q 170 187 165 251 q 174 78 174 123 q 175 22 175 33 q 159 18 171 22 q 133 9 146 14 q 108 3 119 5 q 95 3 96 0 m -123 868 q -45 993 -103 930 q 109 1090 14 1055 q 150 1064 125 1084 q 203 1019 175 1044 q 260 963 232 993 q 311 906 289 933 q 345 857 332 879 q 353 825 357 836 l 283 825 l 110 1000 q 48 962 73 981 q 6 922 23 944 q -23 873 -11 901 q -47 808 -35 846 q -62 787 -54 793 q -84 781 -71 781 q -111 791 -103 781 q -122 814 -119 800 q -124 842 -125 827 q -123 868 -123 857 z "},"Í":{"ha":233,"x_min":23,"x_max":194,"o":"m 95 3 q 93 47 95 16 q 89 116 91 77 q 85 198 87 155 q 81 280 83 241 q 77 349 79 319 q 73 393 75 380 q 62 448 71 420 q 45 504 54 476 q 30 560 37 532 q 23 616 23 589 q 31 650 23 635 q 62 665 39 665 q 106 589 88 643 q 138 468 125 536 q 158 326 151 400 q 170 187 165 251 q 174 78 174 123 q 175 22 175 33 q 159 18 171 22 q 133 9 146 14 q 108 3 119 5 q 95 3 96 0 m 194 947 q 134 842 159 879 q 94 789 110 804 q 70 777 79 774 q 56 789 61 779 q 47 812 50 799 q 39 831 43 825 q 69 880 58 864 q 90 909 80 897 q 113 938 100 922 q 151 983 126 954 l 194 947 z "},"Ï":{"ha":233,"x_min":-65,"x_max":302,"o":"m 95 3 q 93 47 95 16 q 89 116 91 77 q 85 198 87 155 q 81 280 83 241 q 77 349 79 319 q 73 393 75 380 q 62 448 71 420 q 45 504 54 476 q 30 560 37 532 q 23 616 23 589 q 31 650 23 635 q 62 665 39 665 q 106 589 88 643 q 138 468 125 536 q 158 326 151 400 q 170 187 165 251 q 174 78 174 123 q 175 22 175 33 q 159 18 171 22 q 133 9 146 14 q 108 3 119 5 q 95 3 96 0 m -65 865 q -46 911 -62 892 q 12 936 -30 930 q 62 859 58 924 q 45 808 62 822 q -7 795 28 795 q -56 816 -46 795 q -65 865 -65 837 m 175 865 q 194 911 178 892 q 252 936 210 930 q 302 859 298 924 q 286 808 302 822 q 233 795 269 795 q 184 816 194 795 q 175 865 175 837 z "},"Ì":{"ha":233,"x_min":23,"x_max":183,"o":"m 95 3 q 93 47 95 16 q 89 116 91 77 q 85 198 87 155 q 81 280 83 241 q 77 349 79 319 q 73 393 75 380 q 62 448 71 420 q 45 504 54 476 q 30 560 37 532 q 23 616 23 589 q 31 650 23 635 q 62 665 39 665 q 106 589 88 643 q 138 468 125 536 q 158 326 151 400 q 170 187 165 251 q 174 78 174 123 q 175 22 175 33 q 159 18 171 22 q 133 9 146 14 q 108 3 119 5 q 95 3 96 0 m 87 981 q 119 935 107 949 q 139 906 130 920 q 157 876 148 892 q 183 826 167 859 q 176 806 179 819 q 169 783 174 793 q 157 771 164 773 q 136 784 149 769 q 101 837 122 799 q 49 944 80 875 l 87 981 z "},"İ":{"ha":233,"x_min":23,"x_max":175,"o":"m 95 3 q 93 47 95 16 q 89 116 91 77 q 85 198 87 155 q 81 280 83 241 q 77 349 79 319 q 73 393 75 380 q 62 448 71 420 q 45 504 54 476 q 30 560 37 532 q 23 616 23 589 q 31 650 23 635 q 62 665 39 665 q 106 589 88 643 q 138 468 125 536 q 158 326 151 400 q 170 187 165 251 q 174 78 174 123 q 175 22 175 33 q 159 18 171 22 q 133 9 146 14 q 108 3 119 5 q 95 3 96 0 m 60 880 q 73 924 60 914 q 119 939 87 935 q 141 934 132 940 q 157 918 151 928 q 168 899 164 909 q 172 883 172 888 q 161 837 172 854 q 111 819 151 819 q 71 837 81 819 q 60 880 60 854 z "},"Į":{"ha":233,"x_min":23,"x_max":269,"o":"m 95 3 q 93 47 95 16 q 89 116 91 77 q 85 198 87 155 q 81 280 83 241 q 77 349 79 319 q 73 393 75 380 q 62 448 71 420 q 45 504 54 476 q 30 560 37 532 q 23 616 23 589 q 31 650 23 635 q 62 665 39 665 q 106 589 88 643 q 138 468 125 536 q 158 326 151 400 q 170 187 165 251 q 174 78 174 123 q 175 22 175 33 q 159 18 171 22 q 133 9 146 14 q 108 3 119 5 q 95 3 96 0 m 269 -121 q 199 -159 233 -151 q 135 -159 164 -167 q 85 -132 106 -152 q 54 -87 64 -113 q 47 -32 43 -61 q 72 24 50 -3 q 112 44 91 47 q 144 22 133 41 q 122 -43 127 -15 q 125 -85 117 -71 q 156 -98 133 -99 q 220 -77 179 -98 l 269 -121 z "},"Ĩ":{"ha":233,"x_min":-159,"x_max":378,"o":"m 95 3 q 93 47 95 16 q 89 116 91 77 q 85 198 87 155 q 81 280 83 241 q 77 349 79 319 q 73 393 75 380 q 62 448 71 420 q 45 504 54 476 q 30 560 37 532 q 23 616 23 589 q 31 650 23 635 q 62 665 39 665 q 106 589 88 643 q 138 468 125 536 q 158 326 151 400 q 170 187 165 251 q 174 78 174 123 q 175 22 175 33 q 159 18 171 22 q 133 9 146 14 q 108 3 119 5 q 95 3 96 0 m -117 1042 q -108 991 -115 1024 q -87 925 -100 958 q -52 868 -73 892 q 1 844 -30 844 q 35 871 15 844 q 82 930 56 898 q 141 990 109 963 q 212 1017 174 1017 q 258 1004 228 1021 q 316 962 288 987 q 361 910 345 937 q 369 867 378 883 l 296 867 q 258 937 279 921 q 214 943 237 952 q 165 907 191 933 q 114 852 140 882 q 62 799 88 823 q 11 769 35 774 q -71 798 -38 769 q -123 868 -103 826 q -151 958 -142 910 q -159 1042 -159 1005 l -117 1042 z "},"Ĳ":{"ha":517,"x_min":23,"x_max":480,"o":"m 95 3 q 93 47 95 16 q 89 116 91 77 q 85 198 87 155 q 81 280 83 241 q 77 349 79 319 q 73 393 75 380 q 62 448 71 420 q 45 504 54 476 q 30 560 37 532 q 23 616 23 589 q 31 650 23 635 q 62 665 39 665 q 106 589 88 643 q 138 468 125 536 q 158 326 151 400 q 170 187 165 251 q 174 78 174 123 q 175 22 175 33 q 159 18 171 22 q 133 9 146 14 q 108 3 119 5 q 95 3 96 0 m 252 122 q 252 172 251 149 q 258 205 252 194 q 275 213 263 216 q 311 186 288 210 q 319 141 311 157 q 338 119 327 125 q 362 115 350 113 q 381 122 374 117 q 396 146 391 130 q 404 179 401 161 q 406 214 406 197 q 407 243 407 231 q 388 356 407 298 q 345 470 369 414 q 302 581 321 526 q 283 686 283 636 q 296 705 283 704 q 332 712 309 707 q 399 581 372 651 q 444 442 426 511 q 469 312 461 373 q 480 209 477 251 q 476 143 480 176 q 458 83 472 110 q 421 39 445 56 q 359 22 397 22 q 282 46 312 22 q 252 122 252 71 z "},"Ĵ":{"ha":283,"x_min":-99,"x_max":382,"o":"m 19 122 q 18 172 18 149 q 24 205 19 194 q 42 213 30 216 q 77 186 54 210 q 85 141 77 157 q 105 119 94 125 q 129 115 117 113 q 148 122 141 117 q 163 146 157 130 q 170 179 168 161 q 173 214 172 197 q 174 243 174 231 q 155 356 174 298 q 112 470 136 414 q 69 581 88 526 q 50 686 50 636 q 63 705 50 704 q 99 712 76 707 q 165 581 138 651 q 210 442 193 511 q 236 312 228 373 q 247 209 244 251 q 243 143 247 176 q 225 83 239 110 q 188 39 212 56 q 126 22 164 22 q 49 46 79 22 q 19 122 19 71 m -98 868 q -19 993 -77 930 q 134 1090 39 1055 q 176 1064 151 1084 q 229 1019 201 1044 q 286 963 258 993 q 336 906 315 933 q 370 857 358 879 q 378 825 382 836 l 309 825 l 136 1000 q 74 962 99 981 q 32 922 49 944 q 3 873 15 901 q -22 808 -9 846 q -37 787 -28 793 q -58 781 -45 781 q -85 791 -77 781 q -96 814 -94 800 q -98 842 -99 827 q -98 868 -98 857 z "},"Ķ":{"ha":726,"x_min":24,"x_max":708,"o":"m 24 663 q 30 701 24 685 q 50 738 35 716 q 92 688 73 723 q 127 609 111 654 q 153 515 142 564 q 169 418 163 465 q 176 332 175 372 q 172 271 176 293 q 241 355 205 307 q 315 452 278 403 q 391 543 353 500 q 464 610 429 586 q 469 602 464 609 q 479 586 473 594 q 491 570 486 578 q 496 562 496 563 q 473 500 496 530 q 420 441 450 469 q 361 388 391 414 q 321 339 332 362 q 384 318 343 319 q 473 326 425 317 q 573 349 522 335 q 667 369 624 362 q 708 334 694 369 q 609 283 663 305 q 497 248 555 262 q 380 227 439 233 q 267 220 321 220 q 208 210 227 227 q 184 167 190 194 q 179 106 178 140 q 178 46 180 73 q 163 3 175 19 q 119 -7 151 -14 q 114 167 118 83 q 100 334 110 251 q 71 498 90 416 q 24 663 53 579 m 297 -281 q 301 -243 297 -269 q 313 -189 305 -218 q 331 -130 320 -160 q 355 -77 342 -100 q 383 -41 368 -53 q 416 -34 399 -28 q 416 -118 416 -65 q 410 -221 416 -171 q 387 -308 404 -271 q 335 -345 369 -345 q 317 -338 324 -345 q 305 -321 309 -331 q 299 -300 301 -312 q 297 -281 297 -289 z "},"Ĺ":{"ha":553,"x_min":31,"x_max":543,"o":"m 85 566 q 90 486 88 533 q 96 387 91 439 q 113 283 102 335 q 146 189 125 231 q 201 122 167 148 q 286 96 235 96 q 356 113 324 96 q 418 150 388 130 q 477 186 448 170 q 543 203 507 203 q 513 121 543 159 q 441 55 484 83 q 351 12 399 27 q 264 -3 302 -3 q 164 30 205 -3 q 98 113 123 62 q 58 229 72 164 q 39 356 45 293 q 32 475 33 419 q 31 566 31 530 l 85 566 m 354 947 q 294 842 319 879 q 254 789 270 804 q 230 777 239 774 q 216 789 221 779 q 207 812 210 799 q 199 831 203 825 q 229 880 218 864 q 250 909 240 897 q 273 938 260 922 q 311 983 286 954 l 354 947 z "},"Ľ":{"ha":553,"x_min":31,"x_max":543,"o":"m 85 566 q 90 486 88 533 q 96 387 91 439 q 113 283 102 335 q 146 189 125 231 q 201 122 167 148 q 286 96 235 96 q 356 113 324 96 q 418 150 388 130 q 477 186 448 170 q 543 203 507 203 q 513 121 543 159 q 441 55 484 83 q 351 12 399 27 q 264 -3 302 -3 q 164 30 205 -3 q 98 113 123 62 q 58 229 72 164 q 39 356 45 293 q 32 475 33 419 q 31 566 31 530 l 85 566 m 217 731 q 218 798 214 765 q 225 861 221 831 q 233 915 229 890 q 232 959 236 940 q 291 951 274 967 q 309 901 308 935 q 300 818 309 867 q 279 712 290 769 q 246 714 255 712 q 217 731 237 716 z "},"Ļ":{"ha":553,"x_min":31,"x_max":543,"o":"m 85 566 q 90 486 88 533 q 96 387 91 439 q 113 283 102 335 q 146 189 125 231 q 201 122 167 148 q 286 96 235 96 q 356 113 324 96 q 418 150 388 130 q 477 186 448 170 q 543 203 507 203 q 513 121 543 159 q 441 55 484 83 q 351 12 399 27 q 264 -3 302 -3 q 164 30 205 -3 q 98 113 123 62 q 58 229 72 164 q 39 356 45 293 q 32 475 33 419 q 31 566 31 530 l 85 566 m 212 -281 q 216 -243 212 -269 q 227 -189 220 -218 q 245 -130 235 -160 q 269 -77 256 -100 q 298 -41 282 -53 q 331 -34 313 -28 q 331 -118 331 -65 q 325 -221 331 -171 q 301 -308 319 -271 q 250 -345 283 -345 q 231 -338 239 -345 q 220 -321 224 -331 q 214 -300 216 -312 q 212 -281 212 -289 z "},"Ŀ":{"ha":553,"x_min":31,"x_max":543,"o":"m 85 566 q 90 486 88 533 q 96 387 91 439 q 113 283 102 335 q 146 189 125 231 q 201 122 167 148 q 286 96 235 96 q 356 113 324 96 q 418 150 388 130 q 477 186 448 170 q 543 203 507 203 q 513 121 543 159 q 441 55 484 83 q 351 12 399 27 q 264 -3 302 -3 q 164 30 205 -3 q 98 113 123 62 q 58 229 72 164 q 39 356 45 293 q 32 475 33 419 q 31 566 31 530 l 85 566 m 258 378 q 271 422 258 412 q 317 437 285 433 q 339 432 330 438 q 355 416 349 426 q 366 397 362 407 q 370 381 370 387 q 359 335 370 353 q 309 317 349 317 q 269 335 279 317 q 258 378 258 353 z "},"Ń":{"ha":787,"x_min":12,"x_max":751,"o":"m 38 566 q 46 583 38 576 q 65 591 54 589 q 86 593 76 593 q 102 593 96 593 q 146 558 123 593 q 197 471 170 524 q 257 357 224 418 q 333 244 290 297 q 430 157 376 191 q 553 122 484 122 q 636 174 614 136 q 656 264 658 212 q 635 376 654 316 q 595 494 616 437 q 557 599 574 551 q 545 675 541 647 q 607 661 579 675 q 651 614 635 646 q 685 507 667 564 q 718 391 703 450 q 742 271 732 331 q 751 156 751 212 q 734 100 751 121 q 692 67 718 79 q 635 52 666 56 q 579 47 605 47 q 447 71 511 47 q 328 133 382 94 q 229 227 273 172 q 160 345 186 281 q 137 269 145 312 q 125 182 129 227 q 118 95 121 137 q 111 24 115 53 q 96 3 111 5 q 63 8 81 0 q 29 34 45 16 q 12 73 14 52 l 38 566 m 471 947 q 411 842 435 879 q 371 789 387 804 q 347 777 355 774 q 332 789 338 779 q 323 812 327 799 q 316 831 320 825 q 346 880 335 864 q 367 909 357 897 q 390 938 377 922 q 427 983 403 954 l 471 947 z "},"Ň":{"ha":787,"x_min":12,"x_max":751,"o":"m 38 566 q 46 583 38 576 q 65 591 54 589 q 86 593 76 593 q 102 593 96 593 q 146 558 123 593 q 197 471 170 524 q 257 357 224 418 q 333 244 290 297 q 430 157 376 191 q 553 122 484 122 q 636 174 614 136 q 656 264 658 212 q 635 376 654 316 q 595 494 616 437 q 557 599 574 551 q 545 675 541 647 q 607 661 579 675 q 651 614 635 646 q 685 507 667 564 q 718 391 703 450 q 742 271 732 331 q 751 156 751 212 q 734 100 751 121 q 692 67 718 79 q 635 52 666 56 q 579 47 605 47 q 447 71 511 47 q 328 133 382 94 q 229 227 273 172 q 160 345 186 281 q 137 269 145 312 q 125 182 129 227 q 118 95 121 137 q 111 24 115 53 q 96 3 111 5 q 63 8 81 0 q 29 34 45 16 q 12 73 14 52 l 38 566 m 536 883 l 366 746 l 251 895 l 331 916 l 376 830 l 453 883 l 536 883 z "},"Ņ":{"ha":787,"x_min":12,"x_max":751,"o":"m 38 566 q 46 583 38 576 q 65 591 54 589 q 86 593 76 593 q 102 593 96 593 q 146 558 123 593 q 197 471 170 524 q 257 357 224 418 q 333 244 290 297 q 430 157 376 191 q 553 122 484 122 q 636 174 614 136 q 656 264 658 212 q 635 376 654 316 q 595 494 616 437 q 557 599 574 551 q 545 675 541 647 q 607 661 579 675 q 651 614 635 646 q 685 507 667 564 q 718 391 703 450 q 742 271 732 331 q 751 156 751 212 q 734 100 751 121 q 692 67 718 79 q 635 52 666 56 q 579 47 605 47 q 447 71 511 47 q 328 133 382 94 q 229 227 273 172 q 160 345 186 281 q 137 269 145 312 q 125 182 129 227 q 118 95 121 137 q 111 24 115 53 q 96 3 111 5 q 63 8 81 0 q 29 34 45 16 q 12 73 14 52 l 38 566 m 328 -281 q 332 -243 328 -269 q 344 -189 336 -218 q 362 -130 351 -160 q 386 -77 373 -100 q 414 -41 399 -53 q 448 -34 430 -28 q 448 -118 448 -65 q 441 -221 448 -171 q 418 -308 435 -271 q 366 -345 400 -345 q 348 -338 355 -345 q 336 -321 340 -331 q 330 -300 332 -312 q 328 -281 328 -289 z "},"Ñ":{"ha":787,"x_min":12,"x_max":751,"o":"m 38 566 q 46 583 38 576 q 65 591 54 589 q 86 593 76 593 q 102 593 96 593 q 146 558 123 593 q 197 471 170 524 q 257 357 224 418 q 333 244 290 297 q 430 157 376 191 q 553 122 484 122 q 636 174 614 136 q 656 264 658 212 q 635 376 654 316 q 595 494 616 437 q 557 599 574 551 q 545 675 541 647 q 607 661 579 675 q 651 614 635 646 q 685 507 667 564 q 718 391 703 450 q 742 271 732 331 q 751 156 751 212 q 734 100 751 121 q 692 67 718 79 q 635 52 666 56 q 579 47 605 47 q 447 71 511 47 q 328 133 382 94 q 229 227 273 172 q 160 345 186 281 q 137 269 145 312 q 125 182 129 227 q 118 95 121 137 q 111 24 115 53 q 96 3 111 5 q 63 8 81 0 q 29 34 45 16 q 12 73 14 52 l 38 566 m 157 1042 q 166 991 159 1024 q 187 925 174 958 q 222 868 201 892 q 275 844 244 844 q 309 871 289 844 q 356 930 330 898 q 415 990 382 963 q 486 1017 448 1017 q 532 1004 502 1021 q 590 962 562 987 q 635 910 618 937 q 643 867 652 883 l 570 867 q 532 937 553 921 q 488 943 511 952 q 439 907 465 933 q 388 852 414 882 q 336 799 362 823 q 285 769 309 774 q 203 798 236 769 q 151 868 171 826 q 123 958 132 910 q 115 1042 115 1005 l 157 1042 z "},"Ó":{"ha":651,"x_min":24,"x_max":618,"o":"m 24 491 q 40 530 30 514 q 61 551 50 547 q 82 545 72 555 q 98 509 92 536 q 106 426 104 473 q 112 330 109 378 q 123 234 115 281 q 151 153 130 187 q 206 102 171 119 q 298 96 241 85 q 372 105 330 96 q 452 132 414 114 q 516 176 490 149 q 543 240 543 203 q 521 330 543 285 q 465 411 499 374 q 386 471 430 448 q 297 494 342 494 q 250 491 277 502 q 200 468 224 480 q 161 454 176 456 q 146 479 145 452 q 159 526 146 509 q 193 553 172 544 q 237 566 213 563 q 286 568 262 568 q 409 538 349 568 q 515 461 469 509 q 590 353 562 414 q 618 229 618 292 q 585 134 618 176 q 503 61 552 91 q 398 15 454 31 q 296 -1 342 -1 q 186 22 231 -1 q 111 85 141 46 q 65 174 81 123 q 41 280 49 225 q 29 389 33 335 q 24 491 26 444 m 403 947 q 343 842 368 879 q 303 789 319 804 q 279 777 288 774 q 264 789 270 779 q 256 812 259 799 q 248 831 252 825 q 278 880 267 864 q 299 909 289 897 q 322 938 309 922 q 359 983 335 954 l 403 947 z "},"Ŏ":{"ha":651,"x_min":24,"x_max":618,"o":"m 24 491 q 40 530 30 514 q 61 551 50 547 q 82 545 72 555 q 98 509 92 536 q 106 426 104 473 q 112 330 109 378 q 123 234 115 281 q 151 153 130 187 q 206 102 171 119 q 298 96 241 85 q 372 105 330 96 q 452 132 414 114 q 516 176 490 149 q 543 240 543 203 q 521 330 543 285 q 465 411 499 374 q 386 471 430 448 q 297 494 342 494 q 250 491 277 502 q 200 468 224 480 q 161 454 176 456 q 146 479 145 452 q 159 526 146 509 q 193 553 172 544 q 237 566 213 563 q 286 568 262 568 q 409 538 349 568 q 515 461 469 509 q 590 353 562 414 q 618 229 618 292 q 585 134 618 176 q 503 61 552 91 q 398 15 454 31 q 296 -1 342 -1 q 186 22 231 -1 q 111 85 141 46 q 65 174 81 123 q 41 280 49 225 q 29 389 33 335 q 24 491 26 444 m 468 883 q 422 813 460 845 q 340 773 385 781 q 250 791 294 765 q 183 895 206 817 l 263 916 q 272 855 258 876 q 308 830 286 834 q 352 840 330 826 q 385 883 374 853 l 468 883 z "},"Ô":{"ha":651,"x_min":24,"x_max":618,"o":"m 24 491 q 40 530 30 514 q 61 551 50 547 q 82 545 72 555 q 98 509 92 536 q 106 426 104 473 q 112 330 109 378 q 123 234 115 281 q 151 153 130 187 q 206 102 171 119 q 298 96 241 85 q 372 105 330 96 q 452 132 414 114 q 516 176 490 149 q 543 240 543 203 q 521 330 543 285 q 465 411 499 374 q 386 471 430 448 q 297 494 342 494 q 250 491 277 502 q 200 468 224 480 q 161 454 176 456 q 146 479 145 452 q 159 526 146 509 q 193 553 172 544 q 237 566 213 563 q 286 568 262 568 q 409 538 349 568 q 515 461 469 509 q 590 353 562 414 q 618 229 618 292 q 585 134 618 176 q 503 61 552 91 q 398 15 454 31 q 296 -1 342 -1 q 186 22 231 -1 q 111 85 141 46 q 65 174 81 123 q 41 280 49 225 q 29 389 33 335 q 24 491 26 444 m 84 868 q 163 993 104 930 q 316 1090 221 1055 q 357 1064 332 1084 q 411 1019 382 1044 q 468 963 439 993 q 518 906 496 933 q 552 857 540 879 q 560 825 564 836 l 491 825 l 317 1000 q 256 962 281 981 q 214 922 231 944 q 184 873 197 901 q 160 808 172 846 q 145 787 153 793 q 123 781 137 781 q 96 791 104 781 q 85 814 88 800 q 83 842 83 827 q 84 868 84 857 z "},"Ö":{"ha":651,"x_min":24,"x_max":618,"o":"m 24 491 q 40 530 30 514 q 61 551 50 547 q 82 545 72 555 q 98 509 92 536 q 106 426 104 473 q 112 330 109 378 q 123 234 115 281 q 151 153 130 187 q 206 102 171 119 q 298 96 241 85 q 372 105 330 96 q 452 132 414 114 q 516 176 490 149 q 543 240 543 203 q 521 330 543 285 q 465 411 499 374 q 386 471 430 448 q 297 494 342 494 q 250 491 277 502 q 200 468 224 480 q 161 454 176 456 q 146 479 145 452 q 159 526 146 509 q 193 553 172 544 q 237 566 213 563 q 286 568 262 568 q 409 538 349 568 q 515 461 469 509 q 590 353 562 414 q 618 229 618 292 q 585 134 618 176 q 503 61 552 91 q 398 15 454 31 q 296 -1 342 -1 q 186 22 231 -1 q 111 85 141 46 q 65 174 81 123 q 41 280 49 225 q 29 389 33 335 q 24 491 26 444 m 141 865 q 160 911 144 892 q 218 936 176 930 q 269 859 264 924 q 252 808 269 822 q 199 795 235 795 q 151 816 160 795 q 141 865 141 837 m 381 865 q 400 911 384 892 q 458 936 416 930 q 509 859 505 924 q 492 808 509 822 q 439 795 475 795 q 391 816 400 795 q 381 865 381 837 z "},"Ò":{"ha":651,"x_min":24,"x_max":618,"o":"m 24 491 q 40 530 30 514 q 61 551 50 547 q 82 545 72 555 q 98 509 92 536 q 106 426 104 473 q 112 330 109 378 q 123 234 115 281 q 151 153 130 187 q 206 102 171 119 q 298 96 241 85 q 372 105 330 96 q 452 132 414 114 q 516 176 490 149 q 543 240 543 203 q 521 330 543 285 q 465 411 499 374 q 386 471 430 448 q 297 494 342 494 q 250 491 277 502 q 200 468 224 480 q 161 454 176 456 q 146 479 145 452 q 159 526 146 509 q 193 553 172 544 q 237 566 213 563 q 286 568 262 568 q 409 538 349 568 q 515 461 469 509 q 590 353 562 414 q 618 229 618 292 q 585 134 618 176 q 503 61 552 91 q 398 15 454 31 q 296 -1 342 -1 q 186 22 231 -1 q 111 85 141 46 q 65 174 81 123 q 41 280 49 225 q 29 389 33 335 q 24 491 26 444 m 296 981 q 328 935 316 949 q 348 906 339 920 q 366 876 357 892 q 392 826 376 859 q 385 806 388 819 q 378 783 382 793 q 366 771 373 773 q 345 784 358 769 q 310 837 331 799 q 258 944 289 875 l 296 981 z "},"Ő":{"ha":651,"x_min":24,"x_max":618,"o":"m 24 491 q 40 530 30 514 q 61 551 50 547 q 82 545 72 555 q 98 509 92 536 q 106 426 104 473 q 112 330 109 378 q 123 234 115 281 q 151 153 130 187 q 206 102 171 119 q 298 96 241 85 q 372 105 330 96 q 452 132 414 114 q 516 176 490 149 q 543 240 543 203 q 521 330 543 285 q 465 411 499 374 q 386 471 430 448 q 297 494 342 494 q 250 491 277 502 q 200 468 224 480 q 161 454 176 456 q 146 479 145 452 q 159 526 146 509 q 193 553 172 544 q 237 566 213 563 q 286 568 262 568 q 409 538 349 568 q 515 461 469 509 q 590 353 562 414 q 618 229 618 292 q 585 134 618 176 q 503 61 552 91 q 398 15 454 31 q 296 -1 342 -1 q 186 22 231 -1 q 111 85 141 46 q 65 174 81 123 q 41 280 49 225 q 29 389 33 335 q 24 491 26 444 m 323 947 q 263 842 288 879 q 223 789 239 804 q 199 777 208 774 q 184 789 190 779 q 176 812 179 799 q 168 831 172 825 q 198 880 187 864 q 219 909 209 897 q 242 938 229 922 q 279 983 255 954 l 323 947 m 483 947 q 423 842 448 879 q 383 789 399 804 q 359 777 368 774 q 345 789 350 779 q 336 812 339 799 q 328 831 332 825 q 358 880 347 864 q 379 909 369 897 q 402 938 389 922 q 439 983 415 954 l 483 947 z "},"Ō":{"ha":651,"x_min":24,"x_max":618,"o":"m 24 491 q 40 530 30 514 q 61 551 50 547 q 82 545 72 555 q 98 509 92 536 q 106 426 104 473 q 112 330 109 378 q 123 234 115 281 q 151 153 130 187 q 206 102 171 119 q 298 96 241 85 q 372 105 330 96 q 452 132 414 114 q 516 176 490 149 q 543 240 543 203 q 521 330 543 285 q 465 411 499 374 q 386 471 430 448 q 297 494 342 494 q 250 491 277 502 q 200 468 224 480 q 161 454 176 456 q 146 479 145 452 q 159 526 146 509 q 193 553 172 544 q 237 566 213 563 q 286 568 262 568 q 409 538 349 568 q 515 461 469 509 q 590 353 562 414 q 618 229 618 292 q 585 134 618 176 q 503 61 552 91 q 398 15 454 31 q 296 -1 342 -1 q 186 22 231 -1 q 111 85 141 46 q 65 174 81 123 q 41 280 49 225 q 29 389 33 335 q 24 491 26 444 m 110 768 q 75 787 85 776 q 64 810 64 798 q 71 832 64 822 q 87 849 77 842 q 185 865 127 860 q 304 870 243 869 q 425 869 366 871 q 524 868 483 868 q 569 854 555 867 q 582 826 583 841 q 566 800 581 811 q 526 789 552 788 l 110 768 z "},"Ø":{"ha":651,"x_min":24,"x_max":618,"o":"m 24 491 q 40 530 30 514 q 61 551 50 547 q 82 545 72 555 q 98 509 92 536 q 106 426 104 473 q 112 330 109 378 q 123 234 115 281 q 151 153 130 187 q 206 102 171 119 q 298 96 241 85 q 372 105 330 96 q 452 132 414 114 q 516 176 490 149 q 543 240 543 203 q 521 330 543 285 q 465 411 499 374 q 386 471 430 448 q 297 494 342 494 q 250 491 277 502 q 200 468 224 480 q 161 454 176 456 q 146 479 145 452 q 159 526 146 509 q 193 553 172 544 q 237 566 213 563 q 286 568 262 568 q 409 538 349 568 q 515 461 469 509 q 590 353 562 414 q 618 229 618 292 q 585 134 618 176 q 503 61 552 91 q 398 15 454 31 q 296 -1 342 -1 q 186 22 231 -1 q 111 85 141 46 q 65 174 81 123 q 41 280 49 225 q 29 389 33 335 q 24 491 26 444 m 120 -61 q 144 17 126 -36 q 189 137 162 70 q 249 278 215 204 q 318 422 282 353 q 392 547 355 490 q 466 634 430 603 q 490 625 480 634 q 501 600 501 616 q 392 451 438 532 q 310 281 347 369 q 235 100 272 192 q 152 -78 198 8 q 124 -84 134 -86 q 120 -61 114 -82 z "},"Ǿ":{"ha":651,"x_min":24,"x_max":618,"o":"m 24 491 q 40 530 30 514 q 61 551 50 547 q 82 545 72 555 q 98 509 92 536 q 106 426 104 473 q 112 330 109 378 q 123 234 115 281 q 151 153 130 187 q 206 102 171 119 q 298 96 241 85 q 372 105 330 96 q 452 132 414 114 q 516 176 490 149 q 543 240 543 203 q 521 330 543 285 q 465 411 499 374 q 386 471 430 448 q 297 494 342 494 q 250 491 277 502 q 200 468 224 480 q 161 454 176 456 q 146 479 145 452 q 159 526 146 509 q 193 553 172 544 q 237 566 213 563 q 286 568 262 568 q 409 538 349 568 q 515 461 469 509 q 590 353 562 414 q 618 229 618 292 q 585 134 618 176 q 503 61 552 91 q 398 15 454 31 q 296 -1 342 -1 q 186 22 231 -1 q 111 85 141 46 q 65 174 81 123 q 41 280 49 225 q 29 389 33 335 q 24 491 26 444 m 121 -61 q 150 14 129 -37 q 203 130 171 66 q 274 267 235 195 q 358 406 314 340 q 446 527 401 472 q 534 612 491 582 q 562 603 550 612 q 575 578 575 595 q 446 434 500 513 q 347 269 392 355 q 258 95 302 184 q 160 -78 214 6 q 126 -84 137 -85 q 121 -61 114 -82 m 403 947 q 343 842 368 879 q 303 789 319 804 q 279 777 288 774 q 264 789 270 779 q 256 812 259 799 q 248 831 252 825 q 278 880 267 864 q 299 909 289 897 q 322 938 309 922 q 359 983 335 954 l 403 947 z "},"Õ":{"ha":651,"x_min":24,"x_max":618,"o":"m 24 491 q 40 530 30 514 q 61 551 50 547 q 82 545 72 555 q 98 509 92 536 q 106 426 104 473 q 112 330 109 378 q 123 234 115 281 q 151 153 130 187 q 206 102 171 119 q 298 96 241 85 q 372 105 330 96 q 452 132 414 114 q 516 176 490 149 q 543 240 543 203 q 521 330 543 285 q 465 411 499 374 q 386 471 430 448 q 297 494 342 494 q 250 491 277 502 q 200 468 224 480 q 161 454 176 456 q 146 479 145 452 q 159 526 146 509 q 193 553 172 544 q 237 566 213 563 q 286 568 262 568 q 409 538 349 568 q 515 461 469 509 q 590 353 562 414 q 618 229 618 292 q 585 134 618 176 q 503 61 552 91 q 398 15 454 31 q 296 -1 342 -1 q 186 22 231 -1 q 111 85 141 46 q 65 174 81 123 q 41 280 49 225 q 29 389 33 335 q 24 491 26 444 m 90 1042 q 98 991 91 1024 q 119 925 106 958 q 155 868 133 892 q 208 844 176 844 q 241 871 221 844 q 288 930 262 898 q 347 990 315 963 q 418 1017 380 1017 q 464 1004 434 1021 q 522 962 494 987 q 568 910 551 937 q 575 867 585 883 l 502 867 q 465 937 486 921 q 420 943 444 952 q 372 907 397 933 q 320 852 346 882 q 268 799 294 823 q 217 769 241 774 q 136 798 168 769 q 83 868 103 826 q 56 958 64 910 q 47 1042 47 1005 l 90 1042 z "},"Œ":{"ha":1077,"x_min":24,"x_max":1073,"o":"m 24 491 q 40 530 30 514 q 61 551 50 547 q 82 545 72 555 q 98 509 92 536 q 106 426 104 473 q 112 330 109 378 q 123 234 115 281 q 151 153 130 187 q 206 102 171 119 q 298 96 241 85 q 372 105 330 96 q 452 132 414 114 q 516 176 490 149 q 543 240 543 203 q 521 330 543 285 q 465 411 499 374 q 386 471 430 448 q 297 494 342 494 q 250 491 277 502 q 200 468 224 480 q 161 454 176 456 q 146 479 145 452 q 159 526 146 509 q 193 553 172 544 q 237 566 213 563 q 286 568 262 568 q 419 534 355 568 q 530 445 483 499 l 530 605 q 656 623 593 605 q 783 661 720 640 q 909 699 846 681 q 1035 716 972 716 q 1054 703 1042 716 q 1073 689 1066 690 q 1013 641 1055 662 q 919 602 971 620 q 811 567 867 583 q 710 535 755 551 q 635 503 665 519 q 605 468 605 487 q 617 425 605 433 q 651 418 629 418 q 706 426 680 418 q 758 444 732 434 q 810 463 784 454 q 864 471 837 471 q 890 458 879 471 q 902 431 902 446 q 882 385 902 401 q 831 358 861 369 q 765 340 800 347 q 699 320 730 332 q 648 289 669 308 q 628 236 628 270 q 632 181 628 206 q 647 138 636 156 q 677 109 658 119 q 728 98 697 98 q 791 117 758 95 q 855 172 825 140 q 911 239 886 205 q 948 297 936 274 l 998 248 q 987 230 998 247 q 962 189 977 213 q 930 140 947 165 q 901 99 913 115 q 865 60 886 81 q 819 20 844 38 q 768 -12 795 1 q 715 -24 741 -24 q 663 -12 685 -24 q 624 20 640 0 q 596 67 608 41 q 576 122 585 94 q 517 71 552 94 q 445 31 483 47 q 368 7 407 15 q 296 -1 328 -1 q 186 22 231 -1 q 111 85 141 46 q 65 174 81 123 q 41 280 49 225 q 29 389 33 335 q 24 491 26 444 z "},"Ŕ":{"ha":642,"x_min":23,"x_max":663,"o":"m 172 0 q 126 13 145 -18 q 94 102 107 43 q 73 239 81 161 q 56 391 64 316 q 41 531 49 467 q 23 628 33 595 q 33 653 23 644 q 56 667 42 662 q 85 672 71 671 q 111 673 100 673 l 111 418 q 145 479 132 442 q 172 555 159 515 q 199 635 184 595 q 238 705 214 674 q 296 752 262 735 q 384 765 331 769 q 424 758 404 765 q 459 739 444 751 q 484 708 475 726 q 494 669 494 690 q 475 580 494 627 q 429 487 456 533 q 373 399 401 441 q 326 326 345 358 q 403 326 366 323 q 473 334 439 330 q 536 342 506 338 q 594 346 567 346 q 632 340 614 346 q 656 326 650 335 q 654 304 663 317 q 613 278 646 292 q 554 267 601 275 q 454 250 507 259 q 354 233 400 241 q 296 221 308 225 q 228 169 245 205 q 205 95 210 133 q 197 28 201 57 q 172 0 194 0 m 422 681 q 312 637 357 680 q 240 535 267 594 q 199 411 213 476 q 183 300 186 346 q 265 377 222 334 q 342 470 308 420 q 399 573 377 519 q 422 681 422 627 m 397 947 q 338 842 362 879 q 298 789 313 804 q 273 777 282 774 q 259 789 264 779 q 250 812 254 799 q 243 831 247 825 q 273 880 262 864 q 294 909 283 897 q 317 938 304 922 q 354 983 330 954 l 397 947 z "},"Ř":{"ha":642,"x_min":23,"x_max":663,"o":"m 172 0 q 126 13 145 -18 q 94 102 107 43 q 73 239 81 161 q 56 391 64 316 q 41 531 49 467 q 23 628 33 595 q 33 653 23 644 q 56 667 42 662 q 85 672 71 671 q 111 673 100 673 l 111 418 q 145 479 132 442 q 172 555 159 515 q 199 635 184 595 q 238 705 214 674 q 296 752 262 735 q 384 765 331 769 q 424 758 404 765 q 459 739 444 751 q 484 708 475 726 q 494 669 494 690 q 475 580 494 627 q 429 487 456 533 q 373 399 401 441 q 326 326 345 358 q 403 326 366 323 q 473 334 439 330 q 536 342 506 338 q 594 346 567 346 q 632 340 614 346 q 656 326 650 335 q 654 304 663 317 q 613 278 646 292 q 554 267 601 275 q 454 250 507 259 q 354 233 400 241 q 296 221 308 225 q 228 169 245 205 q 205 95 210 133 q 197 28 201 57 q 172 0 194 0 m 422 681 q 312 637 357 680 q 240 535 267 594 q 199 411 213 476 q 183 300 186 346 q 265 377 222 334 q 342 470 308 420 q 399 573 377 519 q 422 681 422 627 m 452 939 l 282 802 l 167 951 l 247 971 l 292 886 l 369 939 l 452 939 z "},"Ŗ":{"ha":642,"x_min":23,"x_max":663,"o":"m 172 0 q 126 13 145 -18 q 94 102 107 43 q 73 239 81 161 q 56 391 64 316 q 41 531 49 467 q 23 628 33 595 q 33 653 23 644 q 56 667 42 662 q 85 672 71 671 q 111 673 100 673 l 111 418 q 145 479 132 442 q 172 555 159 515 q 199 635 184 595 q 238 705 214 674 q 296 752 262 735 q 384 765 331 769 q 424 758 404 765 q 459 739 444 751 q 484 708 475 726 q 494 669 494 690 q 475 580 494 627 q 429 487 456 533 q 373 399 401 441 q 326 326 345 358 q 403 326 366 323 q 473 334 439 330 q 536 342 506 338 q 594 346 567 346 q 632 340 614 346 q 656 326 650 335 q 654 304 663 317 q 613 278 646 292 q 554 267 601 275 q 454 250 507 259 q 354 233 400 241 q 296 221 308 225 q 228 169 245 205 q 205 95 210 133 q 197 28 201 57 q 172 0 194 0 m 422 681 q 312 637 357 680 q 240 535 267 594 q 199 411 213 476 q 183 300 186 346 q 265 377 222 334 q 342 470 308 420 q 399 573 377 519 q 422 681 422 627 m 255 -281 q 259 -243 255 -269 q 271 -189 263 -218 q 289 -130 278 -160 q 313 -77 300 -100 q 341 -41 326 -53 q 374 -34 357 -28 q 374 -118 374 -65 q 368 -221 374 -171 q 345 -308 362 -271 q 293 -345 327 -345 q 275 -338 282 -345 q 263 -321 267 -331 q 257 -300 259 -312 q 255 -281 255 -289 z "},"Ś":{"ha":418,"x_min":11,"x_max":384,"o":"m 11 210 q 16 235 11 220 q 31 266 22 251 q 53 291 41 281 q 79 301 65 301 q 79 240 79 275 q 88 174 80 205 q 115 120 96 142 q 171 98 134 98 q 222 102 197 98 q 266 116 247 106 q 296 145 285 126 q 308 195 308 164 q 291 281 308 241 q 250 356 274 320 q 195 426 225 392 q 141 496 165 460 q 100 572 117 532 q 83 661 83 612 q 92 732 73 707 q 142 764 110 757 q 214 763 174 772 q 287 734 254 754 q 341 682 320 713 q 357 614 362 651 q 354 604 357 610 q 347 589 351 597 q 339 575 343 582 q 332 566 335 568 q 292 615 313 586 q 248 664 270 644 q 205 683 227 684 q 168 644 184 682 q 184 561 168 600 q 224 486 201 522 q 276 414 248 449 q 328 344 304 380 q 368 269 351 308 q 384 186 384 229 q 364 108 384 144 q 313 47 345 72 q 242 9 282 22 q 160 0 202 -4 q 87 24 115 5 q 41 73 58 43 q 18 137 24 102 q 11 210 11 172 m 294 1008 q 235 903 259 940 q 195 850 210 865 q 170 838 179 836 q 156 850 161 840 q 147 873 151 860 q 140 892 144 886 q 170 941 159 925 q 191 970 180 958 q 214 999 201 983 q 251 1044 227 1015 l 294 1008 z "},"Š":{"ha":418,"x_min":11,"x_max":384,"o":"m 11 210 q 16 235 11 220 q 31 266 22 251 q 53 291 41 281 q 79 301 65 301 q 79 240 79 275 q 88 174 80 205 q 115 120 96 142 q 171 98 134 98 q 222 102 197 98 q 266 116 247 106 q 296 145 285 126 q 308 195 308 164 q 291 281 308 241 q 250 356 274 320 q 195 426 225 392 q 141 496 165 460 q 100 572 117 532 q 83 661 83 612 q 92 732 73 707 q 142 764 110 757 q 214 763 174 772 q 287 734 254 754 q 341 682 320 713 q 357 614 362 651 q 354 604 357 610 q 347 589 351 597 q 339 575 343 582 q 332 566 335 568 q 292 615 313 586 q 248 664 270 644 q 205 683 227 684 q 168 644 184 682 q 184 561 168 600 q 224 486 201 522 q 276 414 248 449 q 328 344 304 380 q 368 269 351 308 q 384 186 384 229 q 364 108 384 144 q 313 47 345 72 q 242 9 282 22 q 160 0 202 -4 q 87 24 115 5 q 41 73 58 43 q 18 137 24 102 q 11 210 11 172 m 357 955 l 187 818 l 72 967 l 152 987 l 197 902 l 274 955 l 357 955 z "},"Ş":{"ha":418,"x_min":11,"x_max":384,"o":"m 11 210 q 16 235 11 220 q 31 266 22 251 q 53 291 41 281 q 79 301 65 301 q 79 240 79 275 q 88 174 80 205 q 115 120 96 142 q 171 98 134 98 q 222 102 197 98 q 266 116 247 106 q 296 145 285 126 q 308 195 308 164 q 291 281 308 241 q 250 356 274 320 q 195 426 225 392 q 141 496 165 460 q 100 572 117 532 q 83 661 83 612 q 92 732 73 707 q 142 764 110 757 q 214 763 174 772 q 287 734 254 754 q 341 682 320 713 q 357 614 362 651 q 354 604 357 610 q 347 589 351 597 q 339 575 343 582 q 332 566 335 568 q 292 615 313 586 q 248 664 270 644 q 205 683 227 684 q 168 644 184 682 q 184 561 168 600 q 224 486 201 522 q 276 414 248 449 q 328 344 304 380 q 368 269 351 308 q 384 186 384 229 q 364 108 384 144 q 313 47 345 72 q 242 9 282 22 q 160 0 202 -4 q 87 24 115 5 q 41 73 58 43 q 18 137 24 102 q 11 210 11 172 m 190 -172 q 289 -180 264 -190 q 302 -149 313 -170 q 252 -107 292 -129 q 159 -79 212 -85 q 148 -2 140 -24 q 173 20 156 20 q 205 3 190 20 q 217 -41 221 -15 q 267 -56 237 -47 q 323 -78 297 -64 q 363 -117 349 -92 q 369 -179 378 -141 q 353 -212 369 -198 q 315 -235 338 -227 q 266 -248 292 -244 q 220 -252 240 -252 q 182 -235 194 -247 q 168 -210 170 -222 q 172 -186 165 -197 q 190 -172 178 -175 z "},"Ŝ":{"ha":418,"x_min":-33,"x_max":449,"o":"m 11 210 q 16 235 11 220 q 31 266 22 251 q 53 291 41 281 q 79 301 65 301 q 79 240 79 275 q 88 174 80 205 q 115 120 96 142 q 171 98 134 98 q 222 102 197 98 q 266 116 247 106 q 296 145 285 126 q 308 195 308 164 q 291 281 308 241 q 250 356 274 320 q 195 426 225 392 q 141 496 165 460 q 100 572 117 532 q 83 661 83 612 q 92 732 73 707 q 142 764 110 757 q 214 763 174 772 q 287 734 254 754 q 341 682 320 713 q 357 614 362 651 q 354 604 357 610 q 347 589 351 597 q 339 575 343 582 q 332 566 335 568 q 292 615 313 586 q 248 664 270 644 q 205 683 227 684 q 168 644 184 682 q 184 561 168 600 q 224 486 201 522 q 276 414 248 449 q 328 344 304 380 q 368 269 351 308 q 384 186 384 229 q 364 108 384 144 q 313 47 345 72 q 242 9 282 22 q 160 0 202 -4 q 87 24 115 5 q 41 73 58 43 q 18 137 24 102 q 11 210 11 172 m -31 868 q 47 993 -11 930 q 201 1090 106 1055 q 242 1064 217 1084 q 296 1019 267 1044 q 353 963 324 993 q 403 906 381 933 q 437 857 425 879 q 445 825 449 836 l 376 825 l 202 1000 q 140 962 165 981 q 98 922 115 944 q 69 873 81 901 q 45 808 57 846 q 30 787 38 793 q 8 781 22 781 q -19 791 -11 781 q -30 814 -27 800 q -32 842 -33 827 q -31 868 -31 857 z "},"Ș":{"ha":418,"x_min":11,"x_max":384,"o":"m 11 210 q 16 235 11 220 q 31 266 22 251 q 53 291 41 281 q 79 301 65 301 q 79 240 79 275 q 88 174 80 205 q 115 120 96 142 q 171 98 134 98 q 222 102 197 98 q 266 116 247 106 q 296 145 285 126 q 308 195 308 164 q 291 281 308 241 q 250 356 274 320 q 195 426 225 392 q 141 496 165 460 q 100 572 117 532 q 83 661 83 612 q 92 732 73 707 q 142 764 110 757 q 214 763 174 772 q 287 734 254 754 q 341 682 320 713 q 357 614 362 651 q 354 604 357 610 q 347 589 351 597 q 339 575 343 582 q 332 566 335 568 q 292 615 313 586 q 248 664 270 644 q 205 683 227 684 q 168 644 184 682 q 184 561 168 600 q 224 486 201 522 q 276 414 248 449 q 328 344 304 380 q 368 269 351 308 q 384 186 384 229 q 364 108 384 144 q 313 47 345 72 q 242 9 282 22 q 160 0 202 -4 q 87 24 115 5 q 41 73 58 43 q 18 137 24 102 q 11 210 11 172 m 130 -309 q 134 -272 130 -297 q 146 -218 138 -247 q 164 -159 153 -189 q 188 -105 175 -129 q 216 -69 201 -81 q 250 -62 232 -57 q 250 -146 250 -94 q 243 -250 250 -199 q 220 -336 237 -300 q 168 -373 202 -373 q 150 -366 157 -373 q 138 -350 142 -359 q 132 -329 134 -340 q 130 -309 130 -317 z "},"Ŧ":{"ha":663,"x_min":22,"x_max":656,"o":"m 222 566 q 184 552 201 557 q 151 544 167 547 q 119 540 136 541 q 83 538 103 538 q 39 549 56 538 q 22 590 22 559 q 43 632 22 620 q 94 648 65 644 q 153 654 123 652 q 197 663 182 655 q 216 701 201 688 q 250 714 231 713 q 289 705 270 715 q 320 677 308 696 l 656 677 q 646 627 656 639 q 610 608 635 614 q 550 597 595 604 q 453 585 505 591 q 356 574 401 579 q 296 566 311 568 l 296 99 q 317 84 315 99 q 312 50 320 69 q 289 15 304 31 q 256 -3 274 -1 q 231 12 239 -3 q 222 49 222 26 l 222 566 l 222 566 m 91 361 q 56 380 66 369 q 45 403 45 391 q 52 425 45 415 q 68 442 58 435 q 166 458 109 453 q 286 463 224 463 q 406 463 347 464 q 505 461 464 461 q 550 447 536 460 q 563 419 564 434 q 547 393 562 404 q 507 382 533 381 l 91 361 z "},"Ť":{"ha":663,"x_min":22,"x_max":656,"o":"m 222 566 q 184 552 201 557 q 151 544 167 547 q 119 540 136 541 q 83 538 103 538 q 39 549 56 538 q 22 590 22 559 q 43 632 22 620 q 94 648 65 644 q 153 654 123 652 q 197 663 182 655 q 216 701 201 688 q 250 714 231 713 q 289 705 270 715 q 320 677 308 696 l 656 677 q 646 627 656 639 q 610 608 635 614 q 550 597 595 604 q 453 585 505 591 q 356 574 401 579 q 296 566 311 568 l 296 99 q 317 84 315 99 q 312 50 320 69 q 289 15 304 31 q 256 -3 274 -1 q 231 12 239 -3 q 222 49 222 26 l 222 566 l 222 566 m 473 883 l 304 746 l 189 895 l 269 916 l 313 830 l 391 883 l 473 883 z "},"Ţ":{"ha":663,"x_min":22,"x_max":656,"o":"m 222 566 q 184 552 201 557 q 151 544 167 547 q 119 540 136 541 q 83 538 103 538 q 39 549 56 538 q 22 590 22 559 q 43 632 22 620 q 94 648 65 644 q 153 654 123 652 q 197 663 182 655 q 216 701 201 688 q 250 714 231 713 q 289 705 270 715 q 320 677 308 696 l 656 677 q 646 627 656 639 q 610 608 635 614 q 550 597 595 604 q 453 585 505 591 q 356 574 401 579 q 296 566 311 568 l 296 99 q 317 84 315 99 q 312 50 320 69 q 289 15 304 31 q 256 -3 274 -1 q 231 12 239 -3 q 222 49 222 26 l 222 566 l 222 566 m 266 -281 q 270 -243 266 -269 q 281 -189 274 -218 q 300 -130 289 -160 q 323 -77 311 -100 q 352 -41 336 -53 q 385 -34 368 -28 q 385 -118 385 -65 q 379 -221 385 -171 q 355 -308 373 -271 q 304 -345 338 -345 q 286 -338 293 -345 q 274 -321 278 -331 q 268 -300 270 -312 q 266 -281 266 -289 z "},"Ú":{"ha":505,"x_min":23,"x_max":469,"o":"m 23 602 q 40 633 23 625 q 76 642 57 642 q 111 617 98 642 q 132 554 125 593 q 144 466 140 515 q 155 366 149 416 q 169 269 160 316 q 193 186 178 221 q 233 132 209 151 q 296 122 258 114 q 349 264 328 193 q 382 410 369 336 q 402 559 395 484 q 418 712 410 635 q 423 713 419 712 q 430 713 427 713 q 456 705 448 713 q 467 682 464 696 q 469 654 469 669 q 468 631 468 640 q 467 554 468 606 q 460 436 465 502 q 443 299 454 370 q 412 166 431 228 q 365 59 393 104 q 296 0 336 14 q 231 9 260 -12 q 179 64 201 30 q 143 137 157 99 q 123 197 129 175 q 111 250 118 216 q 96 324 104 283 q 80 408 88 365 q 62 490 72 452 q 43 559 53 529 q 23 602 33 589 m 330 947 q 270 842 294 879 q 230 789 245 804 q 205 777 214 774 q 191 789 197 779 q 182 812 186 799 q 175 831 179 825 q 205 880 194 864 q 226 909 216 897 q 249 938 236 922 q 286 983 262 954 l 330 947 z "},"Ŭ":{"ha":505,"x_min":23,"x_max":469,"o":"m 23 602 q 40 633 23 625 q 76 642 57 642 q 111 617 98 642 q 132 554 125 593 q 144 466 140 515 q 155 366 149 416 q 169 269 160 316 q 193 186 178 221 q 233 132 209 151 q 296 122 258 114 q 349 264 328 193 q 382 410 369 336 q 402 559 395 484 q 418 712 410 635 q 423 713 419 712 q 430 713 427 713 q 456 705 448 713 q 467 682 464 696 q 469 654 469 669 q 468 631 468 640 q 467 554 468 606 q 460 436 465 502 q 443 299 454 370 q 412 166 431 228 q 365 59 393 104 q 296 0 336 14 q 231 9 260 -12 q 179 64 201 30 q 143 137 157 99 q 123 197 129 175 q 111 250 118 216 q 96 324 104 283 q 80 408 88 365 q 62 490 72 452 q 43 559 53 529 q 23 602 33 589 m 395 883 q 349 813 387 845 q 267 773 312 781 q 177 791 221 765 q 110 895 133 817 l 190 916 q 199 855 184 876 q 235 830 213 834 q 279 840 256 826 q 312 883 301 853 l 395 883 z "},"Û":{"ha":505,"x_min":11,"x_max":492,"o":"m 23 602 q 40 633 23 625 q 76 642 57 642 q 111 617 98 642 q 132 554 125 593 q 144 466 140 515 q 155 366 149 416 q 169 269 160 316 q 193 186 178 221 q 233 132 209 151 q 296 122 258 114 q 349 264 328 193 q 382 410 369 336 q 402 559 395 484 q 418 712 410 635 q 423 713 419 712 q 430 713 427 713 q 456 705 448 713 q 467 682 464 696 q 469 654 469 669 q 468 631 468 640 q 467 554 468 606 q 460 436 465 502 q 443 299 454 370 q 412 166 431 228 q 365 59 393 104 q 296 0 336 14 q 231 9 260 -12 q 179 64 201 30 q 143 137 157 99 q 123 197 129 175 q 111 250 118 216 q 96 324 104 283 q 80 408 88 365 q 62 490 72 452 q 43 559 53 529 q 23 602 33 589 m 12 868 q 91 993 33 930 q 244 1090 149 1055 q 286 1064 260 1084 q 339 1019 311 1044 q 396 963 368 993 q 446 906 425 933 q 480 857 468 879 q 488 825 492 836 l 419 825 l 245 1000 q 184 962 209 981 q 142 922 159 944 q 113 873 125 901 q 88 808 100 846 q 73 787 81 793 q 52 781 65 781 q 24 791 33 781 q 14 814 16 800 q 12 842 11 827 q 12 868 12 857 z "},"Ü":{"ha":505,"x_min":23,"x_max":469,"o":"m 23 602 q 40 633 23 625 q 76 642 57 642 q 111 617 98 642 q 132 554 125 593 q 144 466 140 515 q 155 366 149 416 q 169 269 160 316 q 193 186 178 221 q 233 132 209 151 q 296 122 258 114 q 349 264 328 193 q 382 410 369 336 q 402 559 395 484 q 418 712 410 635 q 423 713 419 712 q 430 713 427 713 q 456 705 448 713 q 467 682 464 696 q 469 654 469 669 q 468 631 468 640 q 467 554 468 606 q 460 436 465 502 q 443 299 454 370 q 412 166 431 228 q 365 59 393 104 q 296 0 336 14 q 231 9 260 -12 q 179 64 201 30 q 143 137 157 99 q 123 197 129 175 q 111 250 118 216 q 96 324 104 283 q 80 408 88 365 q 62 490 72 452 q 43 559 53 529 q 23 602 33 589 m 68 865 q 87 911 71 892 q 145 936 103 930 q 195 859 191 924 q 178 808 195 822 q 126 795 161 795 q 77 816 87 795 q 68 865 68 837 m 308 865 q 327 911 311 892 q 385 936 343 930 q 435 859 431 924 q 418 808 435 822 q 366 795 401 795 q 317 816 327 795 q 308 865 308 837 z "},"Ù":{"ha":505,"x_min":23,"x_max":469,"o":"m 23 602 q 40 633 23 625 q 76 642 57 642 q 111 617 98 642 q 132 554 125 593 q 144 466 140 515 q 155 366 149 416 q 169 269 160 316 q 193 186 178 221 q 233 132 209 151 q 296 122 258 114 q 349 264 328 193 q 382 410 369 336 q 402 559 395 484 q 418 712 410 635 q 423 713 419 712 q 430 713 427 713 q 456 705 448 713 q 467 682 464 696 q 469 654 469 669 q 468 631 468 640 q 467 554 468 606 q 460 436 465 502 q 443 299 454 370 q 412 166 431 228 q 365 59 393 104 q 296 0 336 14 q 231 9 260 -12 q 179 64 201 30 q 143 137 157 99 q 123 197 129 175 q 111 250 118 216 q 96 324 104 283 q 80 408 88 365 q 62 490 72 452 q 43 559 53 529 q 23 602 33 589 m 222 981 q 254 935 243 949 q 275 906 266 920 q 293 876 283 892 q 319 826 302 859 q 312 806 315 819 q 304 783 309 793 q 292 771 300 773 q 271 784 285 769 q 237 837 258 799 q 184 944 216 875 l 222 981 z "},"Ű":{"ha":505,"x_min":23,"x_max":469,"o":"m 23 602 q 40 633 23 625 q 76 642 57 642 q 111 617 98 642 q 132 554 125 593 q 144 466 140 515 q 155 366 149 416 q 169 269 160 316 q 193 186 178 221 q 233 132 209 151 q 296 122 258 114 q 349 264 328 193 q 382 410 369 336 q 402 559 395 484 q 418 712 410 635 q 423 713 419 712 q 430 713 427 713 q 456 705 448 713 q 467 682 464 696 q 469 654 469 669 q 468 631 468 640 q 467 554 468 606 q 460 436 465 502 q 443 299 454 370 q 412 166 431 228 q 365 59 393 104 q 296 0 336 14 q 231 9 260 -12 q 179 64 201 30 q 143 137 157 99 q 123 197 129 175 q 111 250 118 216 q 96 324 104 283 q 80 408 88 365 q 62 490 72 452 q 43 559 53 529 q 23 602 33 589 m 250 947 q 190 842 214 879 q 150 789 165 804 q 125 777 134 774 q 111 789 117 779 q 102 812 106 799 q 95 831 99 825 q 125 880 114 864 q 146 909 136 897 q 169 938 156 922 q 206 983 182 954 l 250 947 m 410 947 q 350 842 374 879 q 310 789 326 804 q 286 777 294 774 q 271 789 277 779 q 262 812 266 799 q 255 831 259 825 q 285 880 274 864 q 306 909 296 897 q 329 938 316 922 q 366 983 342 954 l 410 947 z "},"Ū":{"ha":505,"x_min":-8,"x_max":511,"o":"m 23 602 q 40 633 23 625 q 76 642 57 642 q 111 617 98 642 q 132 554 125 593 q 144 466 140 515 q 155 366 149 416 q 169 269 160 316 q 193 186 178 221 q 233 132 209 151 q 296 122 258 114 q 349 264 328 193 q 382 410 369 336 q 402 559 395 484 q 418 712 410 635 q 423 713 419 712 q 430 713 427 713 q 456 705 448 713 q 467 682 464 696 q 469 654 469 669 q 468 631 468 640 q 467 554 468 606 q 460 436 465 502 q 443 299 454 370 q 412 166 431 228 q 365 59 393 104 q 296 0 336 14 q 231 9 260 -12 q 179 64 201 30 q 143 137 157 99 q 123 197 129 175 q 111 250 118 216 q 96 324 104 283 q 80 408 88 365 q 62 490 72 452 q 43 559 53 529 q 23 602 33 589 m 38 768 q 3 787 14 776 q -8 810 -8 798 q -1 832 -8 822 q 15 849 5 842 q 113 865 56 860 q 233 870 171 869 q 353 869 294 871 q 452 868 411 868 q 497 854 483 867 q 510 826 511 841 q 494 800 509 811 q 454 789 480 788 l 38 768 z "},"Ų":{"ha":505,"x_min":23,"x_max":477,"o":"m 23 602 q 40 633 23 625 q 76 642 57 642 q 111 617 98 642 q 132 554 125 593 q 144 466 140 515 q 155 366 149 416 q 169 269 160 316 q 193 186 178 221 q 233 132 209 151 q 296 122 258 114 q 349 264 328 193 q 382 410 369 336 q 402 559 395 484 q 418 712 410 635 q 423 713 419 712 q 430 713 427 713 q 456 705 448 713 q 467 682 464 696 q 469 654 469 669 q 468 631 468 640 q 467 554 468 606 q 460 436 465 502 q 443 299 454 370 q 412 166 431 228 q 365 59 393 104 q 296 0 336 14 q 231 9 260 -12 q 179 64 201 30 q 143 137 157 99 q 123 197 129 175 q 111 250 118 216 q 96 324 104 283 q 80 408 88 365 q 62 490 72 452 q 43 559 53 529 q 23 602 33 589 m 477 -137 q 408 -175 442 -167 q 344 -176 373 -183 q 294 -149 315 -168 q 262 -103 273 -129 q 256 -48 252 -77 q 281 8 259 -19 q 321 28 300 31 q 353 5 342 24 q 331 -59 336 -31 q 334 -101 326 -87 q 365 -115 342 -115 q 429 -94 388 -114 l 477 -137 z "},"Ů":{"ha":505,"x_min":23,"x_max":469,"o":"m 23 602 q 40 633 23 625 q 76 642 57 642 q 111 617 98 642 q 132 554 125 593 q 144 466 140 515 q 155 366 149 416 q 169 269 160 316 q 193 186 178 221 q 233 132 209 151 q 296 122 258 114 q 349 264 328 193 q 382 410 369 336 q 402 559 395 484 q 418 712 410 635 q 423 713 419 712 q 430 713 427 713 q 456 705 448 713 q 467 682 464 696 q 469 654 469 669 q 468 631 468 640 q 467 554 468 606 q 460 436 465 502 q 443 299 454 370 q 412 166 431 228 q 365 59 393 104 q 296 0 336 14 q 231 9 260 -12 q 179 64 201 30 q 143 137 157 99 q 123 197 129 175 q 111 250 118 216 q 96 324 104 283 q 80 408 88 365 q 62 490 72 452 q 43 559 53 529 q 23 602 33 589 m 144 788 q 118 845 119 815 q 131 903 117 875 q 173 954 145 932 q 235 989 201 977 q 307 998 270 1001 q 380 974 345 996 q 436 892 431 941 q 389 798 441 844 q 335 764 368 777 q 267 749 302 751 q 199 755 232 746 q 144 788 165 764 m 359 867 q 279 903 326 902 q 197 871 232 903 q 275 830 232 831 q 359 867 319 829 z "},"Ũ":{"ha":505,"x_min":-23,"x_max":514,"o":"m 23 602 q 40 633 23 625 q 76 642 57 642 q 111 617 98 642 q 132 554 125 593 q 144 466 140 515 q 155 366 149 416 q 169 269 160 316 q 193 186 178 221 q 233 132 209 151 q 296 122 258 114 q 349 264 328 193 q 382 410 369 336 q 402 559 395 484 q 418 712 410 635 q 423 713 419 712 q 430 713 427 713 q 456 705 448 713 q 467 682 464 696 q 469 654 469 669 q 468 631 468 640 q 467 554 468 606 q 460 436 465 502 q 443 299 454 370 q 412 166 431 228 q 365 59 393 104 q 296 0 336 14 q 231 9 260 -12 q 179 64 201 30 q 143 137 157 99 q 123 197 129 175 q 111 250 118 216 q 96 324 104 283 q 80 408 88 365 q 62 490 72 452 q 43 559 53 529 q 23 602 33 589 m 19 1042 q 28 991 20 1024 q 49 925 35 958 q 84 868 62 892 q 137 844 106 844 q 171 871 151 844 q 218 930 191 898 q 277 990 244 963 q 347 1017 309 1017 q 393 1004 363 1021 q 452 962 423 987 q 497 910 480 937 q 505 867 514 883 l 431 867 q 394 937 415 921 q 350 943 373 952 q 301 907 327 933 q 250 852 275 882 q 197 799 224 823 q 146 769 171 774 q 65 798 98 769 q 13 868 33 826 q -15 958 -7 910 q -23 1042 -23 1005 l 19 1042 z "},"Ẃ":{"ha":783,"x_min":-4,"x_max":765,"o":"m 119 24 q 79 250 96 152 q 47 419 61 347 q 25 541 34 491 q 11 624 16 591 q -4 712 -3 700 q 24 734 9 730 q 52 732 39 738 q 77 715 65 727 q 95 689 88 703 l 168 221 q 204 276 184 239 q 245 351 224 313 q 292 416 267 388 q 340 445 316 444 q 393 426 373 445 q 426 379 412 407 q 450 319 439 351 q 477 258 461 286 q 517 212 492 231 q 583 193 543 193 q 637 221 618 194 q 663 291 655 248 q 673 387 671 334 q 673 492 674 441 q 674 589 673 544 q 685 663 675 635 q 694 680 685 670 q 709 689 704 689 q 753 677 747 689 q 760 644 760 666 q 762 552 760 608 q 764 435 765 496 q 756 314 764 374 q 728 205 749 254 q 668 127 707 157 q 568 96 629 96 q 502 113 529 96 q 456 155 475 130 q 422 209 437 179 q 395 263 408 239 q 366 304 381 288 q 328 321 350 321 q 305 290 317 316 q 279 227 293 263 q 250 151 266 191 q 219 77 235 111 q 188 20 203 42 q 156 -1 172 -1 q 134 4 145 -1 q 119 24 122 9 m 468 947 q 408 842 433 879 q 368 789 384 804 q 344 777 353 774 q 330 789 335 779 q 321 812 324 799 q 313 831 317 825 q 343 880 332 864 q 364 909 354 897 q 387 938 374 922 q 425 983 400 954 l 468 947 z "},"Ŵ":{"ha":783,"x_min":-4,"x_max":765,"o":"m 119 24 q 79 250 96 152 q 47 419 61 347 q 25 541 34 491 q 11 624 16 591 q -4 712 -3 700 q 24 734 9 730 q 52 732 39 738 q 77 715 65 727 q 95 689 88 703 l 168 221 q 204 276 184 239 q 245 351 224 313 q 292 416 267 388 q 340 445 316 444 q 393 426 373 445 q 426 379 412 407 q 450 319 439 351 q 477 258 461 286 q 517 212 492 231 q 583 193 543 193 q 637 221 618 194 q 663 291 655 248 q 673 387 671 334 q 673 492 674 441 q 674 589 673 544 q 685 663 675 635 q 694 680 685 670 q 709 689 704 689 q 753 677 747 689 q 760 644 760 666 q 762 552 760 608 q 764 435 765 496 q 756 314 764 374 q 728 205 749 254 q 668 127 707 157 q 568 96 629 96 q 502 113 529 96 q 456 155 475 130 q 422 209 437 179 q 395 263 408 239 q 366 304 381 288 q 328 321 350 321 q 305 290 317 316 q 279 227 293 263 q 250 151 266 191 q 219 77 235 111 q 188 20 203 42 q 156 -1 172 -1 q 134 4 145 -1 q 119 24 122 9 m 149 868 q 228 993 170 930 q 381 1090 286 1055 q 422 1064 397 1084 q 476 1019 448 1044 q 533 963 505 993 q 583 906 562 933 q 617 857 605 879 q 625 825 629 836 l 556 825 l 382 1000 q 321 962 346 981 q 279 922 296 944 q 250 873 262 901 q 225 808 237 846 q 210 787 218 793 q 189 781 202 781 q 161 791 170 781 q 151 814 153 800 q 149 842 148 827 q 149 868 149 857 z "},"Ẅ":{"ha":783,"x_min":-4,"x_max":765,"o":"m 119 24 q 79 250 96 152 q 47 419 61 347 q 25 541 34 491 q 11 624 16 591 q -4 712 -3 700 q 24 734 9 730 q 52 732 39 738 q 77 715 65 727 q 95 689 88 703 l 168 221 q 204 276 184 239 q 245 351 224 313 q 292 416 267 388 q 340 445 316 444 q 393 426 373 445 q 426 379 412 407 q 450 319 439 351 q 477 258 461 286 q 517 212 492 231 q 583 193 543 193 q 637 221 618 194 q 663 291 655 248 q 673 387 671 334 q 673 492 674 441 q 674 589 673 544 q 685 663 675 635 q 694 680 685 670 q 709 689 704 689 q 753 677 747 689 q 760 644 760 666 q 762 552 760 608 q 764 435 765 496 q 756 314 764 374 q 728 205 749 254 q 668 127 707 157 q 568 96 629 96 q 502 113 529 96 q 456 155 475 130 q 422 209 437 179 q 395 263 408 239 q 366 304 381 288 q 328 321 350 321 q 305 290 317 316 q 279 227 293 263 q 250 151 266 191 q 219 77 235 111 q 188 20 203 42 q 156 -1 172 -1 q 134 4 145 -1 q 119 24 122 9 m 208 865 q 227 911 210 892 q 285 936 243 930 q 335 859 331 924 q 318 808 335 822 q 266 795 301 795 q 217 816 227 795 q 208 865 208 837 m 448 865 q 467 911 450 892 q 525 936 483 930 q 575 859 571 924 q 558 808 575 822 q 506 795 541 795 q 457 816 467 795 q 448 865 448 837 z "},"Ẁ":{"ha":783,"x_min":-4,"x_max":765,"o":"m 119 24 q 79 250 96 152 q 47 419 61 347 q 25 541 34 491 q 11 624 16 591 q -4 712 -3 700 q 24 734 9 730 q 52 732 39 738 q 77 715 65 727 q 95 689 88 703 l 168 221 q 204 276 184 239 q 245 351 224 313 q 292 416 267 388 q 340 445 316 444 q 393 426 373 445 q 426 379 412 407 q 450 319 439 351 q 477 258 461 286 q 517 212 492 231 q 583 193 543 193 q 637 221 618 194 q 663 291 655 248 q 673 387 671 334 q 673 492 674 441 q 674 589 673 544 q 685 663 675 635 q 694 680 685 670 q 709 689 704 689 q 753 677 747 689 q 760 644 760 666 q 762 552 760 608 q 764 435 765 496 q 756 314 764 374 q 728 205 749 254 q 668 127 707 157 q 568 96 629 96 q 502 113 529 96 q 456 155 475 130 q 422 209 437 179 q 395 263 408 239 q 366 304 381 288 q 328 321 350 321 q 305 290 317 316 q 279 227 293 263 q 250 151 266 191 q 219 77 235 111 q 188 20 203 42 q 156 -1 172 -1 q 134 4 145 -1 q 119 24 122 9 m 362 981 q 394 935 382 949 q 414 906 406 920 q 433 876 423 892 q 458 826 442 859 q 452 806 454 819 q 444 783 449 793 q 432 771 439 773 q 411 784 425 769 q 376 837 397 799 q 324 944 355 875 l 362 981 z "},"Ý":{"ha":651,"x_min":19,"x_max":616,"o":"m 415 49 q 431 78 415 61 q 467 123 448 95 q 503 193 487 152 q 519 294 519 235 q 519 314 519 300 q 518 345 518 328 q 517 374 518 361 q 517 393 517 388 q 458 323 496 358 q 373 258 420 288 q 273 211 326 229 q 170 193 220 193 q 100 210 127 193 q 57 256 73 228 q 33 321 41 285 q 23 394 26 357 q 21 467 20 431 q 22 529 22 502 q 22 580 24 547 q 21 647 19 613 q 34 708 23 681 q 73 742 45 735 q 121 722 113 743 q 124 664 130 700 q 107 582 118 628 q 96 490 96 536 q 97 422 96 457 q 106 359 98 388 q 136 311 115 330 q 198 293 157 293 q 338 333 275 293 q 444 435 400 373 q 513 570 488 496 q 541 712 538 644 q 566 712 553 712 q 590 709 579 712 q 608 696 601 705 q 616 669 614 686 q 608 446 616 557 q 590 221 601 334 q 583 165 589 202 q 563 91 576 127 q 526 27 549 54 q 468 0 503 0 q 425 13 435 0 q 415 49 415 26 m 403 947 q 343 842 368 879 q 303 789 319 804 q 279 777 288 774 q 264 789 270 779 q 256 812 259 799 q 248 831 252 825 q 278 880 267 864 q 299 909 289 897 q 322 938 309 922 q 359 983 335 954 l 403 947 z "},"Ŷ":{"ha":651,"x_min":19,"x_max":616,"o":"m 415 49 q 431 78 415 61 q 467 123 448 95 q 503 193 487 152 q 519 294 519 235 q 519 314 519 300 q 518 345 518 328 q 517 374 518 361 q 517 393 517 388 q 458 323 496 358 q 373 258 420 288 q 273 211 326 229 q 170 193 220 193 q 100 210 127 193 q 57 256 73 228 q 33 321 41 285 q 23 394 26 357 q 21 467 20 431 q 22 529 22 502 q 22 580 24 547 q 21 647 19 613 q 34 708 23 681 q 73 742 45 735 q 121 722 113 743 q 124 664 130 700 q 107 582 118 628 q 96 490 96 536 q 97 422 96 457 q 106 359 98 388 q 136 311 115 330 q 198 293 157 293 q 338 333 275 293 q 444 435 400 373 q 513 570 488 496 q 541 712 538 644 q 566 712 553 712 q 590 709 579 712 q 608 696 601 705 q 616 669 614 686 q 608 446 616 557 q 590 221 601 334 q 583 165 589 202 q 563 91 576 127 q 526 27 549 54 q 468 0 503 0 q 425 13 435 0 q 415 49 415 26 m 84 868 q 163 993 104 930 q 316 1090 221 1055 q 357 1064 332 1084 q 411 1019 382 1044 q 468 963 439 993 q 518 906 496 933 q 552 857 540 879 q 560 825 564 836 l 491 825 l 317 1000 q 256 962 281 981 q 214 922 231 944 q 184 873 197 901 q 160 808 172 846 q 145 787 153 793 q 123 781 137 781 q 96 791 104 781 q 85 814 88 800 q 83 842 83 827 q 84 868 84 857 z "},"Ỳ":{"ha":651,"x_min":19,"x_max":616,"o":"m 415 49 q 431 78 415 61 q 467 123 448 95 q 503 193 487 152 q 519 294 519 235 q 519 314 519 300 q 518 345 518 328 q 517 374 518 361 q 517 393 517 388 q 458 323 496 358 q 373 258 420 288 q 273 211 326 229 q 170 193 220 193 q 100 210 127 193 q 57 256 73 228 q 33 321 41 285 q 23 394 26 357 q 21 467 20 431 q 22 529 22 502 q 22 580 24 547 q 21 647 19 613 q 34 708 23 681 q 73 742 45 735 q 121 722 113 743 q 124 664 130 700 q 107 582 118 628 q 96 490 96 536 q 97 422 96 457 q 106 359 98 388 q 136 311 115 330 q 198 293 157 293 q 338 333 275 293 q 444 435 400 373 q 513 570 488 496 q 541 712 538 644 q 566 712 553 712 q 590 709 579 712 q 608 696 601 705 q 616 669 614 686 q 608 446 616 557 q 590 221 601 334 q 583 165 589 202 q 563 91 576 127 q 526 27 549 54 q 468 0 503 0 q 425 13 435 0 q 415 49 415 26 m 296 981 q 328 935 316 949 q 348 906 339 920 q 366 876 357 892 q 392 826 376 859 q 385 806 388 819 q 378 783 382 793 q 366 771 373 773 q 345 784 358 769 q 310 837 331 799 q 258 944 289 875 l 296 981 z "},"Ź":{"ha":651,"x_min":24,"x_max":618,"o":"m 122 123 q 134 167 122 145 q 163 210 146 189 q 196 252 179 231 q 222 294 213 274 q 179 288 209 292 q 117 286 149 283 q 59 302 85 289 q 24 345 33 315 q 77 383 37 369 q 162 405 117 397 q 246 414 208 412 q 296 418 285 416 q 302 437 298 423 q 311 466 307 450 q 317 496 315 481 q 320 517 320 510 q 303 561 320 544 q 260 587 286 578 q 202 599 233 595 q 142 602 171 602 q 93 601 114 602 q 65 600 72 600 q 71 652 65 633 q 90 679 76 670 q 123 689 103 688 q 175 690 144 690 q 306 670 255 690 q 380 614 357 650 q 404 528 404 578 q 381 419 403 477 q 492 427 437 419 q 616 444 548 434 q 617 421 616 433 q 617 399 618 410 q 610 380 616 388 q 590 368 604 372 l 345 320 q 330 298 342 319 q 301 251 317 278 q 269 195 285 224 q 245 148 254 165 q 249 109 237 122 q 284 90 260 95 q 340 89 308 85 q 408 101 373 92 q 474 122 442 110 q 529 149 506 134 q 560 132 552 149 q 568 96 568 115 q 513 45 551 61 q 433 21 476 28 q 345 10 389 14 q 271 0 301 7 q 214 7 241 0 q 167 31 187 15 q 134 69 146 46 q 122 123 122 92 m 403 947 q 343 842 368 879 q 303 789 319 804 q 279 777 288 774 q 264 789 270 779 q 256 812 259 799 q 248 831 252 825 q 278 880 267 864 q 299 909 289 897 q 322 938 309 922 q 359 983 335 954 l 403 947 z "},"Ž":{"ha":651,"x_min":24,"x_max":618,"o":"m 122 123 q 134 167 122 145 q 163 210 146 189 q 196 252 179 231 q 222 294 213 274 q 179 288 209 292 q 117 286 149 283 q 59 302 85 289 q 24 345 33 315 q 77 383 37 369 q 162 405 117 397 q 246 414 208 412 q 296 418 285 416 q 302 437 298 423 q 311 466 307 450 q 317 496 315 481 q 320 517 320 510 q 303 561 320 544 q 260 587 286 578 q 202 599 233 595 q 142 602 171 602 q 93 601 114 602 q 65 600 72 600 q 71 652 65 633 q 90 679 76 670 q 123 689 103 688 q 175 690 144 690 q 306 670 255 690 q 380 614 357 650 q 404 528 404 578 q 381 419 403 477 q 492 427 437 419 q 616 444 548 434 q 617 421 616 433 q 617 399 618 410 q 610 380 616 388 q 590 368 604 372 l 345 320 q 330 298 342 319 q 301 251 317 278 q 269 195 285 224 q 245 148 254 165 q 249 109 237 122 q 284 90 260 95 q 340 89 308 85 q 408 101 373 92 q 474 122 442 110 q 529 149 506 134 q 560 132 552 149 q 568 96 568 115 q 513 45 551 61 q 433 21 476 28 q 345 10 389 14 q 271 0 301 7 q 214 7 241 0 q 167 31 187 15 q 134 69 146 46 q 122 123 122 92 m 468 883 l 298 746 l 183 895 l 263 916 l 308 830 l 385 883 l 468 883 z "},"Ż":{"ha":651,"x_min":24,"x_max":618,"o":"m 122 123 q 134 167 122 145 q 163 210 146 189 q 196 252 179 231 q 222 294 213 274 q 179 288 209 292 q 117 286 149 283 q 59 302 85 289 q 24 345 33 315 q 77 383 37 369 q 162 405 117 397 q 246 414 208 412 q 296 418 285 416 q 302 437 298 423 q 311 466 307 450 q 317 496 315 481 q 320 517 320 510 q 303 561 320 544 q 260 587 286 578 q 202 599 233 595 q 142 602 171 602 q 93 601 114 602 q 65 600 72 600 q 71 652 65 633 q 90 679 76 670 q 123 689 103 688 q 175 690 144 690 q 306 670 255 690 q 380 614 357 650 q 404 528 404 578 q 381 419 403 477 q 492 427 437 419 q 616 444 548 434 q 617 421 616 433 q 617 399 618 410 q 610 380 616 388 q 590 368 604 372 l 345 320 q 330 298 342 319 q 301 251 317 278 q 269 195 285 224 q 245 148 254 165 q 249 109 237 122 q 284 90 260 95 q 340 89 308 85 q 408 101 373 92 q 474 122 442 110 q 529 149 506 134 q 560 132 552 149 q 568 96 568 115 q 513 45 551 61 q 433 21 476 28 q 345 10 389 14 q 271 0 301 7 q 214 7 241 0 q 167 31 187 15 q 134 69 146 46 q 122 123 122 92 m 269 880 q 282 924 269 914 q 328 939 296 935 q 350 934 340 940 q 366 918 359 928 q 377 899 373 909 q 381 883 381 888 q 370 837 381 854 q 320 819 359 819 q 279 837 290 819 q 269 880 269 854 z "},"á":{"ha":491,"x_min":22,"x_max":473,"o":"m 22 203 q 40 342 22 266 q 96 484 58 418 q 190 595 134 551 q 321 640 245 640 q 367 611 346 640 q 404 536 388 582 q 433 433 420 490 q 453 321 445 377 q 465 218 461 266 q 469 142 469 171 q 465 94 473 114 q 444 66 457 75 q 417 65 431 58 q 393 99 403 72 q 391 157 393 119 q 383 237 388 194 q 369 322 378 279 q 345 393 359 365 q 332 349 342 380 q 310 282 321 317 q 288 216 298 247 q 271 172 277 184 q 253 122 263 152 q 228 65 243 92 q 191 18 213 38 q 136 -1 168 -1 q 75 20 98 -1 q 41 73 53 42 q 25 140 28 104 q 22 203 22 176 m 95 209 q 114 100 98 121 q 152 102 130 79 q 198 180 174 125 q 243 298 222 235 q 279 422 264 362 q 296 517 294 483 q 283 519 293 518 q 271 519 274 519 q 187 484 221 519 q 133 399 153 449 q 104 297 113 350 q 95 209 95 244 m 323 848 q 263 743 288 780 q 223 690 239 705 q 199 677 208 675 q 184 690 190 680 q 176 713 179 700 q 168 732 172 726 q 198 781 187 765 q 219 810 209 798 q 242 839 229 823 q 279 884 255 854 l 323 848 z "},"ă":{"ha":491,"x_min":22,"x_max":473,"o":"m 22 203 q 40 342 22 266 q 96 484 58 418 q 190 595 134 551 q 321 640 245 640 q 367 611 346 640 q 404 536 388 582 q 433 433 420 490 q 453 321 445 377 q 465 218 461 266 q 469 142 469 171 q 465 94 473 114 q 444 66 457 75 q 417 65 431 58 q 393 99 403 72 q 391 157 393 119 q 383 237 388 194 q 369 322 378 279 q 345 393 359 365 q 332 349 342 380 q 310 282 321 317 q 288 216 298 247 q 271 172 277 184 q 253 122 263 152 q 228 65 243 92 q 191 18 213 38 q 136 -1 168 -1 q 75 20 98 -1 q 41 73 53 42 q 25 140 28 104 q 22 203 22 176 m 95 209 q 114 100 98 121 q 152 102 130 79 q 198 180 174 125 q 243 298 222 235 q 279 422 264 362 q 296 517 294 483 q 283 519 293 518 q 271 519 274 519 q 187 484 221 519 q 133 399 153 449 q 104 297 113 350 q 95 209 95 244 m 388 784 q 342 714 380 746 q 260 674 305 682 q 170 692 214 666 q 103 796 126 718 l 183 817 q 192 756 178 777 q 228 731 206 735 q 272 741 250 727 q 305 784 294 754 l 388 784 z "},"â":{"ha":491,"x_min":4,"x_max":486,"o":"m 22 203 q 40 342 22 266 q 96 484 58 418 q 190 595 134 551 q 321 640 245 640 q 367 611 346 640 q 404 536 388 582 q 433 433 420 490 q 453 321 445 377 q 465 218 461 266 q 469 142 469 171 q 465 94 473 114 q 444 66 457 75 q 417 65 431 58 q 393 99 403 72 q 391 157 393 119 q 383 237 388 194 q 369 322 378 279 q 345 393 359 365 q 332 349 342 380 q 310 282 321 317 q 288 216 298 247 q 271 172 277 184 q 253 122 263 152 q 228 65 243 92 q 191 18 213 38 q 136 -1 168 -1 q 75 20 98 -1 q 41 73 53 42 q 25 140 28 104 q 22 203 22 176 m 95 209 q 114 100 98 121 q 152 102 130 79 q 198 180 174 125 q 243 298 222 235 q 279 422 264 362 q 296 517 294 483 q 283 519 293 518 q 271 519 274 519 q 187 484 221 519 q 133 399 153 449 q 104 297 113 350 q 95 209 95 244 m 5 769 q 84 894 26 831 q 237 991 142 956 q 279 965 254 985 q 332 920 304 945 q 389 864 361 894 q 439 807 418 834 q 473 758 461 780 q 481 726 486 736 l 412 726 l 239 901 q 177 863 202 882 q 135 823 152 845 q 106 774 118 802 q 81 709 94 747 q 66 688 75 694 q 45 682 58 682 q 18 692 26 682 q 7 715 9 701 q 5 743 4 728 q 5 769 5 758 z "},"ä":{"ha":491,"x_min":22,"x_max":473,"o":"m 22 203 q 40 342 22 266 q 96 484 58 418 q 190 595 134 551 q 321 640 245 640 q 367 611 346 640 q 404 536 388 582 q 433 433 420 490 q 453 321 445 377 q 465 218 461 266 q 469 142 469 171 q 465 94 473 114 q 444 66 457 75 q 417 65 431 58 q 393 99 403 72 q 391 157 393 119 q 383 237 388 194 q 369 322 378 279 q 345 393 359 365 q 332 349 342 380 q 310 282 321 317 q 288 216 298 247 q 271 172 277 184 q 253 122 263 152 q 228 65 243 92 q 191 18 213 38 q 136 -1 168 -1 q 75 20 98 -1 q 41 73 53 42 q 25 140 28 104 q 22 203 22 176 m 95 209 q 114 100 98 121 q 152 102 130 79 q 198 180 174 125 q 243 298 222 235 q 279 422 264 362 q 296 517 294 483 q 283 519 293 518 q 271 519 274 519 q 187 484 221 519 q 133 399 153 449 q 104 297 113 350 q 95 209 95 244 m 61 766 q 80 812 64 793 q 138 837 96 831 q 189 760 184 825 q 172 709 189 723 q 119 696 155 696 q 71 717 80 696 q 61 766 61 738 m 301 766 q 320 812 304 793 q 378 837 336 831 q 429 760 425 825 q 412 709 429 723 q 359 696 395 696 q 311 717 320 696 q 301 766 301 738 z "},"à":{"ha":491,"x_min":22,"x_max":473,"o":"m 22 203 q 40 342 22 266 q 96 484 58 418 q 190 595 134 551 q 321 640 245 640 q 367 611 346 640 q 404 536 388 582 q 433 433 420 490 q 453 321 445 377 q 465 218 461 266 q 469 142 469 171 q 465 94 473 114 q 444 66 457 75 q 417 65 431 58 q 393 99 403 72 q 391 157 393 119 q 383 237 388 194 q 369 322 378 279 q 345 393 359 365 q 332 349 342 380 q 310 282 321 317 q 288 216 298 247 q 271 172 277 184 q 253 122 263 152 q 228 65 243 92 q 191 18 213 38 q 136 -1 168 -1 q 75 20 98 -1 q 41 73 53 42 q 25 140 28 104 q 22 203 22 176 m 95 209 q 114 100 98 121 q 152 102 130 79 q 198 180 174 125 q 243 298 222 235 q 279 422 264 362 q 296 517 294 483 q 283 519 293 518 q 271 519 274 519 q 187 484 221 519 q 133 399 153 449 q 104 297 113 350 q 95 209 95 244 m 216 882 q 248 836 236 850 q 268 807 259 821 q 286 777 277 793 q 312 727 296 760 q 305 707 308 720 q 298 684 302 694 q 286 672 293 674 q 264 685 278 670 q 230 738 251 700 q 178 845 209 776 l 216 882 z "},"ā":{"ha":491,"x_min":-15,"x_max":505,"o":"m 22 203 q 40 342 22 266 q 96 484 58 418 q 190 595 134 551 q 321 640 245 640 q 367 611 346 640 q 404 536 388 582 q 433 433 420 490 q 453 321 445 377 q 465 218 461 266 q 469 142 469 171 q 465 94 473 114 q 444 66 457 75 q 417 65 431 58 q 393 99 403 72 q 391 157 393 119 q 383 237 388 194 q 369 322 378 279 q 345 393 359 365 q 332 349 342 380 q 310 282 321 317 q 288 216 298 247 q 271 172 277 184 q 253 122 263 152 q 228 65 243 92 q 191 18 213 38 q 136 -1 168 -1 q 75 20 98 -1 q 41 73 53 42 q 25 140 28 104 q 22 203 22 176 m 95 209 q 114 100 98 121 q 152 102 130 79 q 198 180 174 125 q 243 298 222 235 q 279 422 264 362 q 296 517 294 483 q 283 519 293 518 q 271 519 274 519 q 187 484 221 519 q 133 399 153 449 q 104 297 113 350 q 95 209 95 244 m 31 669 q -4 688 7 677 q -15 711 -15 699 q -8 733 -15 723 q 8 750 -1 743 q 106 766 49 761 q 226 771 164 770 q 346 770 288 772 q 445 769 404 769 q 490 755 476 768 q 503 727 505 742 q 488 701 502 712 q 448 690 473 689 l 31 669 z "},"ą":{"ha":491,"x_min":22,"x_max":557,"o":"m 22 203 q 40 342 22 266 q 96 484 58 418 q 190 595 134 551 q 321 640 245 640 q 367 611 346 640 q 404 536 388 582 q 433 433 420 490 q 453 321 445 377 q 465 218 461 266 q 469 142 469 171 q 465 94 473 114 q 444 66 457 75 q 417 65 431 58 q 393 99 403 72 q 391 157 393 119 q 383 237 388 194 q 369 322 378 279 q 345 393 359 365 q 332 349 342 380 q 310 282 321 317 q 288 216 298 247 q 271 172 277 184 q 253 122 263 152 q 228 65 243 92 q 191 18 213 38 q 136 -1 168 -1 q 75 20 98 -1 q 41 73 53 42 q 25 140 28 104 q 22 203 22 176 m 95 209 q 114 100 98 121 q 152 102 130 79 q 198 180 174 125 q 243 298 222 235 q 279 422 264 362 q 296 517 294 483 q 283 519 293 518 q 271 519 274 519 q 187 484 221 519 q 133 399 153 449 q 104 297 113 350 q 95 209 95 244 m 557 -49 q 488 -87 522 -79 q 424 -87 453 -95 q 374 -60 395 -80 q 342 -15 353 -41 q 336 40 332 11 q 361 96 339 69 q 401 116 380 119 q 433 94 422 113 q 411 29 416 57 q 414 -13 406 1 q 445 -26 422 -27 q 509 -5 468 -26 l 557 -49 z "},"å":{"ha":491,"x_min":22,"x_max":473,"o":"m 22 203 q 40 342 22 266 q 96 484 58 418 q 190 595 134 551 q 321 640 245 640 q 367 611 346 640 q 404 536 388 582 q 433 433 420 490 q 453 321 445 377 q 465 218 461 266 q 469 142 469 171 q 465 94 473 114 q 444 66 457 75 q 417 65 431 58 q 393 99 403 72 q 391 157 393 119 q 383 237 388 194 q 369 322 378 279 q 345 393 359 365 q 332 349 342 380 q 310 282 321 317 q 288 216 298 247 q 271 172 277 184 q 253 122 263 152 q 228 65 243 92 q 191 18 213 38 q 136 -1 168 -1 q 75 20 98 -1 q 41 73 53 42 q 25 140 28 104 q 22 203 22 176 m 95 209 q 114 100 98 121 q 152 102 130 79 q 198 180 174 125 q 243 298 222 235 q 279 422 264 362 q 296 517 294 483 q 283 519 293 518 q 271 519 274 519 q 187 484 221 519 q 133 399 153 449 q 104 297 113 350 q 95 209 95 244 m 137 689 q 111 746 113 716 q 124 804 110 776 q 166 855 138 833 q 229 890 194 878 q 300 899 263 902 q 373 875 338 897 q 429 793 425 842 q 382 699 434 745 q 328 665 361 678 q 260 650 296 652 q 192 656 225 647 q 137 689 159 665 m 353 768 q 272 804 319 803 q 190 772 225 804 q 269 731 225 732 q 353 768 312 730 z "},"ã":{"ha":491,"x_min":-30,"x_max":507,"o":"m 22 203 q 40 342 22 266 q 96 484 58 418 q 190 595 134 551 q 321 640 245 640 q 367 611 346 640 q 404 536 388 582 q 433 433 420 490 q 453 321 445 377 q 465 218 461 266 q 469 142 469 171 q 465 94 473 114 q 444 66 457 75 q 417 65 431 58 q 393 99 403 72 q 391 157 393 119 q 383 237 388 194 q 369 322 378 279 q 345 393 359 365 q 332 349 342 380 q 310 282 321 317 q 288 216 298 247 q 271 172 277 184 q 253 122 263 152 q 228 65 243 92 q 191 18 213 38 q 136 -1 168 -1 q 75 20 98 -1 q 41 73 53 42 q 25 140 28 104 q 22 203 22 176 m 95 209 q 114 100 98 121 q 152 102 130 79 q 198 180 174 125 q 243 298 222 235 q 279 422 264 362 q 296 517 294 483 q 283 519 293 518 q 271 519 274 519 q 187 484 221 519 q 133 399 153 449 q 104 297 113 350 q 95 209 95 244 m 12 943 q 21 892 14 925 q 42 826 28 859 q 77 769 56 793 q 130 745 99 745 q 164 772 144 745 q 211 831 184 799 q 270 891 237 864 q 340 918 302 918 q 387 905 357 922 q 445 863 416 888 q 490 811 473 838 q 498 768 507 784 l 425 768 q 387 838 408 822 q 343 844 366 853 q 294 808 320 834 q 243 753 269 783 q 191 700 217 724 q 140 670 164 675 q 58 699 91 670 q 6 769 26 727 q -22 859 -14 811 q -30 943 -30 906 l 12 943 z "},"æ":{"ha":700,"x_min":22,"x_max":736,"o":"m 22 203 q 40 342 22 266 q 96 484 58 418 q 190 595 134 551 q 321 640 245 640 q 376 598 353 640 q 418 495 399 556 q 429 538 422 515 q 446 579 435 560 q 468 611 456 598 q 496 624 480 624 q 528 616 514 624 q 557 598 541 609 q 574 486 581 541 q 551 378 568 431 q 512 272 533 324 q 484 168 491 220 q 494 104 484 129 q 543 79 503 79 q 640 101 595 79 q 730 156 684 123 q 734 138 731 153 q 736 119 736 122 q 715 68 736 90 q 664 32 694 46 q 601 11 633 18 q 544 4 568 4 q 505 5 524 4 q 471 13 487 7 q 441 31 454 19 q 416 66 427 43 q 393 99 400 76 q 391 142 392 114 q 387 202 389 170 l 387 205 l 387 206 q 372 307 381 255 q 345 393 362 358 q 332 349 342 380 q 310 282 321 317 q 288 216 298 247 q 271 172 277 184 q 253 122 263 152 q 228 65 243 92 q 191 18 213 38 q 136 -1 168 -1 q 75 20 98 -1 q 41 73 53 42 q 25 140 28 104 q 22 203 22 176 m 95 209 q 114 100 98 121 q 152 102 130 79 q 198 180 174 125 q 243 298 222 235 q 279 422 264 362 q 296 517 294 483 q 283 519 293 518 q 271 519 274 519 q 187 484 221 519 q 133 399 153 449 q 104 297 113 350 q 95 209 95 244 m 498 464 q 488 455 492 465 q 480 433 483 445 q 478 410 477 420 q 484 401 479 400 q 494 412 490 403 q 502 433 499 422 q 504 453 505 444 q 498 464 503 463 z "},"ǽ":{"ha":700,"x_min":22,"x_max":736,"o":"m 22 203 q 40 342 22 266 q 96 484 58 418 q 190 595 134 551 q 321 640 245 640 q 376 598 353 640 q 418 495 399 556 q 429 538 422 515 q 446 579 435 560 q 468 611 456 598 q 496 624 480 624 q 528 616 514 624 q 557 598 541 609 q 574 486 581 541 q 551 378 568 431 q 512 272 533 324 q 484 168 491 220 q 494 104 484 129 q 543 79 503 79 q 640 101 595 79 q 730 156 684 123 q 734 138 731 153 q 736 119 736 122 q 715 68 736 90 q 664 32 694 46 q 601 11 633 18 q 544 4 568 4 q 505 5 524 4 q 471 13 487 7 q 441 31 454 19 q 416 66 427 43 q 393 99 400 76 q 391 142 392 114 q 387 202 389 170 l 387 205 l 387 206 q 372 307 381 255 q 345 393 362 358 q 332 349 342 380 q 310 282 321 317 q 288 216 298 247 q 271 172 277 184 q 253 122 263 152 q 228 65 243 92 q 191 18 213 38 q 136 -1 168 -1 q 75 20 98 -1 q 41 73 53 42 q 25 140 28 104 q 22 203 22 176 m 95 209 q 114 100 98 121 q 152 102 130 79 q 198 180 174 125 q 243 298 222 235 q 279 422 264 362 q 296 517 294 483 q 283 519 293 518 q 271 519 274 519 q 187 484 221 519 q 133 399 153 449 q 104 297 113 350 q 95 209 95 244 m 498 464 q 488 455 492 465 q 480 433 483 445 q 478 410 477 420 q 484 401 479 400 q 494 412 490 403 q 502 433 499 422 q 504 453 505 444 q 498 464 503 463 m 427 848 q 368 743 392 780 q 328 690 343 705 q 303 677 312 675 q 289 690 294 680 q 280 713 283 700 q 273 732 277 726 q 302 781 292 765 q 323 810 313 798 q 347 839 334 823 q 384 884 359 854 l 427 848 z "},"ć":{"ha":345,"x_min":23,"x_max":313,"o":"m 23 307 q 26 392 23 346 q 45 477 30 438 q 89 543 60 517 q 170 570 118 570 q 211 560 187 570 q 256 534 235 551 q 291 497 277 518 q 305 453 305 476 q 297 410 305 429 q 258 391 289 391 q 236 403 243 391 q 222 430 229 415 q 204 457 214 445 q 172 469 194 469 q 125 447 141 469 q 102 393 109 425 q 96 330 96 362 q 96 277 96 297 q 97 227 96 258 q 104 168 98 197 q 125 117 110 138 q 170 96 141 96 q 235 112 205 96 q 296 148 264 127 q 304 132 296 145 q 313 117 313 119 q 301 69 313 91 q 269 31 289 47 q 225 6 250 15 q 175 -3 201 -3 q 94 31 123 -3 q 48 112 64 64 q 28 214 33 160 q 23 307 23 267 m 250 848 q 190 743 214 780 q 150 690 165 705 q 125 677 134 675 q 111 690 117 680 q 102 713 106 700 q 95 732 99 726 q 125 781 114 765 q 146 810 136 798 q 169 839 156 823 q 206 884 182 854 l 250 848 z "},"č":{"ha":345,"x_min":23,"x_max":316,"o":"m 23 307 q 26 392 23 346 q 45 477 30 438 q 89 543 60 517 q 170 570 118 570 q 211 560 187 570 q 256 534 235 551 q 291 497 277 518 q 305 453 305 476 q 297 410 305 429 q 258 391 289 391 q 236 403 243 391 q 222 430 229 415 q 204 457 214 445 q 172 469 194 469 q 125 447 141 469 q 102 393 109 425 q 96 330 96 362 q 96 277 96 297 q 97 227 96 258 q 104 168 98 197 q 125 117 110 138 q 170 96 141 96 q 235 112 205 96 q 296 148 264 127 q 304 132 296 145 q 313 117 313 119 q 301 69 313 91 q 269 31 289 47 q 225 6 250 15 q 175 -3 201 -3 q 94 31 123 -3 q 48 112 64 64 q 28 214 33 160 q 23 307 23 267 m 316 784 l 146 647 l 31 796 l 111 817 l 156 731 l 233 784 l 316 784 z "},"ç":{"ha":345,"x_min":23,"x_max":365,"o":"m 23 307 q 26 392 23 346 q 45 477 30 438 q 89 543 60 517 q 170 570 118 570 q 211 560 187 570 q 256 534 235 551 q 291 497 277 518 q 305 453 305 476 q 297 410 305 429 q 258 391 289 391 q 236 403 243 391 q 222 430 229 415 q 204 457 214 445 q 172 469 194 469 q 125 447 141 469 q 102 393 109 425 q 96 330 96 362 q 96 277 96 297 q 97 227 96 258 q 104 168 98 197 q 125 117 110 138 q 170 96 141 96 q 235 112 205 96 q 296 148 264 127 q 304 132 296 145 q 313 117 313 119 q 301 69 313 91 q 269 31 289 47 q 225 6 250 15 q 175 -3 201 -3 q 94 31 123 -3 q 48 112 64 64 q 28 214 33 160 q 23 307 23 267 m 176 -157 q 275 -165 251 -175 q 289 -134 300 -155 q 238 -92 278 -114 q 145 -64 198 -71 q 134 13 126 -9 q 159 35 142 35 q 192 18 176 35 q 203 -26 208 0 q 254 -41 224 -33 q 309 -63 283 -49 q 350 -102 335 -77 q 355 -164 365 -126 q 340 -197 355 -183 q 301 -220 324 -212 q 252 -233 278 -229 q 206 -237 227 -237 q 168 -220 180 -232 q 154 -195 156 -208 q 158 -171 152 -182 q 176 -157 164 -160 z "},"ĉ":{"ha":345,"x_min":-69,"x_max":412,"o":"m 23 307 q 26 392 23 346 q 45 477 30 438 q 89 543 60 517 q 170 570 118 570 q 211 560 187 570 q 256 534 235 551 q 291 497 277 518 q 305 453 305 476 q 297 410 305 429 q 258 391 289 391 q 236 403 243 391 q 222 430 229 415 q 204 457 214 445 q 172 469 194 469 q 125 447 141 469 q 102 393 109 425 q 96 330 96 362 q 96 277 96 297 q 97 227 96 258 q 104 168 98 197 q 125 117 110 138 q 170 96 141 96 q 235 112 205 96 q 296 148 264 127 q 304 132 296 145 q 313 117 313 119 q 301 69 313 91 q 269 31 289 47 q 225 6 250 15 q 175 -3 201 -3 q 94 31 123 -3 q 48 112 64 64 q 28 214 33 160 q 23 307 23 267 m -68 769 q 11 894 -47 831 q 164 991 69 956 q 205 965 180 985 q 259 920 231 945 q 316 864 288 894 q 366 807 345 834 q 400 758 388 780 q 408 726 412 736 l 339 726 l 165 901 q 104 863 129 882 q 62 823 79 845 q 33 774 45 802 q 8 709 20 747 q -7 688 1 694 q -28 682 -15 682 q -56 692 -47 682 q -66 715 -64 701 q -68 743 -69 728 q -68 769 -68 758 z "}}}
